<svg width="33" height="32" viewBox="0 0 33 32" fill="none" xmlns="http://www.w3.org/2000/svg">
<g clip-path="url(#clip0_1802_95167)">
<path fill-rule="evenodd" clip-rule="evenodd" d="M7.64446 24.9563C8.03498 25.3468 8.66814 25.3468 9.05867 24.9563L25.5578 8.45713C25.9484 8.0666 25.9484 7.43344 25.5578 7.04291C25.1673 6.65239 24.5341 6.65239 24.1436 7.04291L7.64446 23.5421C7.25393 23.9326 7.25393 24.5658 7.64446 24.9563Z" fill="#CFD4D9"/>
<path fill-rule="evenodd" clip-rule="evenodd" d="M7.64461 7.04332C7.25408 7.43384 7.25408 8.06701 7.64461 8.45753L24.1438 24.9567C24.5343 25.3472 25.1675 25.3472 25.558 24.9567C25.9485 24.5662 25.9485 23.933 25.558 23.5425L9.05882 7.04332C8.6683 6.6528 8.03513 6.6528 7.64461 7.04332Z" fill="#CFD4D9"/>
</g>
<defs>
<clipPath id="clip0_1802_95167">
<rect width="32" height="32" fill="white" transform="translate(0.601562)"/>
</clipPath>
</defs>
</svg>
