<svg width="19" height="19" viewBox="0 0 19 19" fill="none" xmlns="http://www.w3.org/2000/svg">
<rect width="18" height="18" transform="translate(0.480469 0.5)" fill="white"/>
<path fill-rule="evenodd" clip-rule="evenodd" d="M10.4805 3.05H3.48047C3.23194 3.05 3.03047 3.25147 3.03047 3.5V10.5C3.03047 10.7485 3.23194 10.95 3.48047 10.95H10.4805C10.729 10.95 10.9305 10.7485 10.9305 10.5V3.5C10.9305 3.25147 10.729 3.05 10.4805 3.05ZM3.48047 2C2.65204 2 1.98047 2.67157 1.98047 3.5V10.5C1.98047 11.3284 2.65204 12 3.48047 12H10.4805C11.3089 12 11.9805 11.3284 11.9805 10.5V3.5C11.9805 2.67157 11.3089 2 10.4805 2H3.48047Z" fill="#0F2453"/>
<path d="M6.98047 8.5C6.98047 7.67157 7.65204 7 8.48047 7H15.4805C16.3089 7 16.9805 7.67157 16.9805 8.5V15.5C16.9805 16.3284 16.3089 17 15.4805 17H8.48047C7.65204 17 6.98047 16.3284 6.98047 15.5V8.5Z" fill="white"/>
<path fill-rule="evenodd" clip-rule="evenodd" d="M15.4805 8.05H8.48047C8.23194 8.05 8.03047 8.25147 8.03047 8.5V15.5C8.03047 15.7485 8.23194 15.95 8.48047 15.95H15.4805C15.729 15.95 15.9305 15.7485 15.9305 15.5V8.5C15.9305 8.25147 15.729 8.05 15.4805 8.05ZM8.48047 7C7.65204 7 6.98047 7.67157 6.98047 8.5V15.5C6.98047 16.3284 7.65204 17 8.48047 17H15.4805C16.3089 17 16.9805 16.3284 16.9805 15.5V8.5C16.9805 7.67157 16.3089 7 15.4805 7H8.48047Z" fill="#0F2453"/>
</svg>
