<svg width="19" height="19" viewBox="0 0 19 19" fill="none" xmlns="http://www.w3.org/2000/svg">
<circle cx="9.60352" cy="9.5" r="7.5" fill="#D44652"/>
<path fill-rule="evenodd" clip-rule="evenodd" d="M9.619 10.7766C9.3514 10.7766 9.13448 10.5597 9.13448 10.2921L9.13448 6.39516C9.13448 6.12757 9.35141 5.91064 9.619 5.91064C9.88659 5.91064 10.1035 6.12757 10.1035 6.39516L10.1035 10.2921C10.1035 10.5597 9.88659 10.7766 9.619 10.7766Z" fill="white"/>
<path fill-rule="evenodd" clip-rule="evenodd" d="M9.60352 13.0894C9.32737 13.0894 9.10352 12.8655 9.10352 12.5894C9.10352 12.3132 9.32737 12.0894 9.60352 12.0894C9.87966 12.0894 10.1035 12.3132 10.1035 12.5894C10.1035 12.8655 9.87966 13.0894 9.60352 13.0894Z" fill="white"/>
</svg>
