<svg width="25" height="24" viewBox="0 0 25 24" fill="none" xmlns="http://www.w3.org/2000/svg">
<path d="M13.832 21.0762C13.832 21.8108 13.2365 22.4062 12.502 22.4062C11.7674 22.4062 11.1719 21.8108 11.1719 21.0762C11.1719 20.3416 11.7674 19.7461 12.502 19.7461C13.2365 19.7461 13.832 20.3416 13.832 21.0762Z" fill="url(#paint0_radial_1802_96506)"/>
<path d="M9.98828 17.5664C9.98828 17.0486 10.408 16.6289 10.9258 16.6289H14.1367C14.6545 16.6289 15.0742 17.0486 15.0742 17.5664V20.7305C15.0742 21.2482 14.6545 21.668 14.1367 21.668H10.9258C10.408 21.668 9.98828 21.2482 9.98828 20.7305V17.5664Z" fill="url(#paint1_linear_1802_96506)"/>
<path d="M9.98828 17.5664C9.98828 17.0486 10.408 16.6289 10.9258 16.6289H14.1367C14.6545 16.6289 15.0742 17.0486 15.0742 17.5664V20.7305C15.0742 21.2482 14.6545 21.668 14.1367 21.668H10.9258C10.408 21.668 9.98828 21.2482 9.98828 20.7305V17.5664Z" fill="url(#paint2_linear_1802_96506)"/>
<path d="M9.98828 17.5664C9.98828 17.0486 10.408 16.6289 10.9258 16.6289H14.1367C14.6545 16.6289 15.0742 17.0486 15.0742 17.5664V20.7305C15.0742 21.2482 14.6545 21.668 14.1367 21.668H10.9258C10.408 21.668 9.98828 21.2482 9.98828 20.7305V17.5664Z" fill="url(#paint3_radial_1802_96506)"/>
<path d="M9.98828 17.5664C9.98828 17.0486 10.408 16.6289 10.9258 16.6289H14.1367C14.6545 16.6289 15.0742 17.0486 15.0742 17.5664V20.7305C15.0742 21.2482 14.6545 21.668 14.1367 21.668H10.9258C10.408 21.668 9.98828 21.2482 9.98828 20.7305V17.5664Z" fill="url(#paint4_linear_1802_96506)"/>
<g filter="url(#filter0_i_1802_96506)">
<path d="M12.429 17.2265C12.4432 17.2266 12.4567 17.2266 12.4696 17.2266C12.886 17.2247 13.845 17.2086 14.2295 17.1387C14.642 17.0637 14.6952 16.8581 14.7686 16.5352C15.2204 14.5451 15.9779 13.7801 16.4847 13.2682C16.5629 13.1893 16.635 13.1164 16.6992 13.0459C16.9192 12.8045 17.1096 12.592 17.2549 12.4279C18.349 11.2667 19.0195 9.70198 19.0195 7.98065C19.0195 4.39835 16.1155 1.49432 12.5332 1.49432C8.9509 1.49432 6.04688 4.39835 6.04688 7.98065C6.04688 9.68099 6.70113 11.2285 7.77164 12.3852C7.9211 12.5544 8.1256 12.7831 8.3651 13.0459C8.40676 13.0916 8.45178 13.1384 8.49964 13.1872C8.52551 13.2135 8.55219 13.2405 8.57961 13.2682C9.08643 13.7801 9.84396 14.5451 10.2958 16.5352C10.3691 16.8581 10.4223 17.0637 10.8348 17.1387C11.2184 17.2084 11.9947 17.2245 12.3876 17.2264C12.4005 17.2264 12.4143 17.2266 12.429 17.2265Z" fill="url(#paint5_radial_1802_96506)"/>
<path d="M12.429 17.2265C12.4432 17.2266 12.4567 17.2266 12.4696 17.2266C12.886 17.2247 13.845 17.2086 14.2295 17.1387C14.642 17.0637 14.6952 16.8581 14.7686 16.5352C15.2204 14.5451 15.9779 13.7801 16.4847 13.2682C16.5629 13.1893 16.635 13.1164 16.6992 13.0459C16.9192 12.8045 17.1096 12.592 17.2549 12.4279C18.349 11.2667 19.0195 9.70198 19.0195 7.98065C19.0195 4.39835 16.1155 1.49432 12.5332 1.49432C8.9509 1.49432 6.04688 4.39835 6.04688 7.98065C6.04688 9.68099 6.70113 11.2285 7.77164 12.3852C7.9211 12.5544 8.1256 12.7831 8.3651 13.0459C8.40676 13.0916 8.45178 13.1384 8.49964 13.1872C8.52551 13.2135 8.55219 13.2405 8.57961 13.2682C9.08643 13.7801 9.84396 14.5451 10.2958 16.5352C10.3691 16.8581 10.4223 17.0637 10.8348 17.1387C11.2184 17.2084 11.9947 17.2245 12.3876 17.2264C12.4005 17.2264 12.4143 17.2266 12.429 17.2265Z" fill="url(#paint6_radial_1802_96506)"/>
</g>
<path d="M16.1953 5.21484C16.1953 6.5934 15.0778 7.71094 13.6992 7.71094C12.3207 7.71094 11.2031 6.5934 11.2031 5.21484C11.2031 3.83629 12.3207 2.71875 13.6992 2.71875C15.0778 2.71875 16.1953 3.83629 16.1953 5.21484Z" fill="url(#paint7_linear_1802_96506)"/>
<g filter="url(#filter1_i_1802_96506)">
<path d="M12.2118 17.2248C12.1855 15.5956 12.0557 14.5229 11.8581 13.7761C11.6303 12.9155 11.3117 12.4865 10.9746 12.1464L10.9704 12.1421L10.966 12.138C10.5342 11.7295 10.2656 11.1523 10.2656 10.5117C10.2656 9.27555 11.2677 8.27344 12.5039 8.27344C13.7401 8.27344 14.7422 9.27555 14.7422 10.5117C14.7422 11.1523 14.4736 11.7295 14.0418 12.138L14.0374 12.1421L14.0332 12.1464C13.7022 12.4804 13.3793 12.8812 13.1487 13.7348C12.9493 14.4732 12.8188 15.5498 12.7928 17.2231C13.019 17.2195 13.2896 17.2126 13.5433 17.2002C13.5701 15.5743 13.6977 14.5784 13.8728 13.9303C14.0625 13.2281 14.3062 12.9369 14.5619 12.6784C15.1344 12.1345 15.4922 11.3646 15.4922 10.5117C15.4922 8.86134 14.1543 7.52344 12.5039 7.52344C10.8535 7.52344 9.51562 8.86134 9.51562 10.5117C9.51562 11.3645 9.87338 12.1344 10.4459 12.6784C10.6956 12.9311 10.9422 13.2467 11.1331 13.968C11.3075 14.627 11.4341 15.6211 11.4613 17.2007C11.7211 17.2151 11.995 17.2219 12.2118 17.2248Z" fill="#FFAD55"/>
</g>
<g filter="url(#filter2_f_1802_96506)">
<path fill-rule="evenodd" clip-rule="evenodd" d="M9.89453 10.4127C9.89453 8.91767 11.1065 7.70569 12.6016 7.70569C14.0966 7.70569 15.3086 8.91767 15.3086 10.4127C15.3086 11.1868 14.9835 11.8852 14.4627 12.3784C14.173 12.6708 13.9015 12.9492 13.6978 13.5917C13.4916 14.2419 13.3545 15.2675 13.3545 17.0539H13.167C13.167 15.262 13.304 14.2131 13.5191 13.535C13.7363 12.8499 14.0326 12.5461 14.3306 12.2454L14.3327 12.2432L14.3328 12.2433C14.8183 11.7839 15.1211 11.1337 15.1211 10.4127C15.1211 9.02122 13.9931 7.89319 12.6016 7.89319C11.2101 7.89319 10.082 9.02122 10.082 10.4127C10.082 11.1337 10.3848 11.7839 10.8703 12.2433L10.8725 12.2454L10.8725 12.2454C11.4869 12.8654 12.0332 13.9237 12.0332 17.0539H11.8457C11.8457 13.9424 11.3019 12.9456 10.7404 12.3784C10.2196 11.8852 9.89453 11.1868 9.89453 10.4127Z" fill="url(#paint8_linear_1802_96506)"/>
</g>
<g filter="url(#filter3_f_1802_96506)">
<path d="M9.98791 19.2387C9.9536 19.0196 10.1033 18.8143 10.3223 18.78L14.576 18.1135C14.795 18.0792 15.0004 18.2289 15.0347 18.4479C15.069 18.6669 14.9193 18.8723 14.7003 18.9066L10.4466 19.5731C10.2276 19.6074 10.0222 19.4577 9.98791 19.2387Z" fill="#7E6693"/>
</g>
<g filter="url(#filter4_f_1802_96506)">
<path d="M9.98791 21.0171C9.9536 20.7981 10.1033 20.5927 10.3223 20.5584L14.576 19.8919C14.795 19.8576 15.0004 20.0073 15.0347 20.2263C15.069 20.4454 14.9193 20.6507 14.7003 20.685L10.4466 21.3515C10.2276 21.3858 10.0222 21.2361 9.98791 21.0171Z" fill="#7E6693"/>
</g>
<path d="M9.42724 21.0054C9.39192 20.78 9.54604 20.5686 9.77148 20.5333L15.1201 19.6952C15.3455 19.6599 15.5569 19.814 15.5922 20.0395C15.6276 20.2649 15.4734 20.4763 15.248 20.5116L9.8994 21.3497C9.67396 21.385 9.46256 21.2309 9.42724 21.0054Z" fill="url(#paint9_linear_1802_96506)"/>
<path d="M9.42724 21.0054C9.39192 20.78 9.54604 20.5686 9.77148 20.5333L15.1201 19.6952C15.3455 19.6599 15.5569 19.814 15.5922 20.0395C15.6276 20.2649 15.4734 20.4763 15.248 20.5116L9.8994 21.3497C9.67396 21.385 9.46256 21.2309 9.42724 21.0054Z" fill="url(#paint10_linear_1802_96506)"/>
<path d="M9.42724 21.0054C9.39192 20.78 9.54604 20.5686 9.77148 20.5333L15.1201 19.6952C15.3455 19.6599 15.5569 19.814 15.5922 20.0395C15.6276 20.2649 15.4734 20.4763 15.248 20.5116L9.8994 21.3497C9.67396 21.385 9.46256 21.2309 9.42724 21.0054Z" fill="url(#paint11_linear_1802_96506)"/>
<path d="M9.42724 21.0054C9.39192 20.78 9.54604 20.5686 9.77148 20.5333L15.1201 19.6952C15.3455 19.6599 15.5569 19.814 15.5922 20.0395C15.6276 20.2649 15.4734 20.4763 15.248 20.5116L9.8994 21.3497C9.67396 21.385 9.46256 21.2309 9.42724 21.0054Z" fill="url(#paint12_radial_1802_96506)"/>
<path d="M9.42724 19.2231C9.39192 18.9976 9.54604 18.7862 9.77148 18.7509L15.1201 17.9129C15.3455 17.8776 15.5569 18.0317 15.5922 18.2571C15.6276 18.4826 15.4734 18.694 15.248 18.7293L9.8994 19.5673C9.67396 19.6026 9.46256 19.4485 9.42724 19.2231Z" fill="url(#paint13_linear_1802_96506)"/>
<path d="M9.42724 19.2231C9.39192 18.9976 9.54604 18.7862 9.77148 18.7509L15.1201 17.9129C15.3455 17.8776 15.5569 18.0317 15.5922 18.2571C15.6276 18.4826 15.4734 18.694 15.248 18.7293L9.8994 19.5673C9.67396 19.6026 9.46256 19.4485 9.42724 19.2231Z" fill="url(#paint14_linear_1802_96506)"/>
<path d="M9.42724 19.2231C9.39192 18.9976 9.54604 18.7862 9.77148 18.7509L15.1201 17.9129C15.3455 17.8776 15.5569 18.0317 15.5922 18.2571C15.6276 18.4826 15.4734 18.694 15.248 18.7293L9.8994 19.5673C9.67396 19.6026 9.46256 19.4485 9.42724 19.2231Z" fill="url(#paint15_linear_1802_96506)"/>
<path d="M9.42724 19.2231C9.39192 18.9976 9.54604 18.7862 9.77148 18.7509L15.1201 17.9129C15.3455 17.8776 15.5569 18.0317 15.5922 18.2571C15.6276 18.4826 15.4734 18.694 15.248 18.7293L9.8994 19.5673C9.67396 19.6026 9.46256 19.4485 9.42724 19.2231Z" fill="url(#paint16_radial_1802_96506)"/>
<defs>
<filter id="filter0_i_1802_96506" x="6.04688" y="1.49432" width="13.2227" height="15.8822" filterUnits="userSpaceOnUse" color-interpolation-filters="sRGB">
<feFlood flood-opacity="0" result="BackgroundImageFix"/>
<feBlend mode="normal" in="SourceGraphic" in2="BackgroundImageFix" result="shape"/>
<feColorMatrix in="SourceAlpha" type="matrix" values="0 0 0 0 0 0 0 0 0 0 0 0 0 0 0 0 0 0 127 0" result="hardAlpha"/>
<feOffset dx="0.25" dy="0.15"/>
<feGaussianBlur stdDeviation="0.5"/>
<feComposite in2="hardAlpha" operator="arithmetic" k2="-1" k3="1"/>
<feColorMatrix type="matrix" values="0 0 0 0 0.992157 0 0 0 0 0.666667 0 0 0 0 0.309804 0 0 0 1 0"/>
<feBlend mode="normal" in2="shape" result="effect1_innerShadow_1802_96506"/>
</filter>
<filter id="filter1_i_1802_96506" x="9.51562" y="7.52344" width="6.22656" height="9.70129" filterUnits="userSpaceOnUse" color-interpolation-filters="sRGB">
<feFlood flood-opacity="0" result="BackgroundImageFix"/>
<feBlend mode="normal" in="SourceGraphic" in2="BackgroundImageFix" result="shape"/>
<feColorMatrix in="SourceAlpha" type="matrix" values="0 0 0 0 0 0 0 0 0 0 0 0 0 0 0 0 0 0 127 0" result="hardAlpha"/>
<feOffset dx="0.25"/>
<feGaussianBlur stdDeviation="0.25"/>
<feComposite in2="hardAlpha" operator="arithmetic" k2="-1" k3="1"/>
<feColorMatrix type="matrix" values="0 0 0 0 1 0 0 0 0 0.572549 0 0 0 0 0.254902 0 0 0 1 0"/>
<feBlend mode="normal" in2="shape" result="effect1_innerShadow_1802_96506"/>
</filter>
<filter id="filter2_f_1802_96506" x="9.64453" y="7.45569" width="5.91406" height="9.84821" filterUnits="userSpaceOnUse" color-interpolation-filters="sRGB">
<feFlood flood-opacity="0" result="BackgroundImageFix"/>
<feBlend mode="normal" in="SourceGraphic" in2="BackgroundImageFix" result="shape"/>
<feGaussianBlur stdDeviation="0.125" result="effect1_foregroundBlur_1802_96506"/>
</filter>
<filter id="filter3_f_1802_96506" x="9.73438" y="17.8586" width="5.55469" height="1.96936" filterUnits="userSpaceOnUse" color-interpolation-filters="sRGB">
<feFlood flood-opacity="0" result="BackgroundImageFix"/>
<feBlend mode="normal" in="SourceGraphic" in2="BackgroundImageFix" result="shape"/>
<feGaussianBlur stdDeviation="0.125" result="effect1_foregroundBlur_1802_96506"/>
</filter>
<filter id="filter4_f_1802_96506" x="9.73438" y="19.637" width="5.55469" height="1.96936" filterUnits="userSpaceOnUse" color-interpolation-filters="sRGB">
<feFlood flood-opacity="0" result="BackgroundImageFix"/>
<feBlend mode="normal" in="SourceGraphic" in2="BackgroundImageFix" result="shape"/>
<feGaussianBlur stdDeviation="0.125" result="effect1_foregroundBlur_1802_96506"/>
</filter>
<radialGradient id="paint0_radial_1802_96506" cx="0" cy="0" r="1" gradientUnits="userSpaceOnUse" gradientTransform="translate(12.8535 21.832) rotate(96.6544) scale(0.707894 1.63961)">
<stop offset="0.267752" stop-color="#AC90C6"/>
<stop offset="1" stop-color="#8E6AAA"/>
</radialGradient>
<linearGradient id="paint1_linear_1802_96506" x1="15.0742" y1="19.3511" x2="9.98828" y2="19.3511" gradientUnits="userSpaceOnUse">
<stop stop-color="#CDC2D1"/>
<stop offset="1" stop-color="#947C8D"/>
</linearGradient>
<linearGradient id="paint2_linear_1802_96506" x1="9.73717" y1="19.7344" x2="10.9794" y2="19.7344" gradientUnits="userSpaceOnUse">
<stop stop-color="#8A7B88"/>
<stop offset="1" stop-color="#8A7B88" stop-opacity="0"/>
</linearGradient>
<radialGradient id="paint3_radial_1802_96506" cx="0" cy="0" r="1" gradientUnits="userSpaceOnUse" gradientTransform="translate(13.58 16.9803) rotate(88.6361) scale(0.618651 2.75431)">
<stop offset="0.228769" stop-color="#EDE2EB"/>
<stop offset="1" stop-color="#C8BCCB" stop-opacity="0"/>
</radialGradient>
<linearGradient id="paint4_linear_1802_96506" x1="13.6981" y1="21.668" x2="13.6981" y2="20.7187" gradientUnits="userSpaceOnUse">
<stop stop-color="#7E5F9E"/>
<stop offset="1" stop-color="#7E5F9E" stop-opacity="0"/>
</linearGradient>
<radialGradient id="paint5_radial_1802_96506" cx="0" cy="0" r="1" gradientUnits="userSpaceOnUse" gradientTransform="translate(15.2704 6.09376) rotate(138.066) scale(7.43527 6.13105)">
<stop offset="0.286168" stop-color="#FFEC87"/>
<stop offset="1" stop-color="#FFCD4B"/>
</radialGradient>
<radialGradient id="paint6_radial_1802_96506" cx="0" cy="0" r="1" gradientUnits="userSpaceOnUse" gradientTransform="translate(15.9735 10.0781) rotate(-147.604) scale(10.9365 10.5194)">
<stop offset="0.622387" stop-color="#FFB239" stop-opacity="0"/>
<stop offset="1" stop-color="#FFB239"/>
</radialGradient>
<linearGradient id="paint7_linear_1802_96506" x1="12.8263" y1="6.02056" x2="15.3924" y2="4.02097" gradientUnits="userSpaceOnUse">
<stop stop-color="white" stop-opacity="0"/>
<stop offset="0.594121" stop-color="white"/>
</linearGradient>
<linearGradient id="paint8_linear_1802_96506" x1="15.3913" y1="8.248" x2="12.3873" y2="15.4047" gradientUnits="userSpaceOnUse">
<stop stop-color="#FFBF5C"/>
<stop offset="1" stop-color="#FFBF5C" stop-opacity="0"/>
</linearGradient>
<linearGradient id="paint9_linear_1802_96506" x1="12.3722" y1="20.1328" x2="12.5714" y2="21.0234" gradientUnits="userSpaceOnUse">
<stop stop-color="#B1969A"/>
<stop offset="1" stop-color="#DAD2E2"/>
</linearGradient>
<linearGradient id="paint10_linear_1802_96506" x1="13.216" y1="20.8125" x2="13.1222" y2="20.2266" gradientUnits="userSpaceOnUse">
<stop stop-color="#8A68A9"/>
<stop offset="1" stop-color="#DEC2E3" stop-opacity="0"/>
</linearGradient>
<linearGradient id="paint11_linear_1802_96506" x1="9.36328" y1="21.0703" x2="11.4113" y2="20.6367" gradientUnits="userSpaceOnUse">
<stop stop-color="#958387"/>
<stop offset="1" stop-color="#958387" stop-opacity="0"/>
</linearGradient>
<radialGradient id="paint12_radial_1802_96506" cx="0" cy="0" r="1" gradientUnits="userSpaceOnUse" gradientTransform="translate(14.5168 20.0753) rotate(81.4164) scale(0.62813 3.71783)">
<stop offset="0.126697" stop-color="#FCF0FC"/>
<stop offset="1" stop-color="#E5C9E3" stop-opacity="0"/>
</radialGradient>
<linearGradient id="paint13_linear_1802_96506" x1="12.3722" y1="18.3505" x2="12.5714" y2="19.2411" gradientUnits="userSpaceOnUse">
<stop stop-color="#B1969A"/>
<stop offset="1" stop-color="#DAD2E2"/>
</linearGradient>
<linearGradient id="paint14_linear_1802_96506" x1="13.216" y1="19.0302" x2="13.1222" y2="18.4442" gradientUnits="userSpaceOnUse">
<stop stop-color="#8A68A9"/>
<stop offset="1" stop-color="#DEC2E3" stop-opacity="0"/>
</linearGradient>
<linearGradient id="paint15_linear_1802_96506" x1="9.36328" y1="19.288" x2="11.4113" y2="18.8544" gradientUnits="userSpaceOnUse">
<stop stop-color="#958387"/>
<stop offset="1" stop-color="#958387" stop-opacity="0"/>
</linearGradient>
<radialGradient id="paint16_radial_1802_96506" cx="0" cy="0" r="1" gradientUnits="userSpaceOnUse" gradientTransform="translate(14.5168 18.293) rotate(81.4164) scale(0.62813 3.71783)">
<stop offset="0.126697" stop-color="#FCF0FC"/>
<stop offset="1" stop-color="#E5C9E3" stop-opacity="0"/>
</radialGradient>
</defs>
</svg>
