<svg width="24" height="24" viewBox="0 0 24 24" fill="none" xmlns="http://www.w3.org/2000/svg">
<g clip-path="url(#clip0_2437_89103)">
<path fill-rule="evenodd" clip-rule="evenodd" d="M5.28217 18.7172C5.57506 19.0101 6.04994 19.0101 6.34283 18.7172L18.7172 6.34283C19.0101 6.04994 19.0101 5.57506 18.7172 5.28217C18.4243 4.98928 17.9494 4.98928 17.6565 5.28217L5.28217 17.6565C4.98928 17.9494 4.98928 18.4243 5.28217 18.7172Z" />
<path fill-rule="evenodd" clip-rule="evenodd" d="M5.28424 5.28248C4.99134 5.57537 4.99134 6.05024 5.28424 6.34314L17.6586 18.7175C17.9515 19.0104 18.4264 19.0104 18.7193 18.7175C19.0122 18.4246 19.0122 17.9497 18.7193 17.6568L6.3449 5.28248C6.052 4.98958 5.57713 4.98958 5.28424 5.28248Z" />
</g>
<defs>
<clipPath id="clip0_2437_89103">
<rect width="24" height="24" fill="white"/>
</clipPath>
</defs>
</svg>
