<svg width="25" height="25" viewBox="0 0 25 25" fill="none" xmlns="http://www.w3.org/2000/svg">
<g clip-path="url(#clip0_2540_7711)">
<circle cx="12.5" cy="12.5" r="12" fill="#0F2453"/>
<path fill-rule="evenodd" clip-rule="evenodd" d="M18.2774 10.1907C18.5735 9.89465 18.5735 9.41462 18.2774 9.11854C17.9814 8.82247 17.5013 8.82247 17.2052 9.11854L11.6764 14.6474L8.16925 11.1403C7.87317 10.8442 7.39313 10.8442 7.09706 11.1403C6.80098 11.4364 6.80098 11.9164 7.09706 12.2125L11.1236 16.239C11.129 16.2447 11.1344 16.2504 11.14 16.2559C11.2876 16.4035 11.4807 16.4775 11.6741 16.478C11.869 16.4786 12.064 16.4046 12.2127 16.2559C12.2183 16.2504 12.2238 16.2447 12.2292 16.239L18.2774 10.1907Z" fill="white"/>
</g>
<defs>
<clipPath id="clip0_2540_7711">
<rect width="24" height="24" fill="white" transform="translate(0.5 0.5)"/>
</clipPath>
</defs>
</svg>
