<svg width="25" height="24" viewBox="0 0 25 24" fill="none" xmlns="http://www.w3.org/2000/svg">
<path fill-rule="evenodd" clip-rule="evenodd" d="M20.0568 8.67134C20.4515 8.27657 20.4515 7.63652 20.0568 7.24176C19.662 6.84699 19.0219 6.84699 18.6272 7.24176L11.2554 14.6136L6.57918 9.93741C6.18441 9.54264 5.54436 9.54264 5.14959 9.93741C4.75482 10.3322 4.75482 10.9722 5.14959 11.367L10.5183 16.7357C10.5255 16.7433 10.5328 16.7509 10.5402 16.7583C10.7385 16.9565 10.9986 17.0552 11.2584 17.0544C11.5162 17.0537 11.7738 16.955 11.9705 16.7583C11.9779 16.7509 11.9852 16.7433 11.9924 16.7357L20.0568 8.67134Z" fill="#0F1F44"/>
</svg>
