<svg width="21" height="20" viewBox="0 0 21 20" fill="none" xmlns="http://www.w3.org/2000/svg">
<g clip-path="url(#clip0_1241_30563)">
<path d="M18 7.00848V15.736C18 16.6941 17.1068 17.4676 15.999 17.4676H13.524C13.0599 17.4676 12.6856 17.0933 12.6856 16.6292V13.3508C12.6856 13.0314 12.4261 12.772 12.1068 12.772H8.89321C8.57385 12.772 8.31437 13.0314 8.31437 13.3508V16.6292C8.31437 17.0933 7.94012 17.4676 7.47605 17.4676H5.001C3.8982 17.4676 3 16.6941 3 15.736V7.00848C3 6.38972 3.38423 5.82086 4.00299 5.51148L9.502 2.76198C10.1208 2.45759 10.8792 2.45759 11.498 2.76198L16.997 5.51148C17.6158 5.82086 18 6.38972 18 7.00848Z" fill="#0F2453"/>
</g>
<defs>
<clipPath id="clip0_1241_30563">
<rect width="15" height="14.9351" fill="white" transform="translate(3 2.53244)"/>
</clipPath>
</defs>
</svg>
