<svg width="24" height="24" viewBox="0 0 24 24" fill="none" xmlns="http://www.w3.org/2000/svg">
<path d="M13.2312 21.0762C13.2312 21.8108 12.6357 22.4062 11.9011 22.4062C11.1665 22.4062 10.571 21.8108 10.571 21.0762C10.571 20.3416 11.1665 19.7461 11.9011 19.7461C12.6357 19.7461 13.2312 20.3416 13.2312 21.0762Z" fill="url(#paint0_radial_25_12081)"/>
<path d="M9.38672 17.5664C9.38672 17.0486 9.80645 16.6289 10.3242 16.6289H13.5352C14.0529 16.6289 14.4727 17.0486 14.4727 17.5664V20.7305C14.4727 21.2482 14.0529 21.668 13.5352 21.668H10.3242C9.80645 21.668 9.38672 21.2482 9.38672 20.7305V17.5664Z" fill="url(#paint1_linear_25_12081)"/>
<path d="M9.38672 17.5664C9.38672 17.0486 9.80645 16.6289 10.3242 16.6289H13.5352C14.0529 16.6289 14.4727 17.0486 14.4727 17.5664V20.7305C14.4727 21.2482 14.0529 21.668 13.5352 21.668H10.3242C9.80645 21.668 9.38672 21.2482 9.38672 20.7305V17.5664Z" fill="url(#paint2_linear_25_12081)"/>
<path d="M9.38672 17.5664C9.38672 17.0486 9.80645 16.6289 10.3242 16.6289H13.5352C14.0529 16.6289 14.4727 17.0486 14.4727 17.5664V20.7305C14.4727 21.2482 14.0529 21.668 13.5352 21.668H10.3242C9.80645 21.668 9.38672 21.2482 9.38672 20.7305V17.5664Z" fill="url(#paint3_radial_25_12081)"/>
<path d="M9.38672 17.5664C9.38672 17.0486 9.80645 16.6289 10.3242 16.6289H13.5352C14.0529 16.6289 14.4727 17.0486 14.4727 17.5664V20.7305C14.4727 21.2482 14.0529 21.668 13.5352 21.668H10.3242C9.80645 21.668 9.38672 21.2482 9.38672 20.7305V17.5664Z" fill="url(#paint4_linear_25_12081)"/>
<g filter="url(#filter0_i_25_12081)">
<path d="M11.8255 17.2263C11.8396 17.2264 11.8532 17.2264 11.8661 17.2264C12.2825 17.2245 13.2415 17.2084 13.626 17.1385C14.0385 17.0635 14.0917 16.8579 14.165 16.535C14.6169 14.5449 15.3744 13.7799 15.8812 13.268C15.9593 13.1891 16.0315 13.1162 16.0957 13.0457C16.3156 12.8043 16.506 12.5918 16.6514 12.4277C17.7455 11.2665 18.416 9.7018 18.416 7.98047C18.416 4.39817 15.512 1.49414 11.9297 1.49414C8.34739 1.49414 5.44336 4.39817 5.44336 7.98047C5.44336 9.68081 6.09762 11.2283 7.16812 12.3851C7.31758 12.5542 7.52209 12.7829 7.76159 13.0457C7.80325 13.0915 7.84827 13.1382 7.89613 13.187C7.92199 13.2133 7.94868 13.2403 7.9761 13.268C8.48291 13.7799 9.24044 14.5449 9.69225 16.535C9.76556 16.8579 9.81882 17.0635 10.2313 17.1385C10.6149 17.2082 11.3912 17.2243 11.784 17.2262C11.7969 17.2262 11.8108 17.2264 11.8255 17.2263Z" fill="url(#paint5_radial_25_12081)"/>
<path d="M11.8255 17.2263C11.8396 17.2264 11.8532 17.2264 11.8661 17.2264C12.2825 17.2245 13.2415 17.2084 13.626 17.1385C14.0385 17.0635 14.0917 16.8579 14.165 16.535C14.6169 14.5449 15.3744 13.7799 15.8812 13.268C15.9593 13.1891 16.0315 13.1162 16.0957 13.0457C16.3156 12.8043 16.506 12.5918 16.6514 12.4277C17.7455 11.2665 18.416 9.7018 18.416 7.98047C18.416 4.39817 15.512 1.49414 11.9297 1.49414C8.34739 1.49414 5.44336 4.39817 5.44336 7.98047C5.44336 9.68081 6.09762 11.2283 7.16812 12.3851C7.31758 12.5542 7.52209 12.7829 7.76159 13.0457C7.80325 13.0915 7.84827 13.1382 7.89613 13.187C7.92199 13.2133 7.94868 13.2403 7.9761 13.268C8.48291 13.7799 9.24044 14.5449 9.69225 16.535C9.76556 16.8579 9.81882 17.0635 10.2313 17.1385C10.6149 17.2082 11.3912 17.2243 11.784 17.2262C11.7969 17.2262 11.8108 17.2264 11.8255 17.2263Z" fill="url(#paint6_radial_25_12081)"/>
</g>
<path d="M15.5925 5.21484C15.5925 6.5934 14.475 7.71094 13.0964 7.71094C11.7179 7.71094 10.6003 6.5934 10.6003 5.21484C10.6003 3.83629 11.7179 2.71875 13.0964 2.71875C14.475 2.71875 15.5925 3.83629 15.5925 5.21484Z" fill="url(#paint7_linear_25_12081)"/>
<g filter="url(#filter1_i_25_12081)">
<path d="M11.6091 17.2248C11.5828 15.5956 11.453 14.5229 11.2553 13.7761C11.0275 12.9155 10.7089 12.4865 10.3718 12.1464L10.3676 12.1421L10.3632 12.138C9.93144 11.7295 9.66284 11.1523 9.66284 10.5117C9.66284 9.27555 10.6649 8.27344 11.9011 8.27344C13.1373 8.27344 14.1394 9.27555 14.1394 10.5117C14.1394 11.1523 13.8708 11.7295 13.439 12.138L13.4347 12.1421L13.4304 12.1464C13.0994 12.4804 12.7765 12.8812 12.5459 13.7348C12.3465 14.4732 12.216 15.5498 12.1901 17.2231C12.4162 17.2195 12.6868 17.2126 12.9405 17.2002C12.9673 15.5743 13.095 14.5784 13.27 13.9303C13.4597 13.2281 13.7034 12.9369 13.9591 12.6784C14.5316 12.1345 14.8894 11.3646 14.8894 10.5117C14.8894 8.86134 13.5515 7.52344 11.9011 7.52344C10.2507 7.52344 8.91284 8.86134 8.91284 10.5117C8.91284 11.3645 9.27059 12.1344 9.84313 12.6784C10.0928 12.9311 10.3394 13.2467 10.5303 13.968C10.7047 14.627 10.8313 15.6211 10.8585 17.2007C11.1183 17.2151 11.3922 17.2219 11.6091 17.2248Z" fill="#FFAD55"/>
</g>
<g filter="url(#filter2_f_25_12081)">
<path fill-rule="evenodd" clip-rule="evenodd" d="M9.29297 10.4131C9.29297 8.91804 10.5049 7.70605 12 7.70605C13.4951 7.70605 14.707 8.91804 14.707 10.4131C14.707 11.1872 14.382 11.8855 13.8612 12.3788C13.5715 12.6712 13.2999 12.9496 13.0962 13.592C12.89 14.2422 12.7529 15.2679 12.7529 17.0543H12.5654C12.5654 15.2623 12.7025 14.2135 12.9175 13.5354C13.1347 12.8503 13.431 12.5465 13.7291 12.2458L13.7312 12.2436L13.7312 12.2437C14.2168 11.7843 14.5195 11.1341 14.5195 10.4131C14.5195 9.02159 13.3915 7.89355 12 7.89355C10.6085 7.89355 9.48047 9.02159 9.48047 10.4131C9.48047 11.1341 9.78322 11.7843 10.2688 12.2437L10.271 12.2457L10.2709 12.2458C10.8854 12.8657 11.4316 13.9241 11.4316 17.0543H11.2441C11.2441 13.9427 10.7003 12.946 10.1388 12.3788C9.61803 11.8855 9.29297 11.1872 9.29297 10.4131Z" fill="url(#paint8_linear_25_12081)"/>
</g>
<g filter="url(#filter3_f_25_12081)">
<path d="M9.38464 19.2383C9.35033 19.0193 9.50005 18.814 9.71906 18.7797L13.9728 18.1132C14.1918 18.0789 14.3971 18.2286 14.4314 18.4476C14.4658 18.6666 14.316 18.872 14.097 18.9063L9.84333 19.5728C9.62432 19.6071 9.41896 19.4574 9.38464 19.2383Z" fill="#7E6693"/>
</g>
<g filter="url(#filter4_f_25_12081)">
<path d="M9.38464 21.0167C9.35033 20.7977 9.50005 20.5923 9.71906 20.558L13.9728 19.8915C14.1918 19.8572 14.3971 20.0069 14.4314 20.2259C14.4658 20.4449 14.316 20.6503 14.097 20.6846L9.84333 21.3511C9.62432 21.3854 9.41896 21.2357 9.38464 21.0167Z" fill="#7E6693"/>
</g>
<path d="M8.82739 21.0059C8.79206 20.7804 8.94619 20.569 9.17163 20.5337L14.5202 19.6957C14.7457 19.6603 14.9571 19.8145 14.9924 20.0399C15.0277 20.2653 14.8736 20.4767 14.6481 20.5121L9.29955 21.3501C9.0741 21.3854 8.86271 21.2313 8.82739 21.0059Z" fill="url(#paint9_linear_25_12081)"/>
<path d="M8.82739 21.0059C8.79206 20.7804 8.94619 20.569 9.17163 20.5337L14.5202 19.6957C14.7457 19.6603 14.9571 19.8145 14.9924 20.0399C15.0277 20.2653 14.8736 20.4767 14.6481 20.5121L9.29955 21.3501C9.0741 21.3854 8.86271 21.2313 8.82739 21.0059Z" fill="url(#paint10_linear_25_12081)"/>
<path d="M8.82739 21.0059C8.79206 20.7804 8.94619 20.569 9.17163 20.5337L14.5202 19.6957C14.7457 19.6603 14.9571 19.8145 14.9924 20.0399C15.0277 20.2653 14.8736 20.4767 14.6481 20.5121L9.29955 21.3501C9.0741 21.3854 8.86271 21.2313 8.82739 21.0059Z" fill="url(#paint11_linear_25_12081)"/>
<path d="M8.82739 21.0059C8.79206 20.7804 8.94619 20.569 9.17163 20.5337L14.5202 19.6957C14.7457 19.6603 14.9571 19.8145 14.9924 20.0399C15.0277 20.2653 14.8736 20.4767 14.6481 20.5121L9.29955 21.3501C9.0741 21.3854 8.86271 21.2313 8.82739 21.0059Z" fill="url(#paint12_radial_25_12081)"/>
<path d="M8.82739 19.2227C8.79206 18.9972 8.94619 18.7858 9.17163 18.7505L14.5202 17.9125C14.7457 17.8771 14.9571 18.0313 14.9924 18.2567C15.0277 18.4821 14.8736 18.6935 14.6481 18.7289L9.29955 19.5669C9.0741 19.6022 8.86271 19.4481 8.82739 19.2227Z" fill="url(#paint13_linear_25_12081)"/>
<path d="M8.82739 19.2227C8.79206 18.9972 8.94619 18.7858 9.17163 18.7505L14.5202 17.9125C14.7457 17.8771 14.9571 18.0313 14.9924 18.2567C15.0277 18.4821 14.8736 18.6935 14.6481 18.7289L9.29955 19.5669C9.0741 19.6022 8.86271 19.4481 8.82739 19.2227Z" fill="url(#paint14_linear_25_12081)"/>
<path d="M8.82739 19.2227C8.79206 18.9972 8.94619 18.7858 9.17163 18.7505L14.5202 17.9125C14.7457 17.8771 14.9571 18.0313 14.9924 18.2567C15.0277 18.4821 14.8736 18.6935 14.6481 18.7289L9.29955 19.5669C9.0741 19.6022 8.86271 19.4481 8.82739 19.2227Z" fill="url(#paint15_linear_25_12081)"/>
<path d="M8.82739 19.2227C8.79206 18.9972 8.94619 18.7858 9.17163 18.7505L14.5202 17.9125C14.7457 17.8771 14.9571 18.0313 14.9924 18.2567C15.0277 18.4821 14.8736 18.6935 14.6481 18.7289L9.29955 19.5669C9.0741 19.6022 8.86271 19.4481 8.82739 19.2227Z" fill="url(#paint16_radial_25_12081)"/>
<defs>
<filter id="filter0_i_25_12081" x="5.44336" y="1.49414" width="13.2227" height="15.8824" filterUnits="userSpaceOnUse" color-interpolation-filters="sRGB">
<feFlood flood-opacity="0" result="BackgroundImageFix"/>
<feBlend mode="normal" in="SourceGraphic" in2="BackgroundImageFix" result="shape"/>
<feColorMatrix in="SourceAlpha" type="matrix" values="0 0 0 0 0 0 0 0 0 0 0 0 0 0 0 0 0 0 127 0" result="hardAlpha"/>
<feOffset dx="0.25" dy="0.15"/>
<feGaussianBlur stdDeviation="0.5"/>
<feComposite in2="hardAlpha" operator="arithmetic" k2="-1" k3="1"/>
<feColorMatrix type="matrix" values="0 0 0 0 0.992157 0 0 0 0 0.666667 0 0 0 0 0.309804 0 0 0 1 0"/>
<feBlend mode="normal" in2="shape" result="effect1_innerShadow_25_12081"/>
</filter>
<filter id="filter1_i_25_12081" x="8.91284" y="7.52344" width="6.22656" height="9.70117" filterUnits="userSpaceOnUse" color-interpolation-filters="sRGB">
<feFlood flood-opacity="0" result="BackgroundImageFix"/>
<feBlend mode="normal" in="SourceGraphic" in2="BackgroundImageFix" result="shape"/>
<feColorMatrix in="SourceAlpha" type="matrix" values="0 0 0 0 0 0 0 0 0 0 0 0 0 0 0 0 0 0 127 0" result="hardAlpha"/>
<feOffset dx="0.25"/>
<feGaussianBlur stdDeviation="0.25"/>
<feComposite in2="hardAlpha" operator="arithmetic" k2="-1" k3="1"/>
<feColorMatrix type="matrix" values="0 0 0 0 1 0 0 0 0 0.572549 0 0 0 0 0.254902 0 0 0 1 0"/>
<feBlend mode="normal" in2="shape" result="effect1_innerShadow_25_12081"/>
</filter>
<filter id="filter2_f_25_12081" x="9.04297" y="7.45605" width="5.91406" height="9.84863" filterUnits="userSpaceOnUse" color-interpolation-filters="sRGB">
<feFlood flood-opacity="0" result="BackgroundImageFix"/>
<feBlend mode="normal" in="SourceGraphic" in2="BackgroundImageFix" result="shape"/>
<feGaussianBlur stdDeviation="0.125" result="effect1_foregroundBlur_25_12081"/>
</filter>
<filter id="filter3_f_25_12081" x="9.12964" y="17.8584" width="5.55664" height="1.96973" filterUnits="userSpaceOnUse" color-interpolation-filters="sRGB">
<feFlood flood-opacity="0" result="BackgroundImageFix"/>
<feBlend mode="normal" in="SourceGraphic" in2="BackgroundImageFix" result="shape"/>
<feGaussianBlur stdDeviation="0.125" result="effect1_foregroundBlur_25_12081"/>
</filter>
<filter id="filter4_f_25_12081" x="9.12964" y="19.6367" width="5.55664" height="1.96973" filterUnits="userSpaceOnUse" color-interpolation-filters="sRGB">
<feFlood flood-opacity="0" result="BackgroundImageFix"/>
<feBlend mode="normal" in="SourceGraphic" in2="BackgroundImageFix" result="shape"/>
<feGaussianBlur stdDeviation="0.125" result="effect1_foregroundBlur_25_12081"/>
</filter>
<radialGradient id="paint0_radial_25_12081" cx="0" cy="0" r="1" gradientUnits="userSpaceOnUse" gradientTransform="translate(12.2527 21.832) rotate(96.6544) scale(0.707894 1.63961)">
<stop offset="0.267752" stop-color="#AC90C6"/>
<stop offset="1" stop-color="#8E6AAA"/>
</radialGradient>
<linearGradient id="paint1_linear_25_12081" x1="14.4727" y1="19.3511" x2="9.38672" y2="19.3511" gradientUnits="userSpaceOnUse">
<stop stop-color="#CDC2D1"/>
<stop offset="1" stop-color="#947C8D"/>
</linearGradient>
<linearGradient id="paint2_linear_25_12081" x1="9.13561" y1="19.7344" x2="10.3778" y2="19.7344" gradientUnits="userSpaceOnUse">
<stop stop-color="#8A7B88"/>
<stop offset="1" stop-color="#8A7B88" stop-opacity="0"/>
</linearGradient>
<radialGradient id="paint3_radial_25_12081" cx="0" cy="0" r="1" gradientUnits="userSpaceOnUse" gradientTransform="translate(12.9785 16.9803) rotate(88.6361) scale(0.618651 2.75431)">
<stop offset="0.228769" stop-color="#EDE2EB"/>
<stop offset="1" stop-color="#C8BCCB" stop-opacity="0"/>
</radialGradient>
<linearGradient id="paint4_linear_25_12081" x1="13.0965" y1="21.668" x2="13.0965" y2="20.7187" gradientUnits="userSpaceOnUse">
<stop stop-color="#7E5F9E"/>
<stop offset="1" stop-color="#7E5F9E" stop-opacity="0"/>
</linearGradient>
<radialGradient id="paint5_radial_25_12081" cx="0" cy="0" r="1" gradientUnits="userSpaceOnUse" gradientTransform="translate(14.6669 6.09358) rotate(138.066) scale(7.43527 6.13105)">
<stop offset="0.286168" stop-color="#FFEC87"/>
<stop offset="1" stop-color="#FFCD4B"/>
</radialGradient>
<radialGradient id="paint6_radial_25_12081" cx="0" cy="0" r="1" gradientUnits="userSpaceOnUse" gradientTransform="translate(15.37 10.078) rotate(-147.604) scale(10.9365 10.5194)">
<stop offset="0.622387" stop-color="#FFB239" stop-opacity="0"/>
<stop offset="1" stop-color="#FFB239"/>
</radialGradient>
<linearGradient id="paint7_linear_25_12081" x1="12.2235" y1="6.02056" x2="14.7896" y2="4.02097" gradientUnits="userSpaceOnUse">
<stop stop-color="white" stop-opacity="0"/>
<stop offset="0.594121" stop-color="white"/>
</linearGradient>
<linearGradient id="paint8_linear_25_12081" x1="14.7897" y1="8.24836" x2="11.7857" y2="15.405" gradientUnits="userSpaceOnUse">
<stop stop-color="#FFBF5C"/>
<stop offset="1" stop-color="#FFBF5C" stop-opacity="0"/>
</linearGradient>
<linearGradient id="paint9_linear_25_12081" x1="11.7724" y1="20.1332" x2="11.9716" y2="21.0239" gradientUnits="userSpaceOnUse">
<stop stop-color="#B1969A"/>
<stop offset="1" stop-color="#DAD2E2"/>
</linearGradient>
<linearGradient id="paint10_linear_25_12081" x1="12.6161" y1="20.8129" x2="12.5224" y2="20.227" gradientUnits="userSpaceOnUse">
<stop stop-color="#8A68A9"/>
<stop offset="1" stop-color="#DEC2E3" stop-opacity="0"/>
</linearGradient>
<linearGradient id="paint11_linear_25_12081" x1="8.76343" y1="21.0707" x2="10.8114" y2="20.6371" gradientUnits="userSpaceOnUse">
<stop stop-color="#958387"/>
<stop offset="1" stop-color="#958387" stop-opacity="0"/>
</linearGradient>
<radialGradient id="paint12_radial_25_12081" cx="0" cy="0" r="1" gradientUnits="userSpaceOnUse" gradientTransform="translate(13.9169 20.0758) rotate(81.4164) scale(0.62813 3.71783)">
<stop offset="0.126697" stop-color="#FCF0FC"/>
<stop offset="1" stop-color="#E5C9E3" stop-opacity="0"/>
</radialGradient>
<linearGradient id="paint13_linear_25_12081" x1="11.7724" y1="18.35" x2="11.9716" y2="19.2407" gradientUnits="userSpaceOnUse">
<stop stop-color="#B1969A"/>
<stop offset="1" stop-color="#DAD2E2"/>
</linearGradient>
<linearGradient id="paint14_linear_25_12081" x1="12.6161" y1="19.0297" x2="12.5224" y2="18.4438" gradientUnits="userSpaceOnUse">
<stop stop-color="#8A68A9"/>
<stop offset="1" stop-color="#DEC2E3" stop-opacity="0"/>
</linearGradient>
<linearGradient id="paint15_linear_25_12081" x1="8.76343" y1="19.2875" x2="10.8114" y2="18.8539" gradientUnits="userSpaceOnUse">
<stop stop-color="#958387"/>
<stop offset="1" stop-color="#958387" stop-opacity="0"/>
</linearGradient>
<radialGradient id="paint16_radial_25_12081" cx="0" cy="0" r="1" gradientUnits="userSpaceOnUse" gradientTransform="translate(13.9169 18.2926) rotate(81.4164) scale(0.62813 3.71783)">
<stop offset="0.126697" stop-color="#FCF0FC"/>
<stop offset="1" stop-color="#E5C9E3" stop-opacity="0"/>
</radialGradient>
</defs>
</svg>
