<svg width="19" height="18" viewBox="0 0 19 18" fill="none" xmlns="http://www.w3.org/2000/svg">
<path d="M17 9C17 13.1421 13.6421 16.5 9.5 16.5C5.35786 16.5 2 13.1421 2 9C2 4.85786 5.35786 1.5 9.5 1.5C13.6421 1.5 17 4.85786 17 9Z" fill="#D44652"/>
<path fill-rule="evenodd" clip-rule="evenodd" d="M9.5 5.625C9.91421 5.625 10.25 5.96079 10.25 6.375V9.375C10.25 9.78921 9.91421 10.125 9.5 10.125C9.08579 10.125 8.75 9.78921 8.75 9.375V6.375C8.75 5.96079 9.08579 5.625 9.5 5.625Z" fill="white"/>
<path fill-rule="evenodd" clip-rule="evenodd" d="M9.5 10.875C9.91421 10.875 10.25 11.2108 10.25 11.625V11.6325C10.25 12.0467 9.91421 12.3825 9.5 12.3825C9.08579 12.3825 8.75 12.0467 8.75 11.6325V11.625C8.75 11.2108 9.08579 10.875 9.5 10.875Z" fill="white"/>
</svg>
