<svg width="36" height="36" viewBox="0 0 36 36" fill="none" xmlns="http://www.w3.org/2000/svg">
<g clip-path="url(#clip0_1723_8146)">
<path d="M36.0029 18.0559C36.0029 17.7065 35.8641 17.3714 35.6169 17.1243C35.3696 16.8772 35.0344 16.7384 34.6847 16.7384C34.6588 16.6948 34.6363 16.6493 34.6174 16.6023C33.4046 13.6561 32.1841 10.7113 30.9557 7.76807C30.9224 7.69553 30.9054 7.61658 30.9059 7.53678C31.1402 7.39534 31.3339 7.19584 31.4684 6.95759C31.6028 6.71934 31.6735 6.45042 31.6734 6.17688C31.6734 5.77246 31.5193 5.38322 31.2422 5.08842C30.9652 4.79361 30.5862 4.61541 30.1824 4.59008C29.95 4.57029 29.7161 4.60143 29.497 4.68133C29.278 4.76122 29.079 4.88795 28.914 5.05266C28.8483 5.12983 28.7574 5.18129 28.6574 5.1979C28.5574 5.21451 28.4548 5.19521 28.3676 5.14341C25.4383 3.9177 22.5051 2.69784 19.5679 1.48383C19.4149 1.43177 19.2798 1.33735 19.1783 1.21156C19.1783 1.18814 19.1783 1.16326 19.1783 1.13984C19.1783 0.989896 19.1488 0.841419 19.0914 0.702891C19.034 0.564363 18.9498 0.438495 18.8437 0.33247C18.7376 0.226445 18.6117 0.142342 18.4731 0.0849619C18.3345 0.0275816 18.1859 -0.00195312 18.0359 -0.00195312C17.7331 -0.00156522 17.4429 0.118904 17.229 0.332989C17.0151 0.547073 16.8949 0.83727 16.8949 1.13984C16.8949 1.1779 16.8949 1.21449 16.8949 1.25109C16.8252 1.33647 16.7336 1.40125 16.6298 1.43846C13.6722 2.66124 10.716 3.88696 7.76128 5.1156C7.71244 5.13959 7.65931 5.15363 7.60499 5.15689C7.55068 5.16016 7.49626 5.15259 7.4449 5.13463C7.19345 4.84171 6.8443 4.64981 6.46212 4.59448L6.39327 4.56081C6.30978 4.56081 6.23215 4.57252 6.15599 4.5813C5.98433 4.58954 5.81516 4.62563 5.65509 4.68816C5.4818 4.7425 5.32092 4.83046 5.18168 4.94701C5.04245 5.06356 4.92758 5.20641 4.84366 5.36738C4.63275 5.75529 4.55072 6.18566 4.69719 6.55747C4.77116 6.85182 4.92766 7.11894 5.1483 7.32745C5.22153 7.59533 5.13806 7.8515 4.97841 8.14134C4.89872 8.30542 4.82878 8.47405 4.76896 8.64636C3.67485 11.3003 2.58514 13.9557 1.47493 16.6037C1.45433 16.6503 1.42879 16.6944 1.39876 16.7355C1.37193 16.734 1.34503 16.734 1.3182 16.7355C0.968591 16.7355 0.633312 16.8743 0.386102 17.1214C0.138891 17.3684 0 17.7035 0 18.0529C0 18.4024 0.138891 18.7374 0.386102 18.9845C0.633312 19.2316 0.968591 19.3704 1.3182 19.3704H1.39436C1.43411 19.4138 1.46674 19.4632 1.49104 19.5168C2.78385 22.6152 4.06347 25.7195 5.32992 28.8297C5.34067 28.8575 5.34805 28.8865 5.35189 28.916C5.21417 29.0391 5.10389 29.1898 5.02819 29.3583C4.95249 29.5267 4.91307 29.7092 4.91249 29.8939C4.91249 30.2433 5.05138 30.5784 5.29859 30.8254C5.5458 31.0725 5.88108 31.2113 6.23069 31.2113C6.41645 31.2116 6.60016 31.1726 6.76978 31.0969C6.93941 31.0212 7.0911 30.9105 7.21494 30.7722C7.24509 30.7767 7.27495 30.783 7.3043 30.7912C7.65143 30.8966 7.98097 31.0635 8.31784 31.2025C11.1036 32.3575 13.866 33.4934 16.6254 34.6645C16.7549 34.7287 16.8617 34.8308 16.9315 34.9573C16.9565 35.2418 17.0871 35.5066 17.2978 35.6995C17.5085 35.8925 17.7838 35.9995 18.0696 35.9995C18.3652 35.9993 18.6492 35.8844 18.8618 35.6791C19.0743 35.4738 19.1988 35.194 19.2091 34.8987C19.275 34.7994 19.3659 34.7191 19.4727 34.666C22.4445 33.4159 25.4266 32.1862 28.4072 30.9464C28.4937 30.904 28.5917 30.8912 28.6862 30.91C28.7807 30.9288 28.8664 30.9781 28.9301 31.0503C29.1291 31.2476 29.3774 31.3881 29.6492 31.457C29.9209 31.526 30.2061 31.521 30.4753 31.4426C30.8196 31.3567 31.1254 31.1582 31.3438 30.8786C31.5622 30.599 31.6808 30.2544 31.6807 29.8997C31.6806 29.6262 31.61 29.3574 31.4755 29.1191C31.3411 28.8809 31.1474 28.6814 30.9132 28.5398C30.9161 28.4727 30.9315 28.4066 30.9586 28.3451C32.1904 25.378 33.4149 22.4108 34.6569 19.448C34.6689 19.4222 34.6841 19.3981 34.7023 19.3762C35.0068 19.3723 35.3006 19.2632 35.5337 19.0673C35.7668 18.8714 35.9248 18.6009 35.981 18.3018C35.994 18.2381 36.0018 18.1735 36.0044 18.1086C36.0044 18.1012 36.0044 18.0939 36.0044 18.0866C36.0044 18.0793 36.0029 18.0661 36.0029 18.0559ZM28.6679 6.89562C28.7923 7.13815 28.9762 7.34516 29.2025 7.49726C29.349 7.76806 29.327 8.02277 29.2259 8.37555C28.7997 9.87159 28.4218 11.3823 28 12.8798C27.9862 12.9239 27.9644 12.9651 27.9356 13.0013C27.8636 12.9842 27.7899 12.9754 27.7159 12.9749C27.5488 12.975 27.3846 13.0189 27.2399 13.1023L27.2267 13.0906C25.8118 11.6804 24.4004 10.2688 22.9923 8.85569C22.9806 8.84544 22.9718 8.83373 22.9616 8.82349C23.1165 8.6481 23.2019 8.42215 23.2018 8.18818C23.2018 8.15598 23.2018 8.12524 23.2018 8.09304H23.2179C24.6254 7.70219 26.0359 7.32599 27.4449 6.94539C27.5386 6.91904 27.6353 6.9044 27.7261 6.87074C28.082 6.73021 28.3559 6.68629 28.665 6.89562H28.6679ZM33.5159 18.6868C31.9468 19.5944 30.3767 20.5 28.8056 21.4037C28.7155 21.4568 28.6161 21.4921 28.5126 21.5076C28.4003 21.3425 28.2397 21.2162 28.0527 21.146C28.0406 21.0848 28.0347 21.0225 28.0352 20.9601C28.0352 19.9867 28.0352 19.0132 28.0352 18.0398C28.0352 17.0663 28.0352 16.0914 28.0352 15.1121C28.0336 15.0128 28.0484 14.9138 28.0791 14.8193C28.2197 14.7614 28.3447 14.6711 28.4438 14.5559C28.5693 14.5673 28.6903 14.6085 28.7968 14.6759C30.3718 15.5835 31.9458 16.4925 33.5189 17.403C33.41 17.5992 33.353 17.8198 33.3534 18.0442C33.351 18.2685 33.4059 18.4897 33.513 18.6868H33.5159ZM27.0348 22.7299C27.0223 22.7487 27.0081 22.7663 26.9923 22.7826C25.6077 24.1879 24.2129 25.5829 22.8078 26.9677C22.7735 27.0005 22.7345 27.0282 22.6921 27.0496C22.5521 26.9743 22.3955 26.935 22.2366 26.9355C22.0322 26.9357 21.8331 27.0007 21.6681 27.1212C21.503 27.2416 21.3805 27.4114 21.3182 27.6059C21.2209 27.675 21.1063 27.7156 20.9872 27.723C19.0255 27.7406 17.0643 27.7406 15.1036 27.723C15.0271 27.7201 14.9522 27.7007 14.8839 27.6659C14.8325 27.4571 14.7125 27.2715 14.5431 27.1388C14.3737 27.0061 14.1647 26.934 13.9495 26.934C13.7819 26.9339 13.6173 26.9778 13.472 27.0614C13.4045 27.0356 13.3428 26.9968 13.2904 26.9472C11.8843 25.5624 10.4958 24.1659 9.09997 22.765C9.08604 22.7516 9.07285 22.7374 9.06043 22.7226C9.23944 22.5425 9.33952 22.2987 9.33871 22.0448C9.3391 21.7905 9.23869 21.5464 9.05945 21.3659C8.88021 21.1854 8.63674 21.0832 8.38229 21.0816C8.37678 21.0355 8.37432 20.989 8.37496 20.9425C8.37496 19.0059 8.37496 17.0707 8.38814 15.1341C8.39083 15.0531 8.40822 14.9732 8.43942 14.8984C8.68344 14.882 8.91209 14.7736 9.07908 14.595C9.24607 14.4164 9.33888 14.1811 9.33871 13.9366C9.33927 13.7108 9.2599 13.492 9.11463 13.3189C10.5119 11.9039 11.9175 10.4962 13.3314 9.09576C13.3687 9.06081 13.4125 9.03347 13.4603 9.01525C13.6083 9.10327 13.7773 9.1498 13.9495 9.14992C14.1633 9.14951 14.371 9.07812 14.5399 8.94697C14.7087 8.81583 14.8293 8.63234 14.8825 8.42532C14.9546 8.38758 15.0341 8.36609 15.1154 8.36238C17.078 8.34481 19.0397 8.34481 21.0004 8.36238C21.1146 8.37037 21.2243 8.41045 21.3167 8.47802C21.379 8.67309 21.5017 8.84338 21.6669 8.96438C21.8322 9.08538 22.0317 9.15086 22.2366 9.15138C22.395 9.15163 22.5511 9.11239 22.6906 9.0372C22.7234 9.0547 22.7535 9.07689 22.7799 9.10308C24.1899 10.4966 25.5921 11.8985 26.9865 13.3087C26.8344 13.4832 26.7507 13.7067 26.7506 13.9381C26.7506 14.1898 26.8491 14.4315 27.0251 14.6116C27.2011 14.7916 27.4407 14.8956 27.6924 14.9013C27.7037 14.9468 27.7096 14.9935 27.71 15.0404C27.7178 17.037 27.7178 19.0342 27.71 21.0318C27.7114 21.0489 27.7114 21.066 27.71 21.0831C27.4566 21.0865 27.2146 21.1895 27.0365 21.3697C26.8584 21.5499 26.7583 21.7929 26.758 22.0463C26.7563 22.1726 26.7796 22.2981 26.8266 22.4154C26.8736 22.5327 26.9434 22.6396 27.0319 22.7299H27.0348ZM18.8971 1.89957C19.0236 1.88042 19.1526 1.88689 19.2765 1.91859C22.2234 3.13357 25.1673 4.35587 28.1084 5.58549C28.2581 5.6649 28.3969 5.76331 28.5214 5.87826C28.5052 5.96469 28.4964 6.05235 28.4951 6.14029C28.3691 6.27349 28.2812 6.37742 28.1728 6.40816C26.5129 6.87562 24.8446 7.32599 23.1681 7.75928C23.1471 7.76517 23.1254 7.76813 23.1036 7.76807C23.0239 7.60618 22.9004 7.46981 22.7472 7.37436C22.594 7.27891 22.4171 7.22819 22.2366 7.22791C22.0959 7.22842 21.9569 7.25938 21.8294 7.31867C21.7454 7.23138 21.6739 7.13285 21.617 7.0259C20.7265 5.46253 19.8228 3.90355 18.9323 2.34164C18.8823 2.22315 18.8535 2.0968 18.8473 1.96837C18.8664 1.93616 18.8781 1.91713 18.8942 1.89957H18.8971ZM17.7254 2.23771C17.8273 2.26694 17.9328 2.28221 18.0388 2.28309C18.1525 2.28273 18.2656 2.26546 18.3742 2.23185C18.4978 2.29956 18.5994 2.40114 18.6672 2.52462C19.5899 4.12605 20.5107 5.72846 21.4295 7.33184C21.4685 7.39924 21.498 7.47163 21.5174 7.54703C21.4027 7.67275 21.3238 7.82693 21.2889 7.99349C21.1951 8.02758 21.0958 8.04444 20.996 8.04327C20.0103 8.04327 19.0245 8.04327 18.0388 8.04327C17.078 8.04327 16.1172 8.04327 15.1564 8.04327C15.0663 8.04338 14.9765 8.03406 14.8883 8.01545C14.852 7.81493 14.7525 7.63129 14.6042 7.4914C14.6323 7.40774 14.6691 7.32727 14.714 7.25133C15.6172 5.68113 16.52 4.11044 17.4222 2.53926C17.4939 2.41205 17.6 2.30756 17.7283 2.23771H17.7254ZM8.00002 5.58549C10.7009 4.45249 13.4056 3.3268 16.1142 2.20843C16.3837 2.09718 16.6474 1.96983 16.9227 1.87761C17.0068 1.86072 17.0937 1.86423 17.1761 1.88785C17.203 1.91807 17.2313 1.9469 17.2611 1.97422C17.2709 2.0606 17.2594 2.14807 17.2274 2.22893C16.2832 3.88794 15.3302 5.54255 14.3684 7.19278C14.3458 7.22884 14.3158 7.25976 14.2805 7.28354C14.1726 7.24362 14.0586 7.22281 13.9436 7.22205C13.766 7.22209 13.5918 7.27119 13.4404 7.36393C13.2889 7.45667 13.166 7.58943 13.0853 7.74757C13.0274 7.76004 12.9675 7.76004 12.9096 7.74757C11.2852 7.32599 9.66973 6.86927 8.04688 6.4433C7.96718 6.42438 7.89234 6.38898 7.82718 6.33937C7.83307 6.28393 7.83599 6.22823 7.83596 6.17249C7.83542 6.03354 7.81673 5.89525 7.78032 5.76115C7.84102 5.68728 7.91695 5.62736 8.00293 5.58549H8.00002ZM6.81216 7.65681C7.02085 7.57707 7.21039 7.45424 7.36838 7.29635C7.52637 7.13845 7.64925 6.94903 7.72904 6.74045C7.8329 6.72278 7.93952 6.73082 8.03955 6.76388C9.18785 7.0786 10.3376 7.38747 11.4874 7.69927C11.9678 7.82955 12.4555 7.94226 12.9242 8.10767C12.9439 8.11496 12.963 8.12377 12.9813 8.13402C12.9813 8.15159 12.9813 8.16915 12.9813 8.18672C12.9812 8.39374 13.0486 8.59518 13.1732 8.76054C13.1354 8.81514 13.0938 8.86699 13.0487 8.91571C11.6768 10.2956 10.303 11.6731 8.92714 13.0481L8.86122 13.1096C8.71365 13.0204 8.54447 12.9734 8.37203 12.9734C8.29852 12.9739 8.22531 12.9828 8.1538 12.9998C8.12958 12.9484 8.10997 12.8951 8.09521 12.8402C7.64507 11.1881 7.20567 9.53247 6.77701 7.87346C6.76574 7.79903 6.77912 7.72295 6.81509 7.65681H6.81216ZM2.51484 17.4894C2.57136 17.4322 2.63543 17.3829 2.70525 17.343C4.23436 16.4647 5.76346 15.5835 7.29257 14.6993C7.39977 14.6323 7.52115 14.5912 7.64703 14.5793C7.74774 14.693 7.87362 14.7818 8.01466 14.8384C8.05008 14.9414 8.06694 15.05 8.06445 15.1589C8.06445 16.1207 8.06445 17.0824 8.06445 18.0442C8.06445 19.0059 8.06445 19.9676 8.06445 20.9294C8.0648 21.0013 8.05693 21.073 8.04101 21.1431C7.85208 21.2111 7.6892 21.3365 7.57526 21.5017C7.47158 21.4864 7.37199 21.4506 7.28233 21.3963C5.75322 20.518 4.2241 19.6363 2.69499 18.7512C2.63003 18.7134 2.57043 18.6672 2.51777 18.6136C2.5984 18.4397 2.64037 18.2504 2.6408 18.0588C2.64311 17.8622 2.60107 17.6675 2.51777 17.4894H2.51484ZM1.94508 16.8409C2.62322 15.1751 3.31454 13.5136 3.99561 11.8522C4.539 10.5347 5.07655 9.21726 5.63751 7.91445C5.68433 7.8283 5.75568 7.75798 5.84255 7.71244C5.97072 7.74594 6.10261 7.76315 6.23509 7.76367C6.2761 7.76367 6.3171 7.76367 6.35665 7.76367C6.39903 7.82148 6.4294 7.88718 6.44599 7.9569C6.89125 9.62371 7.33945 11.2905 7.79056 12.9573C7.80374 13.0042 7.81107 13.0525 7.82865 13.1315V13.1433C7.69701 13.2313 7.5891 13.3504 7.51451 13.4901C7.43991 13.6298 7.40091 13.7857 7.40096 13.944C7.40102 14.0009 7.40642 14.0578 7.41707 14.1138C7.34953 14.2359 7.25233 14.3391 7.1344 14.4139C5.53791 15.3468 3.93654 16.271 2.33029 17.1864H2.31418C2.20608 17.0625 2.07597 16.9598 1.93044 16.8833C1.93538 16.8688 1.94125 16.8547 1.94801 16.8409H1.94508ZM6.31419 28.5808C6.29075 28.5808 6.26732 28.5808 6.24242 28.5808C6.10775 28.5809 5.97387 28.6017 5.84548 28.6423C5.82887 28.6199 5.81465 28.5959 5.80302 28.5706C4.5229 25.4965 3.2501 22.4195 1.98463 19.3396C1.97025 19.2998 1.96329 19.2576 1.96412 19.2152C2.09771 19.1386 2.21712 19.0396 2.31711 18.9225C2.34271 18.9267 2.36744 18.9352 2.39034 18.9473C3.98536 19.8564 5.57599 20.7771 7.16661 21.695C7.19737 21.7125 7.24424 21.7242 7.25742 21.752C7.30722 21.8545 7.35556 21.957 7.40389 22.0594C7.40583 22.1975 7.43744 22.3335 7.49657 22.4583C7.55571 22.583 7.64097 22.6936 7.74662 22.7826C7.77737 22.8455 7.80666 22.9085 7.83596 22.97C7.71146 23.4354 7.59429 23.8819 7.47419 24.3284C7.09338 25.7366 6.71696 27.1448 6.32736 28.5501C6.32459 28.5605 6.32116 28.5708 6.3171 28.5808H6.31419ZM6.64812 28.6408C7.1256 26.8315 7.61041 25.0261 8.10254 23.2247C8.12289 23.1459 8.15341 23.0701 8.19335 22.9992C8.25134 23.0098 8.31015 23.0152 8.3691 23.0153C8.50934 23.015 8.64781 22.984 8.77481 22.9246C8.81787 22.9567 8.85851 22.9919 8.89639 23.03C10.2839 24.4157 11.6695 25.803 13.0531 27.1916C13.0955 27.2369 13.1337 27.2859 13.1673 27.338C13.0444 27.5036 12.9782 27.7043 12.9784 27.9104C12.9784 27.9279 12.9784 27.947 12.9784 27.9645C12.9472 27.9853 12.9131 28.0016 12.8773 28.0128C11.461 28.4169 10.0374 28.7945 8.61664 29.1839L7.52545 29.4767H7.49177C7.4267 29.2814 7.31676 29.1041 7.17076 28.9589C7.02476 28.8138 6.84677 28.7048 6.65105 28.6408H6.64812ZM17.1088 34.2532C17.0338 34.2552 16.9594 34.2392 16.892 34.2063L13.9963 32.9987L7.66314 30.3638C7.62793 30.3556 7.59394 30.3428 7.56207 30.3257L7.51667 30.2876C7.55617 30.1601 7.57642 30.0274 7.57673 29.8939C7.57673 29.8587 7.57673 29.8236 7.57673 29.7899H7.58404C9.16588 29.3508 10.7521 28.9277 12.3369 28.4988C12.5009 28.4549 12.6664 28.4139 12.829 28.3525C12.9122 28.3236 12.9989 28.3059 13.0868 28.2998C13.1653 28.4661 13.2897 28.6066 13.4454 28.7046C13.6011 28.8027 13.7816 28.8542 13.9656 28.8531C14.0827 28.8527 14.1988 28.8314 14.3083 28.7901C14.4135 28.9096 14.5031 29.0419 14.5749 29.1839C15.4405 30.7063 16.3164 32.2228 17.1893 33.7423C17.2391 33.8287 17.2831 33.9179 17.327 33.9985C17.242 34.0721 17.1685 34.1579 17.1088 34.2532ZM18.6745 33.5813C18.6227 33.6638 18.5531 33.7338 18.4709 33.7862C18.3427 33.7376 18.2068 33.7123 18.0696 33.7115C17.9272 33.7119 17.7862 33.7387 17.6536 33.7906C17.5631 33.735 17.488 33.6574 17.4354 33.5652C16.5175 31.9745 15.6011 30.3818 14.6862 28.7872C14.6523 28.7279 14.6248 28.665 14.6042 28.5998C14.7562 28.4598 14.8589 28.2745 14.8971 28.0714C14.9709 28.0531 15.0466 28.0437 15.1227 28.0436C16.1084 28.0436 17.0956 28.0436 18.0813 28.0436C19.0436 28.0436 20.0059 28.0436 20.9682 28.0436C21.0795 28.0418 21.1903 28.0607 21.2948 28.0992C21.3302 28.2628 21.408 28.4142 21.5203 28.5384C21.4997 28.6297 21.4646 28.7172 21.4163 28.7975C20.4975 30.395 19.5811 31.9896 18.6672 33.5813H18.6745ZM28.4877 30.0856C28.4649 30.1716 28.4243 30.2518 28.3686 30.3212C28.3128 30.3905 28.2431 30.4474 28.1641 30.4882C25.8206 31.4748 23.4683 32.4439 21.1175 33.4159C20.4995 33.672 19.8843 33.937 19.2618 34.18C19.1775 34.2035 19.089 34.2085 19.0026 34.1946C18.9646 34.1416 18.9214 34.0926 18.8737 34.0482C18.871 33.9596 18.8886 33.8715 18.9249 33.7906C19.8404 32.1804 20.7675 30.5804 21.6858 28.9746C21.7241 28.9024 21.7735 28.8366 21.8323 28.7799C21.9588 28.8375 22.0961 28.8675 22.2351 28.8677C22.4159 28.8677 22.593 28.8169 22.7463 28.7211C22.8996 28.6253 23.0229 28.4885 23.1022 28.3261C23.6221 28.4637 24.1128 28.5911 24.6005 28.7228C25.7635 29.0375 26.9235 29.3625 28.0894 29.667C28.3325 29.727 28.5332 29.8339 28.4819 30.0856H28.4877ZM29.3665 28.4754C29.0355 28.6445 28.7732 28.9227 28.624 29.263C28.5099 29.3431 28.3691 29.3756 28.2314 29.3537C27.0597 29.0522 25.888 28.7316 24.7089 28.4154C24.2036 28.2793 23.6983 28.1461 23.1959 28.0026C23.1981 27.967 23.1981 27.9313 23.1959 27.8957C23.1963 27.6666 23.1148 27.445 22.966 27.2707L22.9806 27.2531C24.4033 25.8215 25.8289 24.3928 27.2574 22.967C27.275 22.9495 27.2926 22.9334 27.3102 22.9187C27.4356 22.9763 27.572 23.0063 27.71 23.0065C27.7764 23.0064 27.8427 22.9995 27.9077 22.9861C27.9489 23.0479 27.9796 23.1162 27.9985 23.1881C28.4101 24.7119 28.8144 26.2387 29.223 27.7655C29.2757 27.9645 29.3329 28.1622 29.3988 28.4037C29.39 28.4286 29.3768 28.4535 29.3636 28.4798L29.3665 28.4754ZM34.1355 19.3016C33.327 21.2836 32.5053 23.2539 31.6866 25.2404C31.2867 26.2065 30.8927 27.1755 30.4797 28.1373C30.4463 28.2077 30.4007 28.2716 30.3449 28.3261C30.2594 28.3109 30.1726 28.303 30.0857 28.3027C29.9724 28.3029 29.8595 28.3152 29.7488 28.3393C29.69 28.2445 29.6488 28.1398 29.6272 28.0304C29.3841 27.1375 29.1469 26.2445 28.9081 25.3501C28.7128 24.6094 28.5175 23.8687 28.3222 23.128C28.3003 23.0461 28.2387 22.9143 28.268 22.8894C28.3303 22.834 28.3837 22.7693 28.4262 22.6977C28.5832 22.5303 28.6747 22.3121 28.684 22.0829C28.7619 21.8625 28.9183 21.6785 29.1234 21.5661C30.676 20.7332 32.1846 19.8198 33.7151 18.9473C33.8388 19.0809 33.9883 19.188 34.1545 19.2621C34.149 19.2775 34.1416 19.2923 34.1326 19.306L34.1355 19.3016ZM33.7151 17.1454C32.1089 16.228 30.5065 15.3009 28.9081 14.3641C28.8037 14.2937 28.7206 14.1959 28.6679 14.0816C28.6761 14.0307 28.6805 13.9794 28.6811 13.9279C28.681 13.7799 28.6468 13.6339 28.581 13.5014C28.5152 13.3689 28.4196 13.2533 28.3017 13.1637C28.2935 13.1037 28.2965 13.0427 28.3105 12.9837C28.7411 11.3481 29.1776 9.71545 29.6199 8.08571C29.6384 7.95573 29.6816 7.8305 29.7474 7.71683C29.8585 7.74093 29.9719 7.7532 30.0857 7.75343C30.184 7.75312 30.2822 7.74331 30.3786 7.72415C30.4312 7.80723 30.474 7.89615 30.506 7.9891L33.1249 14.3246C33.4691 15.1589 33.8147 15.9919 34.1501 16.8306C33.9839 16.906 33.8348 17.0146 33.7122 17.1498L33.7151 17.1454Z" fill="#18584C"/>
<path d="M21.2547 13.8783C21.1815 13.6617 21.0789 13.4582 20.8358 13.5226C20.7505 13.5504 20.672 13.5959 20.6056 13.6562C20.5392 13.7165 20.4864 13.7902 20.4506 13.8725C19.7915 15.9482 19.1558 18.0298 18.5114 20.1099C18.3898 20.5066 18.2565 20.9003 18.1276 21.2941C18.0171 21.234 17.933 21.1348 17.8918 21.016C17.3684 19.3443 16.8485 17.6716 16.3319 15.998C16.1034 15.266 15.8764 14.5341 15.645 13.8022C15.6233 13.7393 15.5888 13.6817 15.5437 13.6328C15.4985 13.584 15.4437 13.545 15.3827 13.5185C15.3217 13.4919 15.2558 13.4783 15.1893 13.4785C15.1228 13.4787 15.057 13.4927 14.9962 13.5197C14.7032 13.628 14.8922 13.8227 14.9405 13.9706C15.5264 15.7272 16.1122 17.4803 16.6981 19.2301C17.0335 20.2211 17.3616 21.2136 17.7146 22.1987C17.7907 22.349 17.9164 22.4685 18.0705 22.5369C18.113 22.5588 18.3151 22.3905 18.3502 22.2851C18.9273 20.4641 19.4912 18.6402 20.0566 16.8162C20.2353 16.2405 20.4145 15.6652 20.5941 15.0904H20.723C20.8695 15.5486 21.0159 16.0082 21.1624 16.4678C21.6956 18.1883 22.2292 19.9078 22.7633 21.6264C22.8058 21.7223 22.8126 21.8304 22.7823 21.9309H22.1789V22.5603H23.3125C23.4839 22.5603 23.6553 22.5603 23.8252 22.5603C24.0873 22.5603 24.1738 22.4813 24.08 22.2061C23.1329 19.4326 22.1911 16.6567 21.2547 13.8783Z" fill="#18584C"/>
<path d="M14.6304 14.3085C14.4019 13.6308 14.3623 13.4902 13.898 13.4902H13.1247V14.1168H13.5538C13.5733 14.1587 13.5835 14.2044 13.5835 14.2507C13.5835 14.297 13.5733 14.3427 13.5538 14.3846C12.7937 16.797 12.0306 19.2153 11.2865 21.6262C11.2089 21.8765 11.1166 22.0244 10.8837 22.0551H10.5176V22.5645H11.2909C11.3627 22.5645 11.4374 22.5645 11.5033 22.5645H12.2781V22.0551H11.9632C11.6878 22.0097 11.7625 21.8253 11.8328 21.5999C12.2722 20.2312 12.6853 18.8596 13.11 17.488C13.3532 16.7004 13.5973 15.9129 13.8424 15.1253L13.9449 15.1063C14.0018 15.2047 14.0508 15.3075 14.0914 15.4137C14.7749 17.5831 15.453 19.7535 16.1258 21.9248C16.3279 22.5762 16.325 22.5777 16.9943 22.5616C17.3663 22.5513 17.4044 22.4943 17.2873 22.1517C16.4006 19.5383 15.515 16.9239 14.6304 14.3085Z" fill="#18584C"/>
<path d="M24.8307 21.5933C24.6843 21.1146 24.5378 20.6389 24.3913 20.1631C23.7938 18.2474 23.1957 16.3318 22.5971 14.4161C22.552 14.3251 22.5441 14.2201 22.5752 14.1233H22.9589V13.5056H22.6206C22.5148 13.4968 22.4085 13.4968 22.3027 13.5056H21.9849C21.5851 13.5056 21.5572 13.5539 21.692 13.9301C21.8004 14.2405 21.9 14.5537 22.0054 14.864C22.8286 17.2955 23.659 19.724 24.4704 22.1583C24.5671 22.4511 24.7033 22.5843 25.0006 22.5594H25.1295C25.1933 22.5667 25.2576 22.5667 25.3214 22.5594H25.692V21.93H24.9977C24.9174 21.8317 24.8603 21.7166 24.8307 21.5933Z" fill="#18584C"/>
<path d="M21.6175 23.2383H21.582V23.2737H21.6175V23.2383Z" fill="#18584C"/>
</g>
<defs>
<clipPath id="clip0_1723_8146">
<rect width="36" height="36" fill="white"/>
</clipPath>
</defs>
</svg>
