<svg width="25" height="26" viewBox="0 0 32 33" fill="none" xmlns="http://www.w3.org/2000/svg">
<path d="M14.9143 18.2784H17.582L18.7193 19.7363C19.4328 18.9091 19.8464 17.6373 19.836 15.983C19.8464 12.7777 18.3161 11.0509 16.0103 11.0406C13.6839 11.0509 12.164 12.7777 12.164 15.983C12.164 19.178 13.6839 20.915 16.0103 20.9254C16.3102 20.9254 16.5997 20.8944 16.8685 20.8323L14.9143 18.2784ZM9 15.983C9 11.0923 12.0192 8.29022 16.0103 8.29022C19.9705 8.29022 23 11.0923 23 15.983C23 18.661 22.0901 20.7082 20.6219 22.0214L22.7518 24.7097H19.836L18.6366 23.2208C17.8301 23.5207 16.9409 23.6757 16.0103 23.6757C12.0192 23.6757 9 20.853 9 15.983Z" fill="#19346F"/>
</svg>
