<svg width="100%" height="100%" preserveAspectRatio="xMinYMin meet" viewBox="0 0 25 24" fill="none" xmlns="http://www.w3.org/2000/svg">
<path fill-rule="evenodd" clip-rule="evenodd" d="M4.5 8.75C4.4337 8.75 4.37011 8.77634 4.32322 8.82322C4.27634 8.87011 4.25 8.9337 4.25 9V11C4.25 11.0663 4.27634 11.1299 4.32322 11.1768C4.37011 11.2237 4.4337 11.25 4.5 11.25H20.5C20.5663 11.25 20.6299 11.2237 20.6768 11.1768C20.7237 11.1299 20.75 11.0663 20.75 11V9C20.75 8.93369 20.7237 8.87011 20.6768 8.82322C20.6299 8.77634 20.5663 8.75 20.5 8.75H4.5ZM3.26256 7.76256C3.59075 7.43437 4.03587 7.25 4.5 7.25H20.5C20.9641 7.25 21.4092 7.43437 21.7374 7.76256C22.0656 8.09075 22.25 8.53587 22.25 9V11C22.25 11.4641 22.0656 11.9092 21.7374 12.2374C21.4092 12.5656 20.9641 12.75 20.5 12.75H4.5C4.03587 12.75 3.59075 12.5656 3.26256 12.2374C2.93437 11.9092 2.75 11.4641 2.75 11V9C2.75 8.53587 2.93437 8.09075 3.26256 7.76256Z" fill="currentColor"/>
<path fill-rule="evenodd" clip-rule="evenodd" d="M12.5 7.25C12.9142 7.25 13.25 7.58579 13.25 8V21C13.25 21.4142 12.9142 21.75 12.5 21.75C12.0858 21.75 11.75 21.4142 11.75 21V8C11.75 7.58579 12.0858 7.25 12.5 7.25Z" fill="currentColor"/>
<path fill-rule="evenodd" clip-rule="evenodd" d="M5.5 11.25C5.91421 11.25 6.25 11.5858 6.25 12V19C6.25 19.3315 6.3817 19.6495 6.61612 19.8839C6.85054 20.1183 7.16848 20.25 7.5 20.25H17.5C17.8315 20.25 18.1495 20.1183 18.3839 19.8839C18.6183 19.6495 18.75 19.3315 18.75 19V12C18.75 11.5858 19.0858 11.25 19.5 11.25C19.9142 11.25 20.25 11.5858 20.25 12V19C20.25 19.7293 19.9603 20.4288 19.4445 20.9445C18.9288 21.4603 18.2293 21.75 17.5 21.75H7.5C6.77065 21.75 6.07118 21.4603 5.55546 20.9445C5.03973 20.4288 4.75 19.7293 4.75 19V12C4.75 11.5858 5.08579 11.25 5.5 11.25Z" fill="currentColor"/>
<path fill-rule="evenodd" clip-rule="evenodd" d="M10.1553 4.84484C9.45951 4.07178 8.70923 3.73771 8.01307 3.74984L8 3.75007V3.74995C7.53587 3.74995 7.09075 3.93433 6.76256 4.26252C6.43437 4.59071 6.25 5.03583 6.25 5.49995C6.25 5.96408 6.43437 6.4092 6.76256 6.73739C7.09075 7.06558 7.53587 7.24995 8 7.24995C8.41421 7.24995 8.75 7.58574 8.75 7.99995C8.75 8.41417 8.41421 8.74995 8 8.74995C7.13805 8.74995 6.3114 8.40754 5.7019 7.79805C5.09241 7.18856 4.75 6.36191 4.75 5.49995C4.75 4.638 5.09241 3.81135 5.7019 3.20186C6.30984 2.59392 7.13384 2.2517 7.99342 2.24996C9.22414 2.23069 10.3621 2.83242 11.2702 3.84139C11.7484 4.37275 12.1608 5.01282 12.5 5.731C12.8392 5.01282 13.2516 4.37275 13.7298 3.84139C14.6379 2.83242 15.7759 2.23069 17.0066 2.24996C17.8662 2.2517 18.6902 2.59392 19.2981 3.20186C19.9076 3.81135 20.25 4.638 20.25 5.49995C20.25 6.36191 19.9076 7.18856 19.2981 7.79805C18.6886 8.40754 17.862 8.74995 17 8.74995C16.5858 8.74995 16.25 8.41417 16.25 7.99995C16.25 7.58574 16.5858 7.24995 17 7.24995C17.4641 7.24995 17.9092 7.06558 18.2374 6.73739C18.5656 6.4092 18.75 5.96408 18.75 5.49995C18.75 5.03583 18.5656 4.59071 18.2374 4.26252C17.9092 3.93433 17.4641 3.74995 17 3.74995H16.9869L16.9869 3.74984C16.2908 3.73771 15.5405 4.07178 14.8447 4.84484C14.1452 5.62214 13.5692 6.77425 13.2288 8.17682C13.1472 8.51315 12.8461 8.74995 12.5 8.74995C12.1539 8.74995 11.8528 8.51315 11.7712 8.17682C11.4308 6.77425 10.8548 5.62214 10.1553 4.84484Z" fill="currentColor"/>
</svg>
