<svg width="25" height="24" viewBox="0 0 25 24" fill="none" xmlns="http://www.w3.org/2000/svg">
<g id="Group 427318676">
<path id="Line 359 (Stroke)" fill-rule="evenodd" clip-rule="evenodd" d="M5.88373 18.7172C6.17663 19.0101 6.6515 19.0101 6.94439 18.7172L19.3188 6.34283C19.6117 6.04994 19.6117 5.57506 19.3188 5.28217C19.0259 4.98928 18.551 4.98928 18.2581 5.28217L5.88373 17.6565C5.59084 17.9494 5.59084 18.4243 5.88373 18.7172Z" fill="white"/>
<path id="Line 360 (Stroke)" fill-rule="evenodd" clip-rule="evenodd" d="M5.8858 5.28248C5.59291 5.57537 5.59291 6.05024 5.8858 6.34314L18.2602 18.7175C18.5531 19.0104 19.0279 19.0104 19.3208 18.7175C19.6137 18.4246 19.6137 17.9497 19.3208 17.6568L6.94646 5.28248C6.65357 4.98958 6.17869 4.98958 5.8858 5.28248Z" fill="white"/>
</g>
</svg>
