<svg width="18" height="18" viewBox="0 0 18 18" fill="none" xmlns="http://www.w3.org/2000/svg">
<path d="M16.5 9C16.5 13.1421 13.1421 16.5 9 16.5C4.85786 16.5 1.5 13.1421 1.5 9C1.5 4.85786 4.85786 1.5 9 1.5C13.1421 1.5 16.5 4.85786 16.5 9Z" fill="#2A9C5B"/>
<path fill-rule="evenodd" clip-rule="evenodd" d="M12.9602 6.53975C13.1799 6.75942 13.1799 7.11558 12.9602 7.33525L8.83525 11.4602C8.61558 11.6799 8.25942 11.6799 8.03975 11.4602L5.03975 8.46025C4.82008 8.24058 4.82008 7.88442 5.03975 7.66475C5.25942 7.44508 5.61558 7.44508 5.83525 7.66475L8.4375 10.267L12.1648 6.53975C12.3844 6.32008 12.7406 6.32008 12.9602 6.53975Z" fill="white"/>
</svg>
