<svg width="100%" height="100%" preserveAspectRatio="xMinYMin meet" viewBox="0 0 32 32" fill="none" xmlns="http://www.w3.org/2000/svg">
<path fill-rule="evenodd" clip-rule="evenodd" d="M16.0012 5.92C13.3503 5.92 11.2012 8.06903 11.2012 10.72C11.2012 13.371 13.3503 15.52 16.0012 15.52C18.6522 15.52 20.8012 13.371 20.8012 10.72C20.8012 8.06903 18.6522 5.92 16.0012 5.92ZM9.28125 10.72C9.28125 7.00865 12.2899 4 16.0012 4C19.7126 4 22.7212 7.00865 22.7212 10.72C22.7212 14.4314 19.7126 17.44 16.0012 17.44C12.2899 17.44 9.28125 14.4314 9.28125 10.72Z" fill="currentColor"/>
<path fill-rule="evenodd" clip-rule="evenodd" d="M6.1068 27.9999C5.57661 27.9999 5.14043 27.5683 5.20571 27.0422C5.78579 22.3664 10.57 18.9759 16.0025 18.9759C21.435 18.9759 26.2192 22.3664 26.7992 27.0422C26.8645 27.5683 26.4283 27.9999 25.8981 27.9999C25.368 27.9999 24.9462 27.5669 24.8555 27.0445C24.2743 23.6964 20.6868 20.8959 16.0025 20.8959C11.3182 20.8959 7.73063 23.6964 7.14942 27.0445C7.05874 27.5669 6.63699 27.9999 6.1068 27.9999Z" fill="currentColor"/>
</svg>
