<svg width="22" height="22" viewBox="0 0 22 22" fill="none" xmlns="http://www.w3.org/2000/svg">
<g id="Group 427318720">
<path id="Vector (Stroke)" fill-rule="evenodd" clip-rule="evenodd" d="M0.208984 2.24967C0.208984 1.12209 1.12307 0.208008 2.25065 0.208008H8.08398C9.21157 0.208008 10.1257 1.12209 10.1257 2.24967V8.08301C10.1257 9.21059 9.21157 10.1247 8.08398 10.1247H2.25065C1.12307 10.1247 0.208984 9.21059 0.208984 8.08301V2.24967ZM2.25065 1.95801C2.08957 1.95801 1.95898 2.08859 1.95898 2.24967V8.08301C1.95898 8.24409 2.08957 8.37467 2.25065 8.37467H8.08398C8.24507 8.37467 8.37565 8.24409 8.37565 8.08301V2.24967C8.37565 2.08859 8.24507 1.95801 8.08398 1.95801H2.25065Z" fill="#616161"/>
<path id="Vector (Stroke)_2" fill-rule="evenodd" clip-rule="evenodd" d="M11.875 2.24967C11.875 1.12209 12.7891 0.208008 13.9167 0.208008H19.75C20.8776 0.208008 21.7917 1.12209 21.7917 2.24967V8.08301C21.7917 9.21059 20.8776 10.1247 19.75 10.1247H13.9167C12.7891 10.1247 11.875 9.21059 11.875 8.08301V2.24967ZM13.9167 1.95801C13.7556 1.95801 13.625 2.08859 13.625 2.24967V8.08301C13.625 8.24409 13.7556 8.37467 13.9167 8.37467H19.75C19.9111 8.37467 20.0417 8.24409 20.0417 8.08301V2.24967C20.0417 2.08859 19.9111 1.95801 19.75 1.95801H13.9167Z" fill="#616161"/>
<path id="Vector (Stroke)_3" fill-rule="evenodd" clip-rule="evenodd" d="M0.208984 13.9167C0.208984 12.7891 1.12307 11.875 2.25065 11.875H8.08398C9.21157 11.875 10.1257 12.7891 10.1257 13.9167V19.75C10.1257 20.8776 9.21157 21.7917 8.08398 21.7917H2.25065C1.12307 21.7917 0.208984 20.8776 0.208984 19.75V13.9167ZM2.25065 13.625C2.08957 13.625 1.95898 13.7556 1.95898 13.9167V19.75C1.95898 19.9111 2.08957 20.0417 2.25065 20.0417H8.08398C8.24507 20.0417 8.37565 19.9111 8.37565 19.75V13.9167C8.37565 13.7556 8.24507 13.625 8.08398 13.625H2.25065Z" fill="#616161"/>
<path id="Vector (Stroke)_4" fill-rule="evenodd" clip-rule="evenodd" d="M11.875 13.9167C11.875 12.7891 12.7891 11.875 13.9167 11.875H19.75C20.8776 11.875 21.7917 12.7891 21.7917 13.9167V19.75C21.7917 20.8776 20.8776 21.7917 19.75 21.7917H13.9167C12.7891 21.7917 11.875 20.8776 11.875 19.75V13.9167ZM13.9167 13.625C13.7556 13.625 13.625 13.7556 13.625 13.9167V19.75C13.625 19.9111 13.7556 20.0417 13.9167 20.0417H19.75C19.9111 20.0417 20.0417 19.9111 20.0417 19.75V13.9167C20.0417 13.7556 19.9111 13.625 19.75 13.625H13.9167Z" fill="#616161"/>
</g>
</svg>
