<svg width="32" height="32" viewBox="0 0 20 20" fill="none" xmlns="http://www.w3.org/2000/svg">
<g opacity="0.6">
<g clip-path="url(#clip0_1962_3197)">
<path d="M7.5004 10C7.5004 8.61934 8.61934 7.4998 10 7.4998C11.3807 7.4998 12.5002 8.61934 12.5002 10C12.5002 11.3807 11.3807 12.5002 10 12.5002C8.61934 12.5002 7.5004 11.3807 7.5004 10ZM6.14884 10C6.14884 12.127 7.873 13.8512 10 13.8512C12.127 13.8512 13.8512 12.127 13.8512 10C13.8512 7.873 12.127 6.14884 10 6.14884C7.873 6.14884 6.14884 7.873 6.14884 10ZM13.1036 5.99614C13.1035 6.17414 13.1563 6.34817 13.2551 6.49621C13.3539 6.64426 13.4944 6.75967 13.6589 6.82785C13.8233 6.89604 14.0043 6.91393 14.1788 6.87928C14.3534 6.84462 14.5138 6.75897 14.6398 6.63315C14.7657 6.50733 14.8515 6.347 14.8863 6.17243C14.9211 5.99787 14.9033 5.8169 14.8352 5.65242C14.7672 5.48794 14.6519 5.34733 14.5039 5.24838C14.356 5.14943 14.182 5.09657 14.004 5.0965H14.0036C13.765 5.09661 13.5362 5.19142 13.3675 5.3601C13.1987 5.52878 13.1038 5.75754 13.1036 5.99614ZM6.97 16.1048C6.23878 16.0715 5.84134 15.9497 5.57722 15.8468C5.22706 15.7105 4.97722 15.5481 4.71454 15.2858C4.45186 15.0235 4.28926 14.7739 4.15354 14.4237C4.05058 14.1597 3.92878 13.7622 3.89554 13.031C3.85918 12.2404 3.85192 12.0029 3.85192 10.0001C3.85192 7.9972 3.85978 7.76038 3.89554 6.96916C3.92884 6.23794 4.05154 5.84116 4.15354 5.57638C4.28986 5.22622 4.45222 4.97638 4.71454 4.7137C4.97686 4.45102 5.22646 4.28842 5.57722 4.1527C5.84122 4.04974 6.23878 3.92794 6.97 3.8947C7.76056 3.85834 7.99804 3.85108 10 3.85108C12.002 3.85108 12.2397 3.85894 13.0309 3.8947C13.7621 3.928 14.1589 4.0507 14.4237 4.1527C14.7738 4.28842 15.0237 4.45138 15.2864 4.7137C15.549 4.97602 15.711 5.22622 15.8474 5.57638C15.9503 5.84038 16.0721 6.23794 16.1054 6.96916C16.1417 7.76038 16.149 7.9972 16.149 10.0001C16.149 12.0029 16.1417 12.2397 16.1054 13.031C16.0721 13.7622 15.9497 14.1596 15.8474 14.4237C15.711 14.7739 15.5487 15.0237 15.2864 15.2858C15.024 15.5479 14.7738 15.7105 14.4237 15.8468C14.1597 15.9498 13.7621 16.0716 13.0309 16.1048C12.2403 16.1412 12.0029 16.1484 10 16.1484C7.99714 16.1484 7.76032 16.1412 6.97 16.1048ZM6.9079 2.54542C6.10948 2.58178 5.5639 2.70838 5.08744 2.89378C4.594 3.08524 4.17628 3.3421 3.75886 3.75886C3.34144 4.17562 3.08524 4.594 2.89378 5.08744C2.70838 5.5642 2.58178 6.10948 2.54542 6.9079C2.50846 7.70758 2.5 7.96324 2.5 10C2.5 12.0368 2.50846 12.2924 2.54542 13.0921C2.58178 13.8906 2.70838 14.4358 2.89378 14.9126C3.08524 15.4057 3.3415 15.8246 3.75886 16.2411C4.17622 16.6577 4.594 16.9142 5.08744 17.1062C5.5648 17.2916 6.10948 17.4182 6.9079 17.4546C7.708 17.4909 7.96324 17.5 10 17.5C12.0368 17.5 12.2924 17.4915 13.0921 17.4546C13.8906 17.4182 14.4358 17.2916 14.9126 17.1062C15.4057 16.9142 15.8237 16.6579 16.2411 16.2411C16.6586 15.8244 16.9142 15.4057 17.1062 14.9126C17.2916 14.4358 17.4188 13.8905 17.4546 13.0921C17.4909 12.2918 17.4994 12.0368 17.4994 10C17.4994 7.96324 17.4909 7.70758 17.4546 6.9079C17.4182 6.10942 17.2916 5.5639 17.1062 5.08744C16.9142 4.5943 16.6579 4.17628 16.2411 3.75886C15.8244 3.34144 15.4057 3.08524 14.9132 2.89378C14.4358 2.70838 13.8905 2.58118 13.0927 2.54542C12.293 2.50906 12.0374 2.5 10.0006 2.5C7.96384 2.5 7.708 2.50846 6.9079 2.54542Z" fill="white"/>
<path d="M7.5004 10C7.5004 8.61934 8.61934 7.4998 10 7.4998C11.3807 7.4998 12.5002 8.61934 12.5002 10C12.5002 11.3807 11.3807 12.5002 10 12.5002C8.61934 12.5002 7.5004 11.3807 7.5004 10ZM6.14884 10C6.14884 12.127 7.873 13.8512 10 13.8512C12.127 13.8512 13.8512 12.127 13.8512 10C13.8512 7.873 12.127 6.14884 10 6.14884C7.873 6.14884 6.14884 7.873 6.14884 10ZM13.1036 5.99614C13.1035 6.17414 13.1563 6.34817 13.2551 6.49621C13.3539 6.64426 13.4944 6.75967 13.6589 6.82785C13.8233 6.89604 14.0043 6.91393 14.1788 6.87928C14.3534 6.84462 14.5138 6.75897 14.6398 6.63315C14.7657 6.50733 14.8515 6.347 14.8863 6.17243C14.9211 5.99787 14.9033 5.8169 14.8352 5.65242C14.7672 5.48794 14.6519 5.34733 14.5039 5.24838C14.356 5.14943 14.182 5.09657 14.004 5.0965H14.0036C13.765 5.09661 13.5362 5.19142 13.3675 5.3601C13.1987 5.52878 13.1038 5.75754 13.1036 5.99614ZM6.97 16.1048C6.23878 16.0715 5.84134 15.9497 5.57722 15.8468C5.22706 15.7105 4.97722 15.5481 4.71454 15.2858C4.45186 15.0235 4.28926 14.7739 4.15354 14.4237C4.05058 14.1597 3.92878 13.7622 3.89554 13.031C3.85918 12.2404 3.85192 12.0029 3.85192 10.0001C3.85192 7.9972 3.85978 7.76038 3.89554 6.96916C3.92884 6.23794 4.05154 5.84116 4.15354 5.57638C4.28986 5.22622 4.45222 4.97638 4.71454 4.7137C4.97686 4.45102 5.22646 4.28842 5.57722 4.1527C5.84122 4.04974 6.23878 3.92794 6.97 3.8947C7.76056 3.85834 7.99804 3.85108 10 3.85108C12.002 3.85108 12.2397 3.85894 13.0309 3.8947C13.7621 3.928 14.1589 4.0507 14.4237 4.1527C14.7738 4.28842 15.0237 4.45138 15.2864 4.7137C15.549 4.97602 15.711 5.22622 15.8474 5.57638C15.9503 5.84038 16.0721 6.23794 16.1054 6.96916C16.1417 7.76038 16.149 7.9972 16.149 10.0001C16.149 12.0029 16.1417 12.2397 16.1054 13.031C16.0721 13.7622 15.9497 14.1596 15.8474 14.4237C15.711 14.7739 15.5487 15.0237 15.2864 15.2858C15.024 15.5479 14.7738 15.7105 14.4237 15.8468C14.1597 15.9498 13.7621 16.0716 13.0309 16.1048C12.2403 16.1412 12.0029 16.1484 10 16.1484C7.99714 16.1484 7.76032 16.1412 6.97 16.1048ZM6.9079 2.54542C6.10948 2.58178 5.5639 2.70838 5.08744 2.89378C4.594 3.08524 4.17628 3.3421 3.75886 3.75886C3.34144 4.17562 3.08524 4.594 2.89378 5.08744C2.70838 5.5642 2.58178 6.10948 2.54542 6.9079C2.50846 7.70758 2.5 7.96324 2.5 10C2.5 12.0368 2.50846 12.2924 2.54542 13.0921C2.58178 13.8906 2.70838 14.4358 2.89378 14.9126C3.08524 15.4057 3.3415 15.8246 3.75886 16.2411C4.17622 16.6577 4.594 16.9142 5.08744 17.1062C5.5648 17.2916 6.10948 17.4182 6.9079 17.4546C7.708 17.4909 7.96324 17.5 10 17.5C12.0368 17.5 12.2924 17.4915 13.0921 17.4546C13.8906 17.4182 14.4358 17.2916 14.9126 17.1062C15.4057 16.9142 15.8237 16.6579 16.2411 16.2411C16.6586 15.8244 16.9142 15.4057 17.1062 14.9126C17.2916 14.4358 17.4188 13.8905 17.4546 13.0921C17.4909 12.2918 17.4994 12.0368 17.4994 10C17.4994 7.96324 17.4909 7.70758 17.4546 6.9079C17.4182 6.10942 17.2916 5.5639 17.1062 5.08744C16.9142 4.5943 16.6579 4.17628 16.2411 3.75886C15.8244 3.34144 15.4057 3.08524 14.9132 2.89378C14.4358 2.70838 13.8905 2.58118 13.0927 2.54542C12.293 2.50906 12.0374 2.5 10.0006 2.5C7.96384 2.5 7.708 2.50846 6.9079 2.54542Z" fill="white"/>
</g>
</g>
<defs>
<clipPath id="clip0_1962_3197">
<rect width="15" height="15" fill="white" transform="translate(2.5 2.5)"/>
</clipPath>
</defs>
</svg>
