<svg width="32" height="32" viewBox="0 0 20 20" fill="none" xmlns="http://www.w3.org/2000/svg">
<g opacity="0.6">
<path d="M9.96144 3.80084C6.45759 3.80084 3.61719 6.42737 3.61719 9.66829C3.61719 12.0619 4.61984 13.2048 5.99305 14.2456L5.99986 14.2484V17.0574C5.99986 17.1909 6.15107 17.2659 6.25733 17.1869L8.66317 15.4009L8.71493 15.4227C9.11818 15.4976 9.53504 15.5357 9.96144 15.5357C13.4653 15.5357 16.3043 12.9092 16.3043 9.66829C16.3043 6.42737 13.4639 3.80084 9.96144 3.80084ZM7.83488 11.1546C8.45746 11.1546 8.98876 10.7827 9.14951 10.2078H10.0691C9.84428 11.314 8.98331 12.0401 7.83625 12.0401C6.50255 12.0401 5.4454 11.0456 5.4454 9.66148C5.4454 8.27738 6.50255 7.28289 7.83625 7.28289C8.99557 7.28289 9.86199 8.02263 10.0759 9.14925H9.15904C9.02009 8.53758 8.46972 8.15613 7.83625 8.15613C6.93985 8.15613 6.34316 8.79505 6.34316 9.66148C6.34316 10.5279 7.02159 11.1546 7.83625 11.1546M13.8971 11.9488H13.0539V10.047C13.0539 9.60971 12.7991 9.37403 12.4068 9.37403C11.9695 9.37403 11.6875 9.64241 11.6875 10.1846V11.9488H10.8442V7.29924H11.6875V9.04844C11.8891 8.74192 12.2161 8.59071 12.6602 8.59071C13.0198 8.59071 13.3141 8.70786 13.5416 8.95035C13.7773 9.19148 13.8944 9.51844 13.8944 9.94347V11.9502L13.8971 11.9488Z" fill="white"/>
</g>
</svg>
