<svg width="32" height="32" viewBox="0 0 20 20" fill="none" xmlns="http://www.w3.org/2000/svg">
<g opacity="0.6">
<g clip-path="url(#clip0_1962_1390)">
<path d="M17.5 14.5007C17.5 16.1573 16.1573 17.5006 14.4995 17.5006H5.49988C3.84327 17.5006 2.5 16.1573 2.5 14.5007V5.50048C2.5 3.84327 3.84327 2.5 5.49988 2.5H14.4995C16.1573 2.5 17.5 3.84327 17.5 5.50048V14.5007Z" fill="white"/>
<path d="M14.3937 3.64673H5.6068C4.48642 3.64673 3.57812 4.55802 3.57812 5.6826V10.5122C3.57812 11.6368 4.48642 12.5481 5.6068 12.5481H8.63365L9.66656 14.2299C9.66656 14.2299 9.67794 14.2497 9.70011 14.2778C9.76062 14.3815 9.87206 14.4516 10.0003 14.4516C10.1285 14.4516 10.2387 14.3821 10.2992 14.2796C10.325 14.2491 10.334 14.2293 10.334 14.2293L11.3669 12.5475H14.3937C15.5141 12.5475 16.4224 11.6362 16.4224 10.5116V5.6826C16.4224 4.55802 15.5141 3.64673 14.3937 3.64673Z" fill="#19346F"/>
<path d="M6.42991 7.18583C6.42991 7.18583 6.07942 7.18583 5.76128 7.49558V6.24878H4.97461V9.52486H5.76907V9.26843C5.76907 9.26843 5.9566 9.60694 6.42931 9.60694C6.42931 9.60694 7.53772 9.5662 7.53772 8.3841C7.53772 8.3841 7.49698 7.18583 6.42931 7.18583H6.42991ZM6.25676 8.91494C5.97757 8.91494 5.75109 8.68847 5.75109 8.40927C5.75109 8.13007 5.97757 7.9042 6.25676 7.9042C6.53596 7.9042 6.76184 8.13067 6.76184 8.40927C6.76184 8.68787 6.53536 8.91494 6.25676 8.91494Z" fill="white"/>
<path d="M7.79102 6.17511V6.93302C7.79102 6.93302 8.1499 6.91684 8.1499 7.58488V9.52429H8.90781V7.40574C8.90781 7.40574 8.94016 6.17511 7.79102 6.17511Z" fill="white"/>
<path d="M10.7606 7.19604C10.7606 7.19604 9.46108 7.19604 9.46108 8.4093C9.46108 8.4093 9.41914 9.60637 10.7606 9.60637C10.7606 9.60637 12.0901 9.60458 12.0901 8.4093C12.0901 8.4093 12.1332 7.19604 10.7606 7.19604ZM10.7606 8.91497C10.4814 8.91497 10.2549 8.6885 10.2549 8.4093C10.2549 8.1301 10.4814 7.90423 10.7606 7.90423C11.0398 7.90423 11.2657 8.1307 11.2657 8.4093C11.2657 8.6879 11.0392 8.91497 10.7606 8.91497Z" fill="white"/>
<path d="M14.2605 7.27571V7.4956C14.2605 7.4956 14.0347 7.19603 13.6009 7.19603C13.6009 7.19603 12.4883 7.14929 12.4883 8.40089C12.4883 8.40089 12.4757 9.56741 13.5703 9.56741C13.5703 9.56741 14.0167 9.58539 14.2605 9.26784V9.45118C14.2605 9.45118 14.3157 10.0258 13.7597 10.0258H13.5703V10.7225H13.8759C13.8759 10.7225 15.025 10.7351 15.025 9.49432V7.27571H14.2611H14.2605ZM13.7908 8.91495C13.5116 8.91495 13.2857 8.68848 13.2857 8.40928C13.2857 8.13008 13.5116 7.90421 13.7908 7.90421C14.07 7.90421 14.2959 8.13068 14.2959 8.40928C14.2959 8.68788 14.0694 8.91495 13.7908 8.91495Z" fill="white"/>
</g>
</g>
<defs>
<clipPath id="clip0_1962_1390">
<rect width="15" height="15" fill="white" transform="translate(2.5 2.5)"/>
</clipPath>
</defs>
</svg>
