<svg width="32" height="32" viewBox="0 0 20 20" fill="none" xmlns="http://www.w3.org/2000/svg">
<g opacity="0.6">
<path d="M10.3323 14.9858L7.2549 14.9271C6.2585 14.9066 5.25962 14.9475 4.28275 14.7353C2.79672 14.4184 2.69145 12.8642 2.58129 11.5606C2.4295 9.72793 2.48826 7.86196 2.7747 6.04455C2.93641 5.02479 3.5728 4.41629 4.55695 4.35008C7.87919 4.10977 11.2235 4.13825 14.5384 4.25036C14.8885 4.26064 15.241 4.31681 15.5862 4.38075C17.2902 4.69261 17.3318 6.45377 17.4422 7.93633C17.5524 9.4342 17.5059 10.9397 17.2953 12.4274C17.1264 13.6592 16.8032 14.6921 15.4393 14.7918C13.7304 14.9222 12.0607 15.0272 10.347 14.9938C10.347 14.9858 10.3372 14.9858 10.3323 14.9858ZM8.52309 11.8674C9.8109 11.0954 11.0741 10.3363 12.3546 9.56945C11.0644 8.79746 9.80353 8.03832 8.52309 7.27151V11.8674Z" fill="white"/>
</g>
</svg>
