<svg width="24" height="24" viewBox="0 0 24 24" fill="none" xmlns="http://www.w3.org/2000/svg">
<g clip-path="url(#clip0_662_20133)">
<rect width="24" height="24" rx="12" fill="#C7A64E"/>
<path d="M11.9727 17.1367C14.208 17.1367 15.8145 15.9199 15.8008 14.2246C15.8145 12.9873 15.0146 12.1055 13.5586 11.9277V11.8457C14.666 11.6475 15.4385 10.8613 15.4316 9.75391C15.4385 8.18848 14.0645 6.96484 12 6.96484C9.96973 6.96484 8.43848 8.14746 8.4043 9.84961H10.373C10.4072 9.09082 11.125 8.59863 12 8.60547C12.875 8.59863 13.4561 9.11816 13.4492 9.87695C13.4561 10.6562 12.7725 11.1895 11.7949 11.1895H10.8789V12.707H11.7949C12.957 12.7139 13.6748 13.2812 13.668 14.0879C13.6748 14.8877 12.9707 15.4346 11.9863 15.4414C11.0293 15.4346 10.3115 14.9492 10.2773 14.2109H8.19922C8.24023 15.9404 9.79883 17.1367 11.9727 17.1367Z" fill="white"/>
</g>
<defs>
<clipPath id="clip0_662_20133">
<rect width="24" height="24" rx="12" fill="white"/>
</clipPath>
</defs>
</svg>
