<svg width="44" height="24" viewBox="0 0 44 24" fill="none" xmlns="http://www.w3.org/2000/svg">
<rect width="44" height="24" rx="12" fill="#003499"/>
<path d="M16.5098 11.4531H12.373V10.5391H15.3965V9.36719H9.43164V8.04297H15.3379V6.88281H7.94336V10.5391H10.9082V11.4531H6.75977V12.625H16.5098V11.4531ZM7.87305 15.1328C7.87305 16.3809 9.2793 17.0898 11.6113 17.0898C13.9258 17.0898 15.3145 16.3809 15.3262 15.1328C15.3145 13.8672 13.9258 13.1641 11.6113 13.1641C9.2793 13.1641 7.87305 13.8672 7.87305 15.1328ZM9.39648 15.1328C9.39062 14.582 10.1348 14.3008 11.6113 14.3008C13.0586 14.3008 13.8203 14.582 13.8262 15.1328C13.8203 15.6895 13.0586 15.9531 11.6113 15.9531C10.1348 15.9531 9.39062 15.6895 9.39648 15.1328Z" fill="white"/>
<path d="M22.2754 8.04297H20.4473V6.70703H18.9707V8.04297H17.1191V9.22656H22.2754V8.04297ZM17.3652 12.2383C17.3652 13.7266 18.3613 14.7812 19.7207 14.7812C21.0859 14.7812 22.0586 13.7266 22.0645 12.2383C22.0586 10.7559 21.0859 9.71289 19.7207 9.70703C18.3613 9.71289 17.3652 10.7559 17.3652 12.2383ZM18.6777 12.2383C18.6777 11.4355 19.0996 10.9492 19.7207 10.9492C20.3184 10.9492 20.7461 11.4355 20.752 12.2383C20.7461 13.0527 20.3184 13.5156 19.7207 13.5156C19.0996 13.5156 18.6777 13.0527 18.6777 12.2383ZM22.6738 16.6211H24.0684V11.9453H24.9355V17.0781H26.3535V6.41406H24.9355V10.75H24.0684V6.625H22.6738V16.6211Z" fill="white"/>
<path d="M31.498 8.24219V7.07031H29.9863V8.23047C29.9805 9.75977 29.2129 11.2188 27.4316 11.8047L28.2402 12.9766C29.4766 12.5312 30.3086 11.6582 30.7656 10.5391C31.2168 11.5293 31.9961 12.3145 33.127 12.7305L33.9355 11.5586C32.2363 10.9902 31.498 9.61914 31.498 8.24219ZM29.3887 16.8906H36.7129V15.6953H30.9004V13.4688H29.3887V16.8906ZM32.998 9.89453H35.002V14.3008H36.4902V6.42578H35.002V8.6875H32.998V9.89453Z" fill="white"/>
</svg>
