<svg width="44" height="24" viewBox="0 0 44 24" fill="none" xmlns="http://www.w3.org/2000/svg">
<rect width="44" height="24" rx="12" fill="#8936E0"/>
<path d="M15.748 6.42578H14.2598V8.13672H12.2734C12.3262 7.82031 12.3496 7.48633 12.3496 7.14062H7.42773V8.33594H10.7207C10.5098 9.80078 9.30273 10.9785 6.85352 11.6172L7.43945 12.8008C9.7832 12.1621 11.3008 10.9961 11.9688 9.30859H14.2598V10.3281H11.8574V11.5234H14.2598V12.5664H15.748V6.42578ZM8.55273 14.8516C8.54688 16.1875 10.0059 17.0312 12.1973 17.0312C14.3594 17.0312 15.8242 16.1875 15.8301 14.8516C15.8242 13.5332 14.3594 12.7012 12.1973 12.6953C10.0059 12.7012 8.54688 13.5332 8.55273 14.8516ZM10.041 14.8516C10.041 14.1953 10.8438 13.8555 12.1973 13.8672C13.5215 13.8555 14.3242 14.1953 14.3301 14.8516C14.3242 15.5137 13.5215 15.8477 12.1973 15.8477C10.8438 15.8477 10.041 15.5137 10.041 14.8516Z" fill="white"/>
<path d="M26.1191 6.42578H24.6309V9.17969H22.8848V10.3867H24.6309V14.207H26.1191V6.42578ZM17.0723 11.8047L17.834 13.0234C19.0938 12.6074 19.9434 11.7461 20.418 10.6855C20.8809 11.6406 21.6953 12.4141 22.873 12.8008L23.6113 11.6172C21.918 11.0664 21.1562 9.74805 21.1621 8.51172V8.33594H23.2832V7.14062H17.4941V8.33594H19.6387V8.5C19.6328 9.86523 18.8359 11.2539 17.0723 11.8047ZM19.041 16.8906H26.377V15.6953H20.541V13.5273H19.041V16.8906Z" fill="white"/>
<path d="M31.4277 8.52344V8.48828H33.584V7.30469H31.4512V6.36719H29.9395V7.30469H27.7949V8.48828H29.9395V8.52344C29.9395 9.55469 29.1309 10.5625 27.4082 10.9609L28.041 12.0977C29.3418 11.8047 30.2324 11.1309 30.707 10.252C31.1992 11.0488 32.0723 11.6582 33.3262 11.9219L33.9824 10.7852C32.2598 10.4395 31.4336 9.47266 31.4277 8.52344ZM29.3887 13.4805H35.002V14.1133H29.4004V17.0078H36.8066V15.8594H30.9004V15.2031H36.4902V12.3438H29.3887V13.4805ZM33.3027 10.0938H35.002V11.957H36.4902V6.41406H35.002V8.91016H33.3027V10.0938Z" fill="white"/>
</svg>
