<svg width="24" height="24" viewBox="0 0 24 24" fill="none" xmlns="http://www.w3.org/2000/svg">
<g clip-path="url(#clip0_662_19928)">
<rect width="24" height="24" rx="12" fill="#B5500B"/>
<path d="M12.1094 17.1367C14.3447 17.1436 15.8623 15.7012 15.8555 13.6914C15.8623 11.8252 14.5361 10.4922 12.752 10.4922C11.6582 10.4922 10.6807 11.0049 10.2227 11.8867H10.127C10.1406 9.93848 10.8447 8.72852 12.1914 8.72852C12.9912 8.72852 13.5586 9.15918 13.7227 9.84961H15.7461C15.5479 8.22266 14.1807 6.96484 12.1914 6.96484C9.7168 6.96484 8.12402 8.94043 8.11719 12.2832C8.11035 15.9062 10.0654 17.1299 12.1094 17.1367ZM10.332 13.7461C10.3457 12.7822 11.1113 11.9893 12.123 11.9824C13.1279 11.9893 13.8594 12.7549 13.8594 13.7461C13.8594 14.7441 13.1143 15.5166 12.0957 15.5098C11.084 15.5166 10.3457 14.7168 10.332 13.7461Z" fill="white"/>
</g>
<defs>
<clipPath id="clip0_662_19928">
<rect width="24" height="24" rx="12" fill="white"/>
</clipPath>
</defs>
</svg>
