<svg width="24" height="24" viewBox="0 0 24 24" fill="none" xmlns="http://www.w3.org/2000/svg">
<g clip-path="url(#clip0_662_19930)">
<rect width="24" height="24" rx="12" fill="#E51E6E"/>
<path d="M11.9932 17.1367C14.249 17.1367 15.876 15.9473 15.876 14.334C15.876 13.0898 14.9053 12.0781 13.7021 11.8867V11.8184C14.7412 11.6133 15.5 10.7178 15.5068 9.63086C15.5 8.09277 14.0166 6.96484 11.9932 6.96484C9.96973 6.96484 8.48633 8.09277 8.49316 9.63086C8.48633 10.7178 9.22461 11.6133 10.2979 11.8184V11.8867C9.06738 12.0781 8.11035 13.0898 8.11035 14.334C8.11035 15.9473 9.73047 17.1367 11.9932 17.1367ZM10.2568 14.1289C10.25 13.2676 10.9883 12.6455 11.9932 12.6387C12.998 12.6455 13.7363 13.2744 13.7295 14.1289C13.7363 14.9766 13.0391 15.5713 11.9932 15.5645C10.9473 15.5713 10.25 14.9766 10.2568 14.1289ZM10.5029 9.83594C10.4961 9.06348 11.1045 8.52344 11.9932 8.52344C12.875 8.52344 13.4902 9.06348 13.4971 9.83594C13.4902 10.6289 12.8613 11.1826 11.9932 11.1895C11.1182 11.1826 10.4961 10.6289 10.5029 9.83594Z" fill="white"/>
</g>
<defs>
<clipPath id="clip0_662_19930">
<rect width="24" height="24" rx="12" fill="white"/>
</clipPath>
</defs>
</svg>
