<svg width="24" height="24" viewBox="0 0 24 24" fill="none" xmlns="http://www.w3.org/2000/svg">
<g clip-path="url(#clip0_662_19927)">
<rect width="24" height="24" rx="12" fill="#8936E0"/>
<path d="M12.0273 17.1367C14.2559 17.1367 15.7734 15.708 15.7734 13.7051C15.7734 11.8047 14.4199 10.4443 12.6016 10.4512C11.7334 10.4443 10.9814 10.7998 10.6191 11.2852H10.5371L10.8105 8.7832H15.2129V7.10156H9.11523L8.58203 12.8027H10.4414C10.7354 12.249 11.2549 11.9688 12 11.9688C13.0391 11.9756 13.7842 12.707 13.7773 13.7598C13.7842 14.792 13.0527 15.5166 12.0273 15.5098C11.166 15.5166 10.4619 14.9834 10.4141 14.2109H8.41797C8.45215 15.9199 9.96289 17.1367 12.0273 17.1367Z" fill="white"/>
</g>
<defs>
<clipPath id="clip0_662_19927">
<rect width="24" height="24" rx="12" fill="white"/>
</clipPath>
</defs>
</svg>
