<svg width="33" height="24" viewBox="0 0 33 24" fill="none" xmlns="http://www.w3.org/2000/svg">
<rect width="33" height="24" rx="12" fill="#60A7E2"/>
<path d="M11.25 13.0586C8.93555 13.0586 7.44727 13.7969 7.45312 15.0742C7.44727 16.334 8.93555 17.084 11.25 17.0781C13.582 17.084 15.0469 16.334 15.0586 15.0742C15.0469 13.7969 13.582 13.0586 11.25 13.0586ZM6.46875 12.3789H16.1484V11.1719H11.5781V9.30859H10.1016V11.1719H6.46875V12.3789ZM7.55859 8.06641H13.5117C13.5 8.79297 13.4707 9.51367 13.2305 10.4805L14.6953 10.6211C15.0059 9.52539 15.0059 8.61133 15 7.76172V6.89453H7.55859V8.06641ZM8.94141 15.0742C8.93555 14.4824 9.7793 14.166 11.25 14.1719C12.7207 14.166 13.5703 14.4824 13.5703 15.0742C13.5703 15.6484 12.7207 15.9414 11.25 15.9414C9.7793 15.9414 8.93555 15.6484 8.94141 15.0742Z" fill="white"/>
<path d="M25.2773 6.41406H23.7773V13.1875H25.2773V10.3867H26.7188V9.14453H25.2773V6.41406ZM16.8164 8.59375H23.1445V7.43359H20.7305V6.35547H19.2422V7.43359H16.8164V8.59375ZM17.332 10.8789C17.332 12.0273 18.416 12.7891 19.9805 12.7891C21.5332 12.7891 22.6055 12.0273 22.6055 10.8789C22.6055 9.74219 21.5332 8.96289 19.9805 8.95703C18.4102 8.96289 17.332 9.74219 17.332 10.8789ZM18.1875 15.1914C18.1758 16.3633 19.5527 17.084 21.7969 17.0781C23.9883 17.084 25.3887 16.3633 25.3945 15.1914C25.3887 13.9902 23.9883 13.2871 21.7969 13.2812C19.5527 13.2871 18.1758 13.9902 18.1875 15.1914ZM18.7969 10.8789C18.791 10.3457 19.2656 10.0527 19.9805 10.0469C20.7012 10.0527 21.1875 10.3457 21.1875 10.8789C21.1875 11.4062 20.7012 11.6816 19.9805 11.6758C19.2656 11.6816 18.791 11.4062 18.7969 10.8789ZM19.6641 15.1914C19.6582 14.6582 20.3965 14.4238 21.7969 14.418C23.1562 14.4238 23.8945 14.6582 23.8945 15.1914C23.8945 15.6895 23.1562 15.9648 21.7969 15.9648C20.3965 15.9648 19.6582 15.6895 19.6641 15.1914Z" fill="white"/>
</svg>
