<svg width="33" height="24" viewBox="0 0 33 24" fill="none" xmlns="http://www.w3.org/2000/svg">
<rect width="33" height="24" rx="12" fill="#5EC57E"/>
<path d="M15.4336 6.42578H13.9453V8.13672H11.959C12.0117 7.82031 12.0352 7.48633 12.0352 7.14062H7.11328V8.33594H10.4062C10.1953 9.80078 8.98828 10.9785 6.53906 11.6172L7.125 12.8008C9.46875 12.1621 10.9863 10.9961 11.6543 9.30859H13.9453V10.3281H11.543V11.5234H13.9453V12.5664H15.4336V6.42578ZM8.23828 14.8516C8.23242 16.1875 9.69141 17.0312 11.8828 17.0312C14.0449 17.0312 15.5098 16.1875 15.5156 14.8516C15.5098 13.5332 14.0449 12.7012 11.8828 12.6953C9.69141 12.7012 8.23242 13.5332 8.23828 14.8516ZM9.72656 14.8516C9.72656 14.1953 10.5293 13.8555 11.8828 13.8672C13.207 13.8555 14.0098 14.1953 14.0156 14.8516C14.0098 15.5137 13.207 15.8477 11.8828 15.8477C10.5293 15.8477 9.72656 15.5137 9.72656 14.8516Z" fill="white"/>
<path d="M22.4062 6.4375H20.9297V7.45703H17.7539V8.60547H20.8008C20.6016 9.4375 19.5059 10.1758 17.2266 10.3398L17.707 11.4883C19.6523 11.3359 21 10.7266 21.668 9.8125C22.3359 10.7266 23.6836 11.3359 25.6289 11.4883L26.1094 10.3398C23.8184 10.1758 22.7227 9.4375 22.5293 8.60547H25.6055V7.45703H22.4062V6.4375ZM16.8047 13.1172H21.0703V14.8516H22.5469V13.1172H26.5664V11.9219H16.8047V13.1172ZM17.9531 16.8906H25.4883V15.6953H19.4414V13.9023H17.9531V16.8906Z" fill="white"/>
</svg>
