<svg width="44" height="24" viewBox="0 0 44 24" fill="none" xmlns="http://www.w3.org/2000/svg">
<rect width="44" height="24" rx="12" fill="#BE4049"/>
<path d="M15.6895 6.42578H14.1895V14.207H15.6895V6.42578ZM6.72461 11.5703L7.49805 12.7539C8.74609 12.3262 9.5957 11.4473 10.0762 10.3574C10.5508 11.3711 11.377 12.168 12.584 12.5664L13.3457 11.3945C11.5938 10.832 10.8379 9.45508 10.8496 8.04297V7.01172H9.29102V8.04297C9.29102 9.49023 8.51172 10.9727 6.72461 11.5703ZM8.54102 16.8906H15.9707V15.6953H10.0527V13.457H8.54102V16.8906Z" fill="white"/>
<path d="M26.8809 11.8867H17.1191V13.0586H21.3848V14.7812H22.8613V13.0586H26.8809V11.8867ZM18.2676 16.8906H25.8027V15.6953H19.7441V13.9375H18.2676V16.8906ZM18.373 11.1367H25.6152V6.75391H24.127V7.86719H19.8496V6.75391H18.373V11.1367ZM19.8496 9.95312V8.98047H24.127V9.95312H19.8496Z" fill="white"/>
<path d="M35.9863 6.41406H34.4629V12.5898H35.9863V10.1641H37.4043V8.94531H35.9863V6.41406ZM27.877 12.0156H28.7676C31.1758 12.0098 32.4297 11.9629 33.748 11.6758L33.6191 10.4805C32.4297 10.7324 31.3457 10.7969 29.3652 10.8086V8.32422H32.6699V7.12891H27.877V12.0156ZM28.8145 14.9102C28.8086 16.2812 30.2383 17.084 32.4707 17.0781C34.6621 17.084 36.0625 16.2812 36.0684 14.9102C36.0625 13.5684 34.6621 12.7773 32.4707 12.7773C30.2383 12.7773 28.8086 13.5684 28.8145 14.9102ZM30.291 14.9102C30.2852 14.2832 31.0703 13.9551 32.4707 13.9609C33.8242 13.9551 34.6094 14.2832 34.6152 14.9102C34.6094 15.5547 33.8242 15.8945 32.4707 15.8945C31.0703 15.8945 30.2852 15.5547 30.291 14.9102Z" fill="white"/>
</svg>
