<svg width="54" height="24" viewBox="0 0 54 24" fill="none" xmlns="http://www.w3.org/2000/svg">
<rect width="54" height="24" rx="12" fill="#49A29C"/>
<path d="M15.5625 6.42578H14.0742V8.13672H12.0879C12.1406 7.82031 12.1641 7.48633 12.1641 7.14062H7.24219V8.33594H10.5352C10.3242 9.80078 9.11719 10.9785 6.66797 11.6172L7.25391 12.8008C9.59766 12.1621 11.1152 10.9961 11.7832 9.30859H14.0742V10.3281H11.6719V11.5234H14.0742V12.5664H15.5625V6.42578ZM8.36719 14.8516C8.36133 16.1875 9.82031 17.0312 12.0117 17.0312C14.1738 17.0312 15.6387 16.1875 15.6445 14.8516C15.6387 13.5332 14.1738 12.7012 12.0117 12.6953C9.82031 12.7012 8.36133 13.5332 8.36719 14.8516ZM9.85547 14.8516C9.85547 14.1953 10.6582 13.8555 12.0117 13.8672C13.3359 13.8555 14.1387 14.1953 14.1445 14.8516C14.1387 15.5137 13.3359 15.8477 12.0117 15.8477C10.6582 15.8477 9.85547 15.5137 9.85547 14.8516Z" fill="white"/>
<path d="M20.4023 7.12891C18.7207 7.12305 17.4316 8.21289 17.4375 9.74219C17.4316 11.2773 18.7207 12.3613 20.4023 12.3672C22.0957 12.3613 23.3496 11.2773 23.3555 9.74219C23.3496 8.21289 22.0957 7.12305 20.4023 7.12891ZM16.9922 13.7031L17.168 14.9219C19.0312 14.9219 21.5625 14.9043 23.9297 14.4414L23.8125 13.3633C21.5332 13.6855 18.8965 13.709 16.9922 13.7031ZM18.9258 9.74219C18.9199 8.91016 19.5586 8.41797 20.4023 8.41797C21.252 8.41797 21.8965 8.91016 21.9023 9.74219C21.8965 10.5859 21.252 11.0723 20.4023 11.0664C19.5586 11.0723 18.9199 10.5859 18.9258 9.74219ZM24.4219 17.1016H25.9102V6.41406H24.4219V17.1016Z" fill="white"/>
<path d="M37.043 11.2539H27.3164V12.4609H31.4297V13.2461C29.5371 13.3809 28.4297 14.0488 28.4297 15.1562C28.4297 16.3926 29.8301 17.084 32.168 17.0781C34.4707 17.084 35.8711 16.3926 35.8828 15.1562C35.8711 14.0547 34.7695 13.3867 32.918 13.252V12.4609H37.043V11.2539ZM27.75 9.68359L28.2422 10.8555C30.2637 10.668 31.6055 9.90039 32.168 8.86914C32.7363 9.90625 34.0898 10.6621 36.1055 10.8555L36.6328 9.68359C34.6055 9.50781 33.5215 8.78711 33.2637 8.04297H36.1641V6.87109H28.207V8.04297H31.084C30.8145 8.78125 29.7246 9.50781 27.75 9.68359ZM29.9531 15.1562C29.9473 14.6172 30.6914 14.3594 32.168 14.3477C33.6152 14.3594 34.377 14.6172 34.3828 15.1562C34.377 15.6719 33.6152 15.9531 32.168 15.9531C30.6914 15.9531 29.9473 15.6719 29.9531 15.1562Z" fill="white"/>
<path d="M40.6875 7C39.0176 6.99414 37.752 8.06055 37.7578 9.57812C37.752 11.084 39.0176 12.1621 40.6875 12.1562C42.3398 12.1621 43.5938 11.084 43.5938 9.57812C43.5938 8.06055 42.3398 6.99414 40.6875 7ZM39 14.9805C38.9941 16.293 40.4238 17.084 42.6562 17.0781C44.8477 17.084 46.248 16.293 46.2539 14.9805C46.248 13.6504 44.8477 12.8652 42.6562 12.8594C40.4238 12.8652 38.9941 13.6504 39 14.9805ZM39.2344 9.57812C39.2227 8.75781 39.8496 8.24805 40.6875 8.25391C41.5078 8.24805 42.1348 8.75781 42.1406 9.57812C42.1348 10.4102 41.5078 10.8965 40.6875 10.9023C39.8496 10.8965 39.2227 10.4102 39.2344 9.57812ZM40.5 14.9805C40.4883 14.3594 41.2559 14.0488 42.6562 14.043C44.0391 14.0488 44.7773 14.3594 44.7773 14.9805C44.7773 15.6074 44.0391 15.8945 42.6562 15.8945C41.2559 15.8945 40.4883 15.6074 40.5 14.9805ZM44.6484 12.6484H46.1484V10.0586H47.5898V8.85156H46.1484V6.41406H44.6484V12.6484Z" fill="white"/>
</svg>
