<svg width="54" height="24" viewBox="0 0 54 24" fill="none" xmlns="http://www.w3.org/2000/svg">
<rect width="54" height="24" rx="12" fill="#F6CD21"/>
<path d="M12.2344 7.24609V6.73047H10.6641V7.24609C10.6582 8.50586 9.375 9.89453 6.94922 10.1992L7.54688 11.4062C9.38672 11.1367 10.7461 10.2695 11.4492 9.12109C12.1465 10.2754 13.5117 11.1367 15.375 11.4062L15.9609 10.1992C13.5176 9.89453 12.2285 8.50586 12.2344 7.24609ZM6.57422 13.4336H10.6758V17.0781H12.1523V13.4336H16.3008V12.2148H6.57422V13.4336Z" fill="white"/>
<path d="M25.875 6.42578H24.375V14.0898H25.875V6.42578ZM17.1094 9.78906C17.1094 11.377 18.3867 12.4961 20.0273 12.4961C21.6621 12.4961 22.9395 11.377 22.9453 9.78906C22.9395 8.22461 21.6621 7.09961 20.0273 7.10547C18.3867 7.09961 17.1094 8.22461 17.1094 9.78906ZM18.5742 9.78906C18.5625 8.92188 19.1895 8.40039 20.0273 8.40625C20.8359 8.40039 21.4629 8.92188 21.4688 9.78906C21.4629 10.6797 20.8359 11.1953 20.0273 11.1953C19.1895 11.1953 18.5625 10.6797 18.5742 9.78906ZM18.7266 16.8906H26.1562V15.6953H20.2383V13.3164H18.7266V16.8906Z" fill="white"/>
<path d="M37.0664 11.8867H27.3047V13.0586H31.5703V14.7812H33.0469V13.0586H37.0664V11.8867ZM28.4531 16.8906H35.9883V15.6953H29.9297V13.9375H28.4531V16.8906ZM28.5586 11.1367H35.8008V6.75391H34.3125V7.86719H30.0352V6.75391H28.5586V11.1367ZM30.0352 9.95312V8.98047H34.3125V9.95312H30.0352Z" fill="white"/>
<path d="M46.1719 6.41406H44.6484V12.5898H46.1719V10.1641H47.5898V8.94531H46.1719V6.41406ZM38.0625 12.0156H38.9531C41.3613 12.0098 42.6152 11.9629 43.9336 11.6758L43.8047 10.4805C42.6152 10.7324 41.5312 10.7969 39.5508 10.8086V8.32422H42.8555V7.12891H38.0625V12.0156ZM39 14.9102C38.9941 16.2812 40.4238 17.084 42.6562 17.0781C44.8477 17.084 46.248 16.2812 46.2539 14.9102C46.248 13.5684 44.8477 12.7773 42.6562 12.7773C40.4238 12.7773 38.9941 13.5684 39 14.9102ZM40.4766 14.9102C40.4707 14.2832 41.2559 13.9551 42.6562 13.9609C44.0098 13.9551 44.7949 14.2832 44.8008 14.9102C44.7949 15.5547 44.0098 15.8945 42.6562 15.8945C41.2559 15.8945 40.4707 15.5547 40.4766 14.9102Z" fill="white"/>
</svg>
