<svg width="54" height="24" viewBox="0 0 54 24" fill="none" xmlns="http://www.w3.org/2000/svg">
<rect width="54" height="24" rx="12" fill="#D1CA4D"/>
<path d="M16.0664 12.3789H6.30469V13.5977H10.418V17.0898H11.8945V13.5977H16.0664V12.3789ZM7.28906 9.19141C7.2832 10.6387 8.86523 11.5703 11.1562 11.5703C13.4473 11.5703 15.0469 10.6387 15.0469 9.19141C15.0469 7.70898 13.4473 6.77148 11.1562 6.76562C8.86523 6.77148 7.2832 7.70898 7.28906 9.19141ZM8.82422 9.19141C8.81836 8.40039 9.72656 7.9668 11.1562 7.96094C12.5977 7.9668 13.5 8.40039 13.5 9.19141C13.5 9.95312 12.5977 10.3809 11.1562 10.3867C9.72656 10.3809 8.81836 9.95312 8.82422 9.19141Z" fill="white"/>
<path d="M25.6172 6.41406H24.1055V17.1016H25.6172V6.41406ZM17.0039 10.9609C16.998 13.3047 18.1875 14.7695 19.8281 14.7695C21.4336 14.7695 22.6289 13.3047 22.6289 10.9609C22.6289 8.63477 21.4336 7.16406 19.8281 7.16406C18.1875 7.16406 16.998 8.63477 17.0039 10.9609ZM18.4453 10.9609C18.4395 9.37891 18.9961 8.51172 19.8281 8.51172C20.6367 8.51172 21.1816 9.37891 21.1875 10.9609C21.1816 12.5488 20.6367 13.416 19.8281 13.4102C18.9961 13.416 18.4395 12.5488 18.4453 10.9609Z" fill="white"/>
<path d="M35.9883 6.42578H34.4883V14.207H35.9883V6.42578ZM27.0234 11.5703L27.7969 12.7539C29.0449 12.3262 29.8945 11.4473 30.375 10.3574C30.8496 11.3711 31.6758 12.168 32.8828 12.5664L33.6445 11.3945C31.8926 10.832 31.1367 9.45508 31.1484 8.04297V7.01172H29.5898V8.04297C29.5898 9.49023 28.8105 10.9727 27.0234 11.5703ZM28.8398 16.8906H36.2695V15.6953H30.3516V13.457H28.8398V16.8906Z" fill="white"/>
<path d="M46.418 6.41406H44.9297V8.00781H42.9258V9.19141H44.9297V11.8398H46.418V6.41406ZM37.3477 10.7383L38.1211 11.9219C39.3691 11.5293 40.207 10.7324 40.6758 9.70703C41.1387 10.6211 41.9355 11.3359 43.0781 11.6992L43.8633 10.5508C42.1641 10.0469 41.4199 8.81055 41.4258 7.53906V6.76562H39.9141V7.53906C39.9082 8.91602 39.1172 10.2168 37.3477 10.7383ZM39.3281 13.4336H44.9414V14.043H39.3398V16.9609H46.7227V15.7891H40.8164V15.1328H46.418V12.2852H39.3281V13.4336Z" fill="white"/>
</svg>
