<svg width="33" height="24" viewBox="0 0 33 24" fill="none" xmlns="http://www.w3.org/2000/svg">
<rect width="33" height="24" rx="12" fill="#438CFD"/>
<path d="M15.375 6.42578H13.875V14.207H15.375V6.42578ZM6.41016 11.5703L7.18359 12.7539C8.43164 12.3262 9.28125 11.4473 9.76172 10.3574C10.2363 11.3711 11.0625 12.168 12.2695 12.5664L13.0312 11.3945C11.2793 10.832 10.5234 9.45508 10.5352 8.04297V7.01172H8.97656V8.04297C8.97656 9.49023 8.19727 10.9727 6.41016 11.5703ZM8.22656 16.8906H15.6562V15.6953H9.73828V13.457H8.22656V16.8906Z" fill="white"/>
<path d="M25.7461 6.42578H24.2461V12.7422H25.7461V6.42578ZM17.3672 8.20703H20.8242V9.09766H17.3789V12.3789H18.3164C20.4316 12.3789 21.873 12.3262 23.5078 12.0625L23.3203 10.8672C21.8848 11.1074 20.625 11.1543 18.8438 11.1602V10.2344H22.3125V7.03516H17.3672V8.20703ZM18.5977 16.9609H25.7461V13.2109H18.5977V16.9609ZM20.0742 15.7656V14.3945H24.2812V15.7656H20.0742Z" fill="white"/>
</svg>
