<svg width="54" height="24" viewBox="0 0 54 24" fill="none" xmlns="http://www.w3.org/2000/svg">
<rect width="54" height="24" rx="12" fill="#77C371"/>
<path d="M15.8203 6.41406H14.3906V17.0781H15.8203V6.41406ZM6.66797 11.0312C6.66797 13.4277 7.57617 14.9102 8.98828 14.9102C10.3008 14.9102 11.1973 13.6387 11.3262 11.5469H12.1875V16.5859H13.5938V6.56641H12.1875V10.3633H11.3145C11.1504 8.37109 10.2715 7.16992 8.98828 7.17578C7.57617 7.16992 6.66797 8.64648 6.66797 11.0312ZM8.05078 11.0312C8.03906 9.39648 8.39062 8.58203 8.98828 8.58203C9.60352 8.58203 9.9668 9.39648 9.96094 11.0312C9.9668 12.6719 9.60352 13.4805 8.98828 13.4688C8.39062 13.4805 8.03906 12.6719 8.05078 11.0312Z" fill="white"/>
<path d="M25.9453 6.41406H24.4688V10.1758H22.4883V7.23438H21.0234V9.82422H18.832V7.23438H17.3438V14.5703H22.4883V11.3828H24.4688V17.1016H25.9453V6.41406ZM18.832 13.375V10.9961H21.0234V13.375H18.832Z" fill="white"/>
<path d="M35.7305 6.41406H34.2539V17.1016H35.7305V11.6758H37.3008V10.4453H35.7305V6.41406ZM27.75 8.51172H31.1953V10.2578H27.7617V14.6172H28.6641C30.5391 14.6172 32.0039 14.5527 33.6328 14.2539L33.5039 13.0586C32.0859 13.2988 30.8027 13.3691 29.25 13.375V11.4414H32.6836V7.30469H27.75V8.51172Z" fill="white"/>
<path d="M46.6172 6.42578H45.1172V14.0898H46.6172V6.42578ZM37.8516 9.78906C37.8516 11.377 39.1289 12.4961 40.7695 12.4961C42.4043 12.4961 43.6816 11.377 43.6875 9.78906C43.6816 8.22461 42.4043 7.09961 40.7695 7.10547C39.1289 7.09961 37.8516 8.22461 37.8516 9.78906ZM39.3164 9.78906C39.3047 8.92188 39.9316 8.40039 40.7695 8.40625C41.5781 8.40039 42.2051 8.92188 42.2109 9.78906C42.2051 10.6797 41.5781 11.1953 40.7695 11.1953C39.9316 11.1953 39.3047 10.6797 39.3164 9.78906ZM39.4688 16.8906H46.8984V15.6953H40.9805V13.3164H39.4688V16.8906Z" fill="white"/>
</svg>
