<svg width="33" height="24" viewBox="0 0 33 24" fill="none" xmlns="http://www.w3.org/2000/svg">
<rect width="33" height="24" rx="12" fill="#92BD4E"/>
<path d="M10.4766 8.82812V7.23438H8.96484V8.82812C8.95312 10.832 8.12109 12.8887 6.29297 13.7148L7.23047 14.9336C8.44922 14.3359 9.26953 13.1875 9.72656 11.7871C10.1719 13.1055 10.9688 14.1719 12.1523 14.7461L13.0664 13.5508C11.291 12.7832 10.4824 10.832 10.4766 8.82812ZM11.8711 10.9727H13.9688V17.1016H15.4453V6.41406H13.9688V9.76562H11.8711V10.9727Z" fill="white"/>
<path d="M21.9609 8.04297H20.1328V6.70703H18.6562V8.04297H16.8047V9.22656H21.9609V8.04297ZM17.0508 12.2383C17.0508 13.7266 18.0469 14.7812 19.4062 14.7812C20.7715 14.7812 21.7441 13.7266 21.75 12.2383C21.7441 10.7559 20.7715 9.71289 19.4062 9.70703C18.0469 9.71289 17.0508 10.7559 17.0508 12.2383ZM18.3633 12.2383C18.3633 11.4355 18.7852 10.9492 19.4062 10.9492C20.0039 10.9492 20.4316 11.4355 20.4375 12.2383C20.4316 13.0527 20.0039 13.5156 19.4062 13.5156C18.7852 13.5156 18.3633 13.0527 18.3633 12.2383ZM22.3594 16.6211H23.7539V11.9453H24.6211V17.0781H26.0391V6.41406H24.6211V10.75H23.7539V6.625H22.3594V16.6211Z" fill="white"/>
</svg>
