<svg width="24" height="24" viewBox="0 0 24 24" fill="none" xmlns="http://www.w3.org/2000/svg">
<g clip-path="url(#clip0_662_19931)">
<rect width="24" height="24" rx="12" fill="#CEA43A"/>
<path d="M11.8906 6.96484C9.65527 6.95801 8.14453 8.40723 8.14453 10.3965C8.1582 12.2422 9.4707 13.582 11.248 13.582C12.3486 13.582 13.3262 13.0625 13.791 12.1875H13.873C13.8662 14.1631 13.1553 15.373 11.8086 15.373C11.0156 15.373 10.4482 14.9424 10.2773 14.2109H8.25391C8.45215 15.8857 9.81934 17.1367 11.8086 17.1367C14.2969 17.1367 15.8896 15.1543 15.8828 11.791C15.8828 8.19531 13.9414 6.97168 11.8906 6.96484ZM10.1543 10.3418C10.1406 9.35742 10.8926 8.58496 11.9043 8.57812C12.916 8.58496 13.6543 9.38477 13.668 10.3281C13.668 11.2783 12.8955 12.0781 11.8906 12.0781C10.8721 12.0781 10.1543 11.3193 10.1543 10.3418Z" fill="white"/>
</g>
<defs>
<clipPath id="clip0_662_19931">
<rect width="24" height="24" rx="12" fill="white"/>
</clipPath>
</defs>
</svg>
