<svg width="42" height="24" viewBox="0 0 42 24" fill="none" xmlns="http://www.w3.org/2000/svg">
<rect width="42" height="24" rx="12" fill="#628AD9"/>
<path d="M15.6797 6.42578H14.1797V14.0898H15.6797V6.42578ZM6.91406 9.78906C6.91406 11.377 8.19141 12.4961 9.83203 12.4961C11.4668 12.4961 12.7441 11.377 12.75 9.78906C12.7441 8.22461 11.4668 7.09961 9.83203 7.10547C8.19141 7.09961 6.91406 8.22461 6.91406 9.78906ZM8.37891 9.78906C8.36719 8.92188 8.99414 8.40039 9.83203 8.40625C10.6406 8.40039 11.2676 8.92188 11.2734 9.78906C11.2676 10.6797 10.6406 11.1953 9.83203 11.1953C8.99414 11.1953 8.36719 10.6797 8.37891 9.78906ZM8.53125 16.8906H15.9609V15.6953H10.043V13.3164H8.53125V16.8906Z" fill="white"/>
<path d="M21.0469 8.92188V8.83984H23.2031V7.66797H21.0703V6.48438H19.5586V7.66797H17.4141V8.83984H19.5586V8.92188C19.5586 10.2227 18.7852 11.5176 17.0508 12.0391L17.7773 13.2109C19.0137 12.8242 19.8574 12.0332 20.332 11.0312C20.8125 11.957 21.6562 12.6895 22.8516 13.0352L23.5664 11.875C21.832 11.3477 21.0527 10.123 21.0469 8.92188ZM19.0312 16.8906H26.3672V15.6953H20.5312V13.6562H19.0312V16.8906ZM22.8516 10.7383H24.6211V14.3359H26.1094V6.42578H24.6211V9.53125H22.8516V10.7383Z" fill="white"/>
<path d="M34.2656 7.51562H32.6016L30.5039 8.85156V10.4102L32.4492 9.19141H32.4961V16H34.2656V7.51562Z" fill="white"/>
</svg>
