<svg width="43" height="24" viewBox="0 0 43 24" fill="none" xmlns="http://www.w3.org/2000/svg">
<rect width="43" height="24" rx="12" fill="#F5901A"/>
<path d="M15.3301 6.42578H13.8301V14.0898H15.3301V6.42578ZM6.56445 9.78906C6.56445 11.377 7.8418 12.4961 9.48242 12.4961C11.1172 12.4961 12.3945 11.377 12.4004 9.78906C12.3945 8.22461 11.1172 7.09961 9.48242 7.10547C7.8418 7.09961 6.56445 8.22461 6.56445 9.78906ZM8.0293 9.78906C8.01758 8.92188 8.64453 8.40039 9.48242 8.40625C10.291 8.40039 10.918 8.92188 10.9238 9.78906C10.918 10.6797 10.291 11.1953 9.48242 11.1953C8.64453 11.1953 8.01758 10.6797 8.0293 9.78906ZM8.18164 16.8906H15.6113V15.6953H9.69336V13.3164H8.18164V16.8906Z" fill="white"/>
<path d="M20.6973 8.92188V8.83984H22.8535V7.66797H20.7207V6.48438H19.209V7.66797H17.0645V8.83984H19.209V8.92188C19.209 10.2227 18.4355 11.5176 16.7012 12.0391L17.4277 13.2109C18.6641 12.8242 19.5078 12.0332 19.9824 11.0312C20.4629 11.957 21.3066 12.6895 22.502 13.0352L23.2168 11.875C21.4824 11.3477 20.7031 10.123 20.6973 8.92188ZM18.6816 16.8906H26.0176V15.6953H20.1816V13.6562H18.6816V16.8906ZM22.502 10.7383H24.2715V14.3359H25.7598V6.42578H24.2715V9.53125H22.502V10.7383Z" fill="white"/>
<path d="M30.2598 16H36.3301V14.5469H32.709V14.5L33.998 13.2461C35.7441 11.6641 36.2129 10.873 36.2129 9.90625C36.2129 8.43555 35.0059 7.39844 33.1895 7.39844C31.4023 7.39844 30.1719 8.45898 30.1777 10.1172H31.8535C31.8477 9.30273 32.3691 8.79883 33.166 8.80469C33.9453 8.79883 34.5137 9.26758 34.5137 10.0234C34.5137 10.6973 34.0859 11.166 33.2949 11.9219L30.248 14.7227L30.2598 16Z" fill="white"/>
</svg>
