<svg width="44" height="24" viewBox="0 0 44 24" fill="none" xmlns="http://www.w3.org/2000/svg">
<rect width="44" height="24" rx="12" fill="#FF8E00"/>
<path d="M10.2168 7.12891C8.53516 7.12305 7.24609 8.21289 7.25195 9.74219C7.24609 11.2773 8.53516 12.3613 10.2168 12.3672C11.9102 12.3613 13.1641 11.2773 13.1699 9.74219C13.1641 8.21289 11.9102 7.12305 10.2168 7.12891ZM6.80664 13.7031L6.98242 14.9219C8.8457 14.9219 11.377 14.9043 13.7441 14.4414L13.627 13.3633C11.3477 13.6855 8.71094 13.709 6.80664 13.7031ZM8.74023 9.74219C8.73438 8.91016 9.37305 8.41797 10.2168 8.41797C11.0664 8.41797 11.7109 8.91016 11.7168 9.74219C11.7109 10.5859 11.0664 11.0723 10.2168 11.0664C9.37305 11.0723 8.73438 10.5859 8.74023 9.74219ZM14.2363 17.1016H15.7246V6.41406H14.2363V17.1016Z" fill="white"/>
<path d="M26.1191 6.41406H24.6309V9.01562H22.9668V10.2227H24.6309V12.7422H26.1191V6.41406ZM17.0605 11.5703L17.834 12.7539C19.0996 12.3203 19.9551 11.4473 20.4238 10.3633C20.8867 11.3184 21.7012 12.0918 22.873 12.4727L23.6113 11.3008C21.9531 10.75 21.1914 9.49609 21.1621 8.25391H23.2832V7.05859H17.4941V8.25391H19.6387C19.6035 9.58984 18.8066 10.9844 17.0605 11.5703ZM18.8066 15.0391C18.8066 16.334 20.2012 17.0898 22.4746 17.0898C24.7539 17.0898 26.1484 16.334 26.1543 15.0391C26.1484 13.7441 24.7539 12.9824 22.4746 12.9766C20.2012 12.9824 18.8066 13.7441 18.8066 15.0391ZM20.2949 15.0391C20.2949 14.4238 21.0625 14.1191 22.4746 14.125C23.8926 14.1191 24.6602 14.4238 24.666 15.0391C24.6602 15.6484 23.8926 15.9531 22.4746 15.9531C21.0625 15.9531 20.2949 15.6484 20.2949 15.0391Z" fill="white"/>
<path d="M37.252 12.5664H27.4902V13.7383H31.6035V17.0781H33.0801V13.7383H37.252V12.5664ZM28.6387 11.5352H36.0918V6.82422H34.5918V8.05469H30.1152V6.82422H28.6387V11.5352ZM30.1152 10.3398V9.22656H34.5918V10.3398H30.1152Z" fill="white"/>
</svg>
