<svg width="54" height="24" viewBox="0 0 54 24" fill="none" xmlns="http://www.w3.org/2000/svg">
<rect width="54" height="24" rx="12" fill="#D3BE74"/>
<path d="M12.2344 7.03516H7.25391V8.19531H10.6289C10.3945 9.63086 9.03516 10.8145 6.63281 11.4297L7.20703 12.5898C10.3945 11.7695 12.2344 9.84766 12.2344 7.03516ZM8.39062 16.9492H15.5039V12.8125H8.39062V16.9492ZM9.87891 15.7773V13.9844H14.0391V15.7773H9.87891ZM14.0039 12.3789H15.5039V6.42578H14.0039V12.3789Z" fill="white"/>
<path d="M26.707 14.6406H22.5352V12.7188H25.8398V11.5469H24.3867V8.5H25.8867V7.30469H17.707V8.5H19.1836V11.5469H17.7539V12.7188H21.0469V14.6406H16.9453V15.8945H26.707V14.6406ZM20.6836 11.5469V8.5H22.9102V11.5469H20.6836Z" fill="white"/>
<path d="M35.8711 6.8125H28.4297V7.98438H34.377C34.3652 8.50586 34.3301 9.10938 34.207 9.87109L35.6836 9.98828C35.8652 8.93359 35.8652 8.08398 35.8711 7.44531V6.8125ZM27.3398 11.582H37.0195V10.4219H32.4492V8.85156H30.9727V10.4219H27.3398V11.582ZM28.418 13.4336H34.3945V14.0898H28.4297V16.9961H36.1641V15.8477H29.918V15.0977H35.8711V12.25H28.418V13.4336Z" fill="white"/>
<path d="M46.3828 11.3477H40.3125V8.51172H46.3008V7.30469H38.8359V12.543H46.3828V11.3477ZM37.6875 15.7773H47.4492V14.5469H37.6875V15.7773Z" fill="white"/>
</svg>
