<svg width="200" height="143" viewBox="0 0 200 143" fill="none" xmlns="http://www.w3.org/2000/svg">
<path fill-rule="evenodd" clip-rule="evenodd" d="M128.513 15.1036C126.117 11.7451 123.143 8.82778 119.736 6.49716C116.08 9.7046 113.772 14.4109 113.772 19.6563C113.772 22.438 114.421 25.0681 115.576 27.4034L115.569 27.4072C116.803 29.8046 117.5 32.5241 117.5 35.4065C117.5 36.7377 117.351 38.0343 117.069 39.2805C115.307 47.0811 108.334 52.9063 100 52.9063C90.3349 52.9063 82.5 45.0713 82.5 35.4063C82.5 30.3468 84.6469 25.7889 88.0796 22.5938L109.078 1.59513C106.183 0.819701 103.14 0.40625 100 0.40625C80.67 0.40625 65 16.0763 65 35.4063C65 54.7362 80.67 70.4063 100 70.4063C118.875 70.4063 134.261 55.4647 134.974 36.764C134.988 36.4006 134.996 36.0359 134.999 35.6697C135 35.5266 135 35.3836 135 35.2406C134.965 27.735 132.568 20.7874 128.513 15.1036Z" fill="white"/>
<path d="M15.7061 106.077C15.7061 107.058 15.5143 107.985 15.1305 108.859C15.1093 108.88 15.0986 108.902 15.0986 108.923H20.7582V103.455H15.1945C15.5355 104.287 15.7061 105.161 15.7061 106.077ZM13.0841 111.545C12.5086 112.035 11.8583 112.43 11.1336 112.728C10.1956 113.133 9.2044 113.336 8.15994 113.336C7.09403 113.336 6.1028 113.144 5.18623 112.76C4.26967 112.355 3.47029 111.822 2.78809 111.161C2.12733 110.522 1.59428 109.765 1.18932 108.891C0.805621 107.996 0.61377 107.058 0.61377 106.077C0.61377 105.097 0.805621 104.169 1.18932 103.295C1.59428 102.4 2.12733 101.633 2.78809 100.993C3.47029 100.332 4.26967 99.8101 5.18623 99.4264C6.1028 99.0214 7.09403 98.8188 8.15994 98.8188C9.2044 98.8188 10.1956 99.0107 11.1336 99.3944C11.965 99.7568 12.7004 100.236 13.3399 100.833H20.7582V98.1474C20.7582 97.5079 20.6623 97.1135 20.4704 96.9643C20.2998 96.8151 19.9801 96.6872 19.5112 96.5806C19.0635 96.474 18.6905 96.3461 18.392 96.1969C18.0935 96.0477 17.9444 95.8025 17.9444 95.4614C17.9444 94.758 18.4027 94.4062 19.3193 94.4062H22.0692C23.3909 94.4062 24.0517 94.8859 24.0517 95.8451V119.827C24.0517 121.809 23.2203 122.8 21.5576 122.8H20.7582V111.545H13.0841ZM12.4126 106.077C12.4126 105.459 12.2955 104.873 12.0609 104.319C11.8264 103.743 11.5066 103.253 11.1017 102.848C10.6967 102.443 10.2383 102.123 9.72672 101.888C9.23638 101.654 8.71424 101.537 8.15994 101.537C7.58438 101.537 7.05152 101.654 6.56117 101.888C6.07082 102.123 5.62317 102.443 5.21821 102.848C4.81325 103.253 4.4935 103.743 4.25895 104.319C4.0244 104.873 3.90723 105.459 3.90723 106.077C3.90723 106.695 4.01387 107.282 4.22698 107.836C4.44008 108.369 4.69589 108.795 4.99438 109.115C5.52724 109.69 6.03885 110.085 6.5292 110.298C7.0408 110.511 7.58438 110.618 8.15994 110.618C8.71424 110.618 9.23638 110.501 9.72672 110.266C10.2383 110.031 10.6967 109.712 11.1017 109.307C11.5066 108.902 11.8264 108.422 12.0609 107.868C12.2955 107.292 12.4126 106.695 12.4126 106.077ZM43.6719 104.255C43.6719 105.193 43.4801 106.077 43.0964 106.909C42.7127 107.719 42.1905 108.433 41.5296 109.051C40.8901 109.69 40.1227 110.191 39.2274 110.554C38.3321 110.916 37.3835 111.097 36.3816 111.097C35.3584 111.097 34.4098 110.916 33.5358 110.554C32.6619 110.191 31.8945 109.69 31.2336 109.051C30.594 108.433 30.0824 107.719 29.6987 106.909C29.315 106.077 29.1232 105.193 29.1232 104.255C29.1232 103.317 29.315 102.443 29.6987 101.633C30.0824 100.823 30.594 100.109 31.2336 99.4903C31.8945 98.8508 32.6619 98.3499 33.5358 97.9875C34.4098 97.6251 35.3584 97.4439 36.3816 97.4439C37.3835 97.4439 38.3321 97.6251 39.2274 97.9875C40.1227 98.3499 40.8901 98.8508 41.5296 99.4903C42.1905 100.109 42.7127 100.823 43.0964 101.633C43.4801 102.443 43.6719 103.317 43.6719 104.255ZM40.2826 104.255C40.2826 103.7 40.1761 103.167 39.9628 102.656C39.7497 102.144 39.4619 101.707 39.0995 101.345C38.7372 100.982 38.3215 100.695 37.8524 100.482C37.3835 100.268 36.8932 100.162 36.3816 100.162C35.8487 100.162 35.3478 100.268 34.8787 100.482C34.4311 100.695 34.0261 100.982 33.6637 101.345C33.3014 101.707 33.0136 102.144 32.8003 102.656C32.5872 103.167 32.4806 103.7 32.4806 104.255C32.4806 104.809 32.5872 105.352 32.8003 105.885C33.0136 106.397 33.3014 106.834 33.6637 107.196C34.0261 107.559 34.4311 107.847 34.8787 108.06C35.3478 108.273 35.8487 108.379 36.3816 108.379C36.8932 108.379 37.3835 108.273 37.8524 108.06C38.3215 107.847 38.7372 107.559 39.0995 107.196C39.4619 106.834 39.7497 106.397 39.9628 105.885C40.1761 105.352 40.2826 104.809 40.2826 104.255ZM47.9246 98.1474C47.9246 97.5079 47.8287 97.1135 47.6369 96.9643C47.4665 96.8151 47.1572 96.6872 46.7096 96.5806C46.2194 96.474 45.8357 96.3461 45.5585 96.1969C45.2814 96.0477 45.1428 95.8025 45.1428 95.4614C45.1428 94.758 45.6012 94.4062 46.5177 94.4062H49.2356C50.5573 94.4062 51.2181 94.8859 51.2181 95.8451V119.827C51.2181 121.809 50.3867 122.8 48.724 122.8H47.9246V98.1474ZM38.6198 117.173H28.8034C27.8017 117.173 27.3006 116.725 27.3006 115.83C27.3006 114.934 27.8017 114.487 28.8034 114.487H38.8117C40.3252 114.487 41.5616 114.487 42.5208 114.487C43.4801 114.465 44.482 114.37 45.5265 114.199C46.3793 114.05 46.8909 114.21 47.0613 114.679C47.2532 115.147 47.0827 115.553 46.5497 115.894C45.9529 116.256 44.9936 116.565 43.6719 116.821C42.3504 117.055 40.6663 117.173 38.6198 117.173ZM60.2867 97.5718H74.6756C75.7413 97.5718 76.2744 98.0088 76.2744 98.8828C76.2744 99.7781 75.7628 100.226 74.7395 100.226H64.1238V107.612C64.1238 107.974 64.3369 108.156 64.7633 108.156H75.5709C76.5941 108.156 77.1057 108.593 77.1057 109.467C77.1057 110.362 76.5727 110.81 75.507 110.81H70.4229V116.565H81.0067C82.1151 116.565 82.6694 117.002 82.6694 117.876C82.6694 118.771 82.1151 119.219 81.0067 119.219H56.3857C55.3838 119.219 54.8829 118.771 54.8829 117.876C54.8829 117.002 55.3838 116.565 56.3857 116.565H67.1294V110.81H63.0366C61.6083 110.81 60.8942 110.095 60.8942 108.667V101.633C60.8942 100.865 60.8516 100.375 60.7664 100.162C60.681 99.9486 60.4571 99.7781 60.0949 99.6502C59.7964 99.5436 59.5513 99.4157 59.3594 99.2665C59.1888 99.1173 59.1036 98.8935 59.1036 98.595C59.1036 97.9129 59.4979 97.5718 60.2867 97.5718Z" fill="white"/>
<path d="M1.25993 142.207V134.502C1.25993 134.033 1.1582 133.71 0.9549 133.534C0.795751 133.392 0.5305 133.299 0.159151 133.255C0.0530512 133.237 0 133.18 0 133.083C0 132.994 0.0839339 132.95 0.251986 132.95H6.55166L6.63124 134.528C6.64014 134.617 6.61798 134.665 6.56493 134.674C6.51188 134.683 6.47209 134.643 6.44556 134.555C6.34836 134.13 6.25099 133.861 6.15379 133.746C6.06531 133.64 5.92833 133.556 5.74265 133.494C5.56588 133.432 5.31389 133.401 4.98669 133.401H2.99732C2.63487 133.401 2.38289 133.472 2.24136 133.613C2.11764 133.737 2.05568 133.976 2.05568 134.329V137.101H4.36335C4.5225 137.101 4.65077 137.092 4.74797 137.075C4.84516 137.057 4.9469 137.035 5.053 137.008C5.30935 136.938 5.49957 136.827 5.62329 136.677C5.75591 136.518 5.82223 136.314 5.82223 136.067C5.82223 135.969 5.86637 135.921 5.95485 135.921C6.04333 135.921 6.08747 135.969 6.08747 136.067V138.613C6.08747 138.728 6.04333 138.79 5.95485 138.799C5.87528 138.799 5.83113 138.759 5.82223 138.679C5.77808 138.326 5.67634 138.065 5.51719 137.897C5.41999 137.782 5.28737 137.702 5.11932 137.658C4.96017 137.605 4.70818 137.579 4.36335 137.579H2.05568V142.207H1.25993ZM7.54253 134.541C7.54253 134.091 7.44533 133.772 7.25076 133.587C7.05618 133.383 6.79093 133.282 6.45501 133.282C6.28696 133.282 6.20302 133.22 6.20302 133.096C6.20302 132.999 6.2826 132.95 6.44175 132.95H7.80778C8.17023 132.95 8.35154 133.145 8.35154 133.534V138.785C8.35154 139.201 8.38697 139.594 8.45764 139.966C8.52832 140.328 8.66094 140.642 8.85552 140.907C9.0501 141.182 9.30644 141.385 9.62474 141.518C9.95194 141.641 10.3453 141.703 10.8051 141.703C11.3002 141.703 11.6937 141.641 11.9855 141.518C12.2772 141.394 12.5425 141.186 12.7812 140.894C12.9934 140.629 13.1393 140.315 13.2189 139.953C13.2984 139.59 13.3382 139.21 13.3382 138.812V132.95H14.0411V138.759C14.0411 139.802 13.8598 140.594 13.4974 141.133C13.2676 141.46 12.936 141.743 12.5027 141.982C12.0783 142.212 11.508 142.327 10.7918 142.327C10.1287 142.327 9.58495 142.229 9.16055 142.035C8.74506 141.831 8.42675 141.584 8.20565 141.292C7.76363 140.726 7.54253 139.917 7.54253 138.865V134.541ZM15.5338 134.528C15.5338 134.139 15.4586 133.843 15.3083 133.64C15.1403 133.427 14.8529 133.299 14.4463 133.255C14.3489 133.246 14.3004 133.198 14.3004 133.109C14.3004 133.003 14.38 132.95 14.5391 132.95H16.7274L21.051 140.748H21.2367V132.95H21.9528V141.571C21.9528 141.995 21.7715 142.207 21.4091 142.207H21.0908L16.3959 133.998H16.2235V142.207H15.5338V134.528ZM30.1202 141.743C29.4483 142.114 28.6791 142.322 27.8125 142.366C26.4067 142.455 25.1954 142.048 24.1786 141.146C23.1706 140.244 22.6667 138.993 22.6667 137.393C22.6667 135.669 23.2193 134.404 24.3245 133.6C25.0672 133.052 25.969 132.778 27.03 132.778C27.5075 132.778 27.9364 132.84 28.3165 132.963C28.7056 133.087 29.0326 133.246 29.2979 133.441C29.8462 133.812 30.1334 134.21 30.16 134.634H29.152C29.099 134.325 28.8824 134.038 28.5021 133.772C28.0778 133.48 27.5738 133.335 26.9902 133.335C26.1592 133.335 25.4474 133.587 24.855 134.091C24.5101 134.382 24.2184 134.78 23.9796 135.284C23.7498 135.788 23.6348 136.411 23.6348 137.154C23.6348 138.613 24.0062 139.74 24.7489 140.536C25.5359 141.367 26.5571 141.774 27.8125 141.756C28.4226 141.73 29.1476 141.557 29.9875 141.239C30.0584 141.204 30.1202 141.199 30.1732 141.226C30.2263 141.243 30.2661 141.283 30.2926 141.345C30.328 141.407 30.328 141.478 30.2926 141.557C30.2661 141.637 30.2086 141.699 30.1202 141.743ZM33.3833 133.48H31.8448C31.5265 133.48 31.2789 133.534 31.1021 133.64C30.8723 133.772 30.7175 133.967 30.6379 134.223C30.5849 134.409 30.5451 134.634 30.5186 134.9C30.5097 134.962 30.4612 134.992 30.3727 134.992C30.2842 134.992 30.2401 134.962 30.2401 134.9L30.3064 132.95H37.2824L37.3488 134.9C37.3488 134.962 37.3046 134.997 37.2161 135.006C37.1277 135.006 37.0791 134.966 37.0702 134.886C37.0261 134.524 36.9465 134.232 36.8315 134.011C36.7165 133.799 36.5706 133.657 36.3939 133.587C36.2258 133.516 35.9606 133.48 35.5981 133.48H34.2188V142.207H33.3833V133.48ZM38.2161 134.528C38.2161 134.042 38.1013 133.706 37.8713 133.52C37.6591 133.343 37.4071 133.255 37.1153 133.255C36.9562 133.255 36.8766 133.198 36.8766 133.083C36.8766 132.994 36.9607 132.95 37.1286 132.95H38.4946C38.8572 132.95 39.0384 133.145 39.0384 133.534V142.207H38.2161V134.528ZM44.1922 142.287C43.4936 142.287 42.8836 142.176 42.362 141.955C41.8404 141.725 41.3938 141.411 41.0225 141.014C40.6511 140.598 40.3726 140.098 40.1869 139.515C40.0013 138.931 39.9084 138.277 39.9084 137.552C39.9084 136.827 40.0056 136.173 40.2002 135.589C40.4035 134.997 40.6953 134.497 41.0755 134.091C41.4558 133.684 41.9067 133.37 42.4283 133.149C42.9499 132.919 43.5334 132.804 44.1789 132.804C44.8155 132.804 45.3991 132.915 45.9296 133.136C46.4601 133.357 46.9154 133.666 47.2956 134.064C47.6581 134.48 47.9455 134.979 48.1577 135.563C48.3699 136.146 48.476 136.805 48.476 137.539C48.476 138.273 48.3742 138.936 48.1709 139.528C47.9676 140.112 47.6891 140.607 47.3354 141.014C46.9551 141.42 46.4999 141.734 45.9694 141.955C45.4478 142.176 44.8553 142.287 44.1922 142.287ZM44.1922 141.703C44.7934 141.703 45.3106 141.597 45.7439 141.385C46.1772 141.164 46.5397 140.846 46.8314 140.43C47.0878 140.05 47.2823 139.608 47.415 139.104C47.5476 138.6 47.6139 138.078 47.6139 137.539C47.6139 136.991 47.5476 136.469 47.415 135.974C47.2823 135.479 47.0834 135.041 46.8182 134.661C46.5353 134.254 46.1727 133.94 45.7306 133.719C45.2973 133.498 44.7801 133.388 44.1789 133.388C43.5954 133.388 43.0825 133.498 42.6405 133.719C42.2072 133.94 41.8491 134.259 41.5662 134.674C41.301 135.054 41.102 135.492 40.9694 135.987C40.8368 136.482 40.7705 137.004 40.7705 137.552C40.7705 138.083 40.8324 138.6 40.9562 139.104C41.0799 139.599 41.2744 140.041 41.5397 140.43C41.8139 140.837 42.1719 141.151 42.614 141.372C43.056 141.593 43.5821 141.703 44.1922 141.703ZM49.4463 134.528C49.4463 134.139 49.3711 133.843 49.2208 133.64C49.0528 133.427 48.7656 133.299 48.3588 133.255C48.2616 133.246 48.2129 133.198 48.2129 133.109C48.2129 133.003 48.2925 132.95 48.4516 132.95H50.6399L54.9635 140.748H55.1492V132.95H55.8653V141.571C55.8653 141.995 55.684 142.207 55.3216 142.207H55.0033L50.3084 133.998H50.136V142.207H49.4463V134.528ZM58.8472 134.754C58.9886 134.365 59.0594 134.082 59.0594 133.905C59.0594 133.719 58.9753 133.56 58.8074 133.427C58.6659 133.33 58.4315 133.273 58.1045 133.255C57.9895 133.246 57.9321 133.193 57.9321 133.096C57.9321 132.999 58.0204 132.95 58.1974 132.95H60.3194L63.8472 142.207H62.8923L61.6987 139.09H57.9189L56.7385 142.207H56.0488L58.8472 134.754ZM58.0647 138.587H61.566L59.7491 133.998L58.0647 138.587ZM64.3697 134.515C64.3697 134.117 64.2768 133.816 64.0912 133.613C63.9142 133.401 63.6137 133.282 63.1893 133.255C63.0832 133.246 63.0302 133.189 63.0302 133.083C63.0302 132.994 63.1098 132.95 63.2689 132.95H64.6482C65.0195 132.95 65.2052 133.149 65.2052 133.547V140.616C65.2052 140.987 65.3157 141.261 65.5368 141.438C65.749 141.597 66.1025 141.677 66.5978 141.677H68.2689C68.6489 141.677 68.9363 141.597 69.1309 141.438C69.3077 141.288 69.427 141.044 69.489 140.709L69.5818 140.205C69.5995 140.107 69.6525 140.063 69.741 140.072C69.8382 140.081 69.8869 140.125 69.8869 140.205L69.8206 142.207H64.3697V134.515ZM73.792 133.534C73.6683 133.401 73.4428 133.312 73.1156 133.268C73.0096 133.251 72.9565 133.193 72.9565 133.096C72.9565 132.999 73.0406 132.95 73.2085 132.95H75.6223L78.3278 140.974H78.54L81.3516 132.95H82.9034V142.207H82.0678V133.613H81.8424L78.9777 141.77C78.8716 142.061 78.6992 142.207 78.4604 142.207H77.8769L74.9591 133.613H74.7867V142.207H74.1103V134.528C74.1103 134.051 74.0042 133.719 73.792 133.534ZM89.701 132.95L89.7673 134.555C89.776 134.634 89.7495 134.678 89.6877 134.687C89.6258 134.687 89.586 134.643 89.5684 134.555C89.5153 134.263 89.4312 134.02 89.3164 133.825C89.1572 133.551 88.7681 133.414 88.1493 133.414H86.1201C85.8018 133.414 85.5718 133.472 85.4305 133.587C85.3155 133.675 85.2448 133.781 85.2183 133.905C85.1918 134.02 85.1785 134.192 85.1785 134.422V137.154H87.4862C87.716 137.154 87.9458 137.128 88.1758 137.075C88.4233 137.004 88.6135 136.898 88.7461 136.756C88.8875 136.615 88.9583 136.42 88.9583 136.173C88.9583 136.058 89.0025 136 89.0909 136C89.1881 136 89.2368 136.058 89.2368 136.173V138.666C89.2368 138.781 89.1881 138.839 89.0909 138.839C89.0025 138.839 88.9583 138.781 88.9583 138.666C88.9583 138.436 88.8609 138.211 88.6665 137.99C88.472 137.751 88.0873 137.632 87.5127 137.632H85.1785V140.881C85.1785 141.217 85.2581 141.447 85.4172 141.571C85.5764 141.694 85.9167 141.756 86.4384 141.756H88.4941C88.9272 141.756 89.2501 141.641 89.4623 141.411C89.5506 141.305 89.6258 141.155 89.6877 140.961L89.8071 140.483C89.8336 140.395 89.8778 140.355 89.9397 140.364C90.0015 140.364 90.028 140.412 90.0193 140.51L89.9265 142.207H84.396V134.382C84.396 133.993 84.2854 133.715 84.0645 133.547C83.8523 133.37 83.5957 133.273 83.2952 133.255C83.1891 133.246 83.1361 133.193 83.1361 133.096C83.1361 132.999 83.2111 132.95 83.3615 132.95H89.701ZM91.7204 140.722C91.7204 141.137 91.8043 141.411 91.9723 141.544C92.1139 141.659 92.3261 141.716 92.6089 141.716H93.1527C93.6478 141.716 94.1385 141.637 94.6248 141.478C95.1199 141.319 95.5267 141.067 95.845 140.722C96.1191 140.395 96.3446 139.983 96.5214 139.488C96.6981 138.993 96.7866 138.37 96.7866 137.618C96.7866 137.052 96.7292 136.509 96.6142 135.987C96.5081 135.457 96.3224 134.992 96.0572 134.595C95.8185 134.223 95.4693 133.936 95.0095 133.732C94.5496 133.529 93.9882 133.427 93.3251 133.427H92.7548C92.3304 133.427 92.043 133.503 91.8928 133.653C91.7778 133.768 91.7204 133.98 91.7204 134.289V140.722ZM89.8901 133.255C89.7399 133.255 89.6647 133.202 89.6647 133.096C89.6647 132.999 89.7486 132.95 89.9167 132.95H92.2243C92.5692 132.95 92.9847 132.963 93.471 132.99C93.9574 133.007 94.3552 133.043 94.6646 133.096C95.5399 133.237 96.2694 133.671 96.8529 134.396C97.4365 135.121 97.7283 136.195 97.7283 137.618C97.7283 138.617 97.5867 139.413 97.3038 140.006C97.021 140.598 96.6364 141.053 96.15 141.372C95.6991 141.672 95.204 141.889 94.6646 142.022C94.1252 142.145 93.4843 142.207 92.7416 142.207H90.9246V134.541C90.9246 134.046 90.8141 133.706 90.593 133.52C90.3632 133.343 90.1289 133.255 89.8901 133.255ZM98.7484 134.528C98.7484 134.042 98.6335 133.706 98.4035 133.52C98.1913 133.343 97.9394 133.255 97.6476 133.255C97.4884 133.255 97.4089 133.198 97.4089 133.083C97.4089 132.994 97.493 132.95 97.6609 132.95H99.0269C99.3895 132.95 99.5707 133.145 99.5707 133.534V142.207H98.7484V134.528ZM107.894 141.743C107.222 142.114 106.454 142.322 105.587 142.366C104.181 142.455 102.969 142.048 101.953 141.146C100.945 140.244 100.441 138.993 100.441 137.393C100.441 135.669 100.993 134.404 102.099 133.6C102.842 133.052 103.743 132.778 104.804 132.778C105.282 132.778 105.711 132.84 106.09 132.963C106.479 133.087 106.806 133.246 107.071 133.441C107.62 133.812 107.907 134.21 107.934 134.634H106.926C106.873 134.325 106.657 134.038 106.276 133.772C105.852 133.48 105.347 133.335 104.764 133.335C103.934 133.335 103.222 133.587 102.629 134.091C102.284 134.382 101.992 134.78 101.754 135.284C101.524 135.788 101.409 136.411 101.409 137.154C101.409 138.613 101.78 139.74 102.523 140.536C103.311 141.367 104.332 141.774 105.587 141.756C106.198 141.73 106.922 141.557 107.762 141.239C107.833 141.204 107.894 141.199 107.947 141.226C108 141.243 108.04 141.283 108.067 141.345C108.102 141.407 108.102 141.478 108.067 141.557C108.04 141.637 107.983 141.699 107.894 141.743ZM108.983 134.528C108.983 134.042 108.868 133.706 108.637 133.52C108.425 133.343 108.174 133.255 107.882 133.255C107.722 133.255 107.644 133.198 107.644 133.083C107.644 132.994 107.727 132.95 107.894 132.95H109.261C109.624 132.95 109.804 133.145 109.804 133.534V142.207H108.983V134.528ZM111.417 134.528C111.417 134.139 111.343 133.843 111.192 133.64C111.025 133.427 110.736 133.299 110.329 133.255C110.233 133.246 110.184 133.198 110.184 133.109C110.184 133.003 110.263 132.95 110.423 132.95H112.611L116.935 140.748H117.12V132.95H117.836V141.571C117.836 141.995 117.656 142.207 117.293 142.207H116.975L112.28 133.998H112.108V142.207H111.417V134.528ZM124.638 132.95L124.703 134.555C124.712 134.634 124.687 134.678 124.625 134.687C124.563 134.687 124.523 134.643 124.505 134.555C124.452 134.263 124.369 134.02 124.253 133.825C124.095 133.551 123.706 133.414 123.086 133.414H121.057C120.739 133.414 120.508 133.472 120.367 133.587C120.252 133.675 120.181 133.781 120.156 133.905C120.129 134.02 120.116 134.192 120.116 134.422V137.154H122.423C122.652 137.154 122.883 137.128 123.112 137.075C123.361 137.004 123.55 136.898 123.682 136.756C123.824 136.615 123.895 136.42 123.895 136.173C123.895 136.058 123.938 136 124.027 136C124.125 136 124.173 136.058 124.173 136.173V138.666C124.173 138.781 124.125 138.839 124.027 138.839C123.938 138.839 123.895 138.781 123.895 138.666C123.895 138.436 123.798 138.211 123.604 137.99C123.408 137.751 123.025 137.632 122.449 137.632H120.116V140.881C120.116 141.217 120.194 141.447 120.354 141.571C120.514 141.694 120.853 141.756 121.375 141.756H123.431C123.864 141.756 124.187 141.641 124.4 141.411C124.487 141.305 124.563 141.155 124.625 140.961L124.743 140.483C124.77 140.395 124.814 140.355 124.876 140.364C124.938 140.364 124.965 140.412 124.956 140.51L124.863 142.207H119.333V134.382C119.333 133.993 119.222 133.715 119 133.547C118.79 133.37 118.533 133.273 118.232 133.255C118.127 133.246 118.072 133.193 118.072 133.096C118.072 132.999 118.148 132.95 118.299 132.95H124.638ZM131.989 136.372C132.279 136.257 132.55 136.137 132.797 136.014C133.044 135.89 133.278 135.757 133.5 135.616C133.694 135.465 133.862 135.302 134.003 135.125C134.145 134.939 134.216 134.74 134.216 134.528C134.216 134.157 134.096 133.852 133.858 133.613C133.62 133.374 133.278 133.255 132.837 133.255C132.554 133.255 132.319 133.299 132.134 133.388C131.958 133.467 131.807 133.569 131.683 133.693C131.48 133.905 131.369 134.183 131.351 134.528C131.342 134.864 131.396 135.174 131.511 135.457C131.563 135.58 131.625 135.713 131.696 135.854C131.776 135.996 131.872 136.168 131.989 136.372ZM131.656 141.809C132.045 141.809 132.47 141.73 132.93 141.571C133.398 141.403 133.796 141.159 134.123 140.841C133.584 140.24 133.102 139.648 132.677 139.064C132.261 138.48 131.872 137.866 131.511 137.22C131.086 137.442 130.759 137.663 130.53 137.884C130.299 138.096 130.123 138.312 129.999 138.533C129.883 138.772 129.805 139.002 129.759 139.223C129.725 139.444 129.707 139.652 129.707 139.846C129.707 140.103 129.747 140.35 129.827 140.589C129.906 140.819 130.025 141.022 130.184 141.199C130.546 141.606 131.036 141.809 131.656 141.809ZM131.271 136.73C131.015 136.314 130.826 135.938 130.702 135.602C130.577 135.258 130.515 134.926 130.515 134.608C130.515 134.024 130.728 133.556 131.153 133.202C131.585 132.84 132.161 132.658 132.877 132.658C133.556 132.658 134.052 132.84 134.361 133.202C134.672 133.564 134.826 133.976 134.826 134.435C134.826 134.983 134.617 135.426 134.203 135.762C133.787 136.098 133.133 136.46 132.239 136.849C132.621 137.512 133.004 138.118 133.393 138.666C133.783 139.214 134.212 139.754 134.681 140.284C134.839 140.143 134.972 139.988 135.079 139.82C135.193 139.652 135.304 139.475 135.409 139.289C135.631 138.892 135.742 138.516 135.742 138.162C135.742 137.95 135.675 137.778 135.542 137.645C135.419 137.512 135.193 137.446 134.866 137.446C134.786 137.446 134.734 137.428 134.706 137.393C134.681 137.357 134.666 137.318 134.666 137.274C134.666 137.22 134.681 137.181 134.706 137.154C134.734 137.119 134.786 137.101 134.866 137.101H137.664C137.744 137.101 137.8 137.119 137.837 137.154C137.871 137.181 137.889 137.22 137.889 137.274C137.889 137.318 137.871 137.357 137.837 137.393C137.809 137.428 137.753 137.446 137.664 137.446C137.337 137.446 137.099 137.495 136.948 137.592C136.798 137.689 136.665 137.906 136.55 138.242C136.338 138.781 136.116 139.259 135.887 139.674C135.64 140.09 135.379 140.452 135.104 140.762C135.653 141.46 136.223 141.809 136.816 141.809C137.328 141.809 137.84 141.686 138.354 141.438V141.889C138.195 141.995 137.942 142.101 137.599 142.207C137.254 142.304 136.881 142.353 136.483 142.353C136.183 142.353 135.86 142.269 135.515 142.101C135.172 141.933 134.83 141.668 134.494 141.305C134.043 141.765 133.575 142.097 133.089 142.3C132.612 142.495 132.147 142.592 131.696 142.592C130.688 142.592 129.954 142.331 129.494 141.809C129.025 141.288 128.791 140.7 128.791 140.045C128.791 139.259 129 138.617 129.414 138.122C129.848 137.609 130.468 137.145 131.271 136.73ZM144.355 134.754C144.497 134.365 144.568 134.082 144.568 133.905C144.568 133.719 144.484 133.56 144.315 133.427C144.174 133.33 143.939 133.273 143.612 133.255C143.498 133.246 143.44 133.193 143.44 133.096C143.44 132.999 143.529 132.95 143.705 132.95H145.827L149.355 142.207H148.401L147.208 139.09H143.427L142.246 142.207H141.557L144.355 134.754ZM143.572 138.587H147.075L145.256 133.998L143.572 138.587ZM155.183 132.95L155.249 134.555C155.258 134.634 155.232 134.678 155.169 134.687C155.107 134.687 155.067 134.643 155.051 134.555C154.998 134.263 154.913 134.02 154.798 133.825C154.638 133.551 154.249 133.414 153.632 133.414H151.602C151.284 133.414 151.054 133.472 150.912 133.587C150.798 133.675 150.727 133.781 150.699 133.905C150.674 134.02 150.66 134.192 150.66 134.422V137.154H152.969C153.198 137.154 153.428 137.128 153.657 137.075C153.906 137.004 154.095 136.898 154.228 136.756C154.369 136.615 154.44 136.42 154.44 136.173C154.44 136.058 154.484 136 154.573 136C154.669 136 154.718 136.058 154.718 136.173V138.666C154.718 138.781 154.669 138.839 154.573 138.839C154.484 138.839 154.44 138.781 154.44 138.666C154.44 138.436 154.342 138.211 154.148 137.99C153.953 137.751 153.57 137.632 152.994 137.632H150.66V140.881C150.66 141.217 150.739 141.447 150.899 141.571C151.057 141.694 151.399 141.756 151.92 141.756H153.975C154.409 141.756 154.733 141.641 154.943 141.411C155.033 141.305 155.107 141.155 155.169 140.961L155.289 140.483C155.316 140.395 155.36 140.355 155.421 140.364C155.483 140.364 155.51 140.412 155.501 140.51L155.409 142.207H149.878V134.382C149.878 133.993 149.767 133.715 149.546 133.547C149.333 133.37 149.077 133.273 148.777 133.255C148.67 133.246 148.617 133.193 148.617 133.096C148.617 132.999 148.694 132.95 148.843 132.95H155.183ZM160.532 133.746C159.78 133.445 159.055 133.295 158.355 133.295C157.809 133.295 157.356 133.423 157.004 133.679C156.659 133.936 156.486 134.294 156.486 134.754C156.486 135.125 156.579 135.439 156.764 135.695C156.951 135.952 157.269 136.221 157.72 136.504C158.019 136.699 158.37 136.893 158.768 137.088C159.166 137.274 159.545 137.49 159.907 137.738C160.261 137.976 160.557 138.255 160.797 138.573C161.035 138.892 161.155 139.276 161.155 139.727C161.155 140.355 160.973 140.89 160.61 141.332C160.248 141.765 159.749 142.057 159.111 142.207C158.679 142.313 158.201 142.362 157.68 142.353C157.202 142.344 156.64 142.278 155.995 142.154C155.783 142.11 155.637 142.039 155.558 141.942C155.487 141.836 155.465 141.712 155.492 141.571C155.508 141.473 155.554 141.398 155.625 141.345C155.696 141.292 155.796 141.292 155.928 141.345C156.522 141.557 157.06 141.681 157.547 141.716C157.981 141.752 158.364 141.73 158.701 141.65C159.046 141.571 159.333 141.438 159.564 141.252C160.014 140.854 160.239 140.403 160.239 139.9C160.239 139.59 160.147 139.303 159.961 139.037C159.774 138.763 159.493 138.507 159.111 138.268C158.793 138.074 158.432 137.884 158.025 137.698C157.627 137.503 157.238 137.274 156.857 137.008C156.53 136.796 156.242 136.518 155.995 136.173C155.748 135.819 155.625 135.43 155.625 135.006C155.625 134.245 155.894 133.679 156.433 133.308C156.982 132.928 157.689 132.738 158.555 132.738C159.2 132.738 159.86 132.844 160.532 133.056V133.746ZM164.398 133.48H162.859C162.541 133.48 162.294 133.534 162.116 133.64C161.887 133.772 161.733 133.967 161.653 134.223C161.6 134.409 161.56 134.634 161.533 134.9C161.524 134.962 161.477 134.992 161.388 134.992C161.299 134.992 161.255 134.962 161.255 134.9L161.32 132.95H168.297L168.364 134.9C168.364 134.962 168.319 134.997 168.231 135.006C168.142 135.006 168.093 134.966 168.084 134.886C168.041 134.524 167.961 134.232 167.846 134.011C167.732 133.799 167.585 133.657 167.408 133.587C167.241 133.516 166.976 133.48 166.613 133.48H165.234V142.207H164.398V133.48ZM170.039 137.022H174.774V132.95H175.584V142.207H174.774V137.565H170.039V142.207H169.231V134.528C169.231 134.104 169.134 133.79 168.938 133.587C168.753 133.374 168.457 133.264 168.05 133.255C167.944 133.246 167.892 133.193 167.892 133.096C167.892 132.999 167.975 132.95 168.142 132.95H169.483C169.854 132.95 170.039 133.149 170.039 133.547V137.022ZM182.424 132.95L182.491 134.555C182.499 134.634 182.473 134.678 182.411 134.687C182.35 134.687 182.31 134.643 182.291 134.555C182.239 134.263 182.155 134.02 182.039 133.825C181.881 133.551 181.492 133.414 180.873 133.414H178.843C178.525 133.414 178.295 133.472 178.155 133.587C178.038 133.675 177.967 133.781 177.942 133.905C177.915 134.02 177.902 134.192 177.902 134.422V137.154H180.209C180.44 137.154 180.669 137.128 180.9 137.075C181.147 137.004 181.338 136.898 181.47 136.756C181.61 136.615 181.681 136.42 181.681 136.173C181.681 136.058 181.726 136 181.814 136C181.912 136 181.961 136.058 181.961 136.173V138.666C181.961 138.781 181.912 138.839 181.814 138.839C181.726 138.839 181.681 138.781 181.681 138.666C181.681 138.436 181.585 138.211 181.39 137.99C181.196 137.751 180.811 137.632 180.237 137.632H177.902V140.881C177.902 141.217 177.982 141.447 178.14 141.571C178.3 141.694 178.64 141.756 179.161 141.756H181.218C181.65 141.756 181.973 141.641 182.186 141.411C182.273 141.305 182.35 141.155 182.411 140.961L182.531 140.483C182.557 140.395 182.6 140.355 182.664 140.364C182.726 140.364 182.751 140.412 182.742 140.51L182.649 142.207H177.119V134.382C177.119 133.993 177.008 133.715 176.788 133.547C176.576 133.37 176.32 133.273 176.018 133.255C175.913 133.246 175.86 133.193 175.86 133.096C175.86 132.999 175.935 132.95 176.085 132.95H182.424ZM185.823 133.48H184.284C183.966 133.48 183.719 133.534 183.541 133.64C183.312 133.772 183.158 133.967 183.078 134.223C183.025 134.409 182.985 134.634 182.958 134.9C182.949 134.962 182.9 134.992 182.813 134.992C182.724 134.992 182.68 134.962 182.68 134.9L182.746 132.95H189.722L189.789 134.9C189.789 134.962 189.744 134.997 189.657 135.006C189.568 135.006 189.519 134.966 189.509 134.886C189.466 134.524 189.386 134.232 189.271 134.011C189.157 133.799 189.01 133.657 188.834 133.587C188.667 133.516 188.401 133.48 188.038 133.48H186.659V142.207H185.823V133.48ZM190.656 134.528C190.656 134.042 190.541 133.706 190.311 133.52C190.098 133.343 189.847 133.255 189.555 133.255C189.395 133.255 189.317 133.198 189.317 133.083C189.317 132.994 189.4 132.95 189.568 132.95H190.934C191.297 132.95 191.479 133.145 191.479 133.534V142.207H190.656V134.528ZM199.802 141.743C199.129 142.114 198.361 142.322 197.494 142.366C196.088 142.455 194.876 142.048 193.861 141.146C192.852 140.244 192.347 138.993 192.347 137.393C192.347 135.669 192.901 134.404 194.006 133.6C194.749 133.052 195.65 132.778 196.711 132.778C197.189 132.778 197.618 132.84 197.997 132.963C198.386 133.087 198.713 133.246 198.979 133.441C199.527 133.812 199.814 134.21 199.841 134.634H198.833C198.78 134.325 198.564 134.038 198.183 133.772C197.759 133.48 197.254 133.335 196.671 133.335C195.841 133.335 195.129 133.587 194.537 134.091C194.191 134.382 193.901 134.78 193.661 135.284C193.432 135.788 193.316 136.411 193.316 137.154C193.316 138.613 193.688 139.74 194.431 140.536C195.218 141.367 196.239 141.774 197.494 141.756C198.105 141.73 198.83 141.557 199.669 141.239C199.74 141.204 199.802 141.199 199.854 141.226C199.907 141.243 199.947 141.283 199.974 141.345C200.009 141.407 200.009 141.478 199.974 141.557C199.947 141.637 199.891 141.699 199.802 141.743Z" fill="white"/>
<path d="M105.182 97.9555C105.162 98.9361 104.799 99.9593 104.096 101.025L111.258 105.47C111.792 105.811 112.079 106.205 112.122 106.653C112.186 107.079 112.101 107.452 111.866 107.772C111.61 108.092 111.249 108.273 110.778 108.315C110.309 108.337 109.819 108.166 109.308 107.804L102.465 102.88C100.334 104.99 97.541 106.834 94.0877 108.411C93.299 108.731 92.734 108.667 92.393 108.22C92.0733 107.751 92.2758 107.324 93.0005 106.941C94.9617 105.853 96.7524 104.532 98.3724 102.976C100.014 101.42 101.026 99.938 101.41 98.5311C101.453 98.3605 101.399 98.2326 101.25 98.1474C101.101 98.0408 100.824 97.9448 100.419 97.8596C99.6941 97.689 99.3743 97.2947 99.4595 96.6765C99.5662 96.0583 99.9712 95.7492 100.675 95.7492H102.689C103.669 95.7492 104.33 95.9624 104.672 96.3887C105.033 96.7937 105.204 97.316 105.182 97.9555ZM104.383 113.559V120.21C104.383 122.363 103.595 123.44 102.018 123.44H101.122V113.559H90.3466C89.3446 113.559 88.8438 113.112 88.8438 112.216C88.8438 111.342 89.3446 110.905 90.3466 110.905H115C116.087 110.905 116.63 111.342 116.63 112.216C116.63 113.112 116.087 113.559 115 113.559H104.383ZM132.47 110.074H121.759C120.352 110.074 119.648 109.36 119.648 107.932V101.537C119.648 100.833 119.606 100.375 119.52 100.162C119.457 99.9486 119.222 99.7781 118.817 99.6502C118.561 99.5649 118.338 99.4477 118.145 99.2985C117.954 99.1279 117.858 98.8935 117.858 98.595C117.858 97.9129 118.22 97.5718 118.944 97.5718H131.128C132.194 97.5718 132.727 98.0195 132.727 98.9148C132.727 99.7888 132.214 100.226 131.191 100.226H122.911V106.877C122.911 107.239 123.112 107.42 123.517 107.42H132.534C133.557 107.42 134.069 107.857 134.069 108.731C134.069 109.626 133.537 110.074 132.47 110.074ZM137.523 98.1474C137.523 97.5079 137.437 97.1135 137.267 96.9643C137.096 96.8151 136.776 96.6872 136.307 96.5806C135.861 96.474 135.486 96.3461 135.188 96.1969C134.89 96.0477 134.741 95.8025 134.741 95.4614C134.741 94.758 135.188 94.4062 136.084 94.4062H138.833C140.155 94.4062 140.817 94.8752 140.817 95.8132V102.112H144.877C145.922 102.112 146.443 102.56 146.443 103.455C146.443 104.351 145.922 104.798 144.877 104.798H140.817V109.403C140.817 111.321 139.974 112.28 138.29 112.28H137.523V98.1474ZM129.017 121.138C129.017 121.415 129.006 121.67 128.986 121.905H137.299V115.99H129.017V121.138ZM138.833 113.336C139.985 113.336 140.56 113.943 140.56 115.158V123.12C140.56 124.079 140.112 124.559 139.218 124.559H127.77C127.365 124.836 126.853 124.975 126.235 124.975H125.788V117.428C125.788 116.64 125.745 116.149 125.659 115.958C125.596 115.744 125.383 115.574 125.02 115.446C124.722 115.339 124.477 115.211 124.284 115.062C124.093 114.892 123.997 114.657 123.997 114.359C123.997 113.677 124.455 113.336 125.372 113.336H138.833ZM163.332 104.255C163.332 105.193 163.139 106.077 162.756 106.909C162.373 107.719 161.849 108.433 161.19 109.051C160.55 109.69 159.782 110.191 158.886 110.554C157.992 110.916 157.042 111.097 156.041 111.097C155.018 111.097 154.07 110.916 153.196 110.554C152.322 110.191 151.554 109.69 150.892 109.051C150.253 108.433 149.742 107.719 149.359 106.909C148.974 106.077 148.783 105.193 148.783 104.255C148.783 103.317 148.974 102.443 149.359 101.633C149.742 100.823 150.253 100.109 150.892 99.4903C151.554 98.8508 152.322 98.3499 153.196 97.9875C154.07 97.6251 155.018 97.4439 156.041 97.4439C157.042 97.4439 157.992 97.6251 158.886 97.9875C159.782 98.3499 160.55 98.8508 161.19 99.4903C161.849 100.109 162.373 100.823 162.756 101.633C163.139 102.443 163.332 103.317 163.332 104.255ZM159.942 104.255C159.942 103.7 159.837 103.167 159.622 102.656C159.41 102.144 159.121 101.707 158.759 101.345C158.398 100.982 157.982 100.695 157.513 100.482C157.042 100.268 156.554 100.162 156.041 100.162C155.509 100.162 155.008 100.268 154.539 100.482C154.09 100.695 153.685 100.982 153.323 101.345C152.962 101.707 152.673 102.144 152.46 102.656C152.246 103.167 152.141 103.7 152.141 104.255C152.141 104.809 152.246 105.352 152.46 105.885C152.673 106.397 152.962 106.834 153.323 107.196C153.685 107.559 154.09 107.847 154.539 108.06C155.008 108.273 155.509 108.379 156.041 108.379C156.554 108.379 157.042 108.273 157.513 108.06C157.982 107.847 158.398 107.559 158.759 107.196C159.121 106.834 159.41 106.397 159.622 105.885C159.837 105.352 159.942 104.809 159.942 104.255ZM167.585 98.1474C167.585 97.5079 167.489 97.1135 167.296 96.9643C167.125 96.8151 166.817 96.6872 166.37 96.5806C165.879 96.474 165.496 96.3461 165.218 96.1969C164.942 96.0477 164.802 95.8025 164.802 95.4614C164.802 94.758 165.261 94.4062 166.177 94.4062H168.895C170.218 94.4062 170.877 94.8859 170.877 95.8451V119.827C170.877 121.809 170.047 122.8 168.384 122.8H167.585V98.1474ZM158.28 117.173H148.463C147.461 117.173 146.961 116.725 146.961 115.83C146.961 114.934 147.461 114.487 148.463 114.487H158.472C159.985 114.487 161.221 114.487 162.18 114.487C163.139 114.465 164.142 114.37 165.187 114.199C166.039 114.05 166.551 114.21 166.72 114.679C166.913 115.147 166.742 115.553 166.21 115.894C165.612 116.256 164.653 116.565 163.332 116.821C162.009 117.055 160.325 117.173 158.28 117.173ZM186.788 100.993C186.788 100.055 186.427 99.2665 185.702 98.627C184.999 97.9662 184.167 97.6358 183.208 97.6358C182.248 97.6358 181.418 97.9662 180.713 98.627C180.01 99.2665 179.659 100.055 179.659 100.993C179.659 101.931 180.01 102.709 180.713 103.327C181.418 103.946 182.248 104.255 183.208 104.255C184.167 104.255 184.999 103.946 185.702 103.327C186.427 102.709 186.788 101.931 186.788 100.993ZM190.082 100.961C190.082 101.793 189.901 102.571 189.539 103.295C189.176 104.02 188.687 104.66 188.067 105.214C187.428 105.768 186.694 106.205 185.862 106.525C185.03 106.823 184.145 106.973 183.208 106.973C182.27 106.973 181.385 106.823 180.553 106.525C179.743 106.205 179.02 105.768 178.38 105.214C177.761 104.66 177.27 104.02 176.909 103.295C176.545 102.571 176.366 101.793 176.366 100.961C176.366 100.13 176.545 99.3518 176.909 98.627C177.27 97.9022 177.761 97.2627 178.38 96.7085C179.02 96.1542 179.743 95.7172 180.553 95.3975C181.385 95.0777 182.27 94.9179 183.208 94.9179C184.145 94.9179 185.03 95.0777 185.862 95.3975C186.694 95.7172 187.428 96.1542 188.067 96.7085C188.687 97.2627 189.176 97.9022 189.539 98.627C189.901 99.3518 190.082 100.13 190.082 100.961ZM185.222 110.554V113.336C185.222 114.913 184.456 115.702 182.92 115.702H181.898V110.554H175.95C174.947 110.554 174.447 110.106 174.447 109.211C174.447 108.337 174.947 107.9 175.95 107.9H185.958C187.471 107.9 188.707 107.9 189.666 107.9C190.625 107.879 191.628 107.783 192.673 107.612C193.525 107.463 194.037 107.623 194.208 108.092C194.399 108.539 194.228 108.934 193.696 109.275C193.098 109.637 192.139 109.946 190.818 110.202C189.495 110.437 187.813 110.554 185.766 110.554H185.222ZM195.071 98.1154C195.071 97.4972 194.975 97.1135 194.782 96.9643C194.611 96.8151 194.303 96.6872 193.856 96.5806C193.365 96.474 192.982 96.3461 192.704 96.1969C192.428 96.0477 192.29 95.8025 192.29 95.4614C192.29 94.758 192.747 94.4062 193.663 94.4062H196.381C197.704 94.4062 198.365 94.8859 198.365 95.8451V115.99C198.365 117.972 197.533 118.963 195.87 118.963H195.071V114.934H189.666C188.622 114.934 188.1 114.487 188.1 113.591C188.1 112.717 188.622 112.28 189.666 112.28H195.071V98.1154ZM197.725 124.335H185.895C183.656 124.335 182.537 123.387 182.537 121.489V120.018C182.537 119.379 182.441 118.985 182.248 118.835C182.077 118.665 181.747 118.516 181.258 118.388C180.788 118.26 180.468 118.132 180.299 118.004C180.128 117.855 180.043 117.62 180.043 117.301C180.043 116.597 180.49 116.245 181.385 116.245H183.816C185.159 116.245 185.829 116.768 185.829 117.812V121.138C185.829 121.479 186 121.649 186.341 121.649H197.789C198.854 121.649 199.388 122.097 199.388 122.992C199.388 123.887 198.834 124.335 197.725 124.335Z" fill="white"/>
</svg>
